<svg xmlns="http://www.w3.org/2000/svg" xmlns:xlink="http://www.w3.org/1999/xlink" contentStyleType="text/css" data-diagram-type="DESCRIPTION" height="991px" preserveAspectRatio="none" style="width:945px;height:991px;background:#FFFFFF;" version="1.1" viewBox="0 0 945 991" width="945px" zoomAndPan="magnify"><defs/><g><!--cluster Piattaforma Car Pooling--><g class="cluster" data-entity="Piattaforma Car Pooling" data-source-line="13" data-uid="ent0008" id="cluster_Piattaforma Car Pooling"><rect fill="none" height="923" rx="2.5" ry="2.5" style="stroke:#181818;stroke-width:1;" width="298.24" x="394.06" y="62.13"/><text fill="#000000" font-family="sans-serif" font-size="14" font-weight="bold" lengthAdjust="spacing" textLength="189.4443" x="448.4578" y="77.1251">Piattaforma Car Pooling</text></g><!--entity RicercaViaggi--><g class="entity" data-entity="RicercaViaggi" data-source-line="15" data-uid="ent0009" id="entity_RicercaViaggi"><ellipse cx="543.1837" cy="522.1287" fill="#F1F1F1" rx="67.5437" ry="15.9087" style="stroke:#181818;stroke-width:0.5;"/><text fill="#000000" font-family="sans-serif" font-size="14" lengthAdjust="spacing" textLength="100.1191" x="493.1241" y="526.7772">Ricerca Viaggi</text></g><!--entity Registrazione--><g class="entity" data-entity="Registrazione" data-source-line="16" data-uid="ent0010" id="entity_Registrazione"><ellipse cx="543.1783" cy="451.1337" fill="#F1F1F1" rx="87.1683" ry="19.8337" style="stroke:#181818;stroke-width:0.5;"/><text fill="#000000" font-family="sans-serif" font-size="14" lengthAdjust="spacing" textLength="147.3008" x="469.5279" y="455.7821">Registrazione Utente</text></g><!--entity VisualizzaFeedbackAutista--><g class="entity" data-entity="VisualizzaFeedbackAutista" data-source-line="19" data-uid="ent0011" id="entity_VisualizzaFeedbackAutista"><ellipse cx="543.1752" cy="123.131" fill="#F1F1F1" rx="118.1552" ry="26.031" style="stroke:#181818;stroke-width:0.5;"/><text fill="#000000" font-family="sans-serif" font-size="14" lengthAdjust="spacing" textLength="215.4141" x="435.4682" y="127.7795">Visualizza Feedback su Autista</text></g><!--entity PrenotaViaggio--><g class="entity" data-entity="PrenotaViaggio" data-source-line="20" data-uid="ent0012" id="entity_PrenotaViaggio"><ellipse cx="543.1803" cy="204.1341" fill="#F1F1F1" rx="87.6203" ry="19.9241" style="stroke:#181818;stroke-width:0.5;"/><text fill="#000000" font-family="sans-serif" font-size="14" lengthAdjust="spacing" textLength="148.333" x="469.0138" y="208.7825">Prenotazione Viaggio</text></g><!--entity VisualizzaStato--><g class="entity" data-entity="VisualizzaStato" data-source-line="21" data-uid="ent0013" id="entity_VisualizzaStato"><ellipse cx="543.1812" cy="284.1262" fill="#F1F1F1" rx="114.1312" ry="25.2262" style="stroke:#181818;stroke-width:0.5;"/><text fill="#000000" font-family="sans-serif" font-size="14" lengthAdjust="spacing" textLength="206.7871" x="439.7877" y="288.7747">Visualizza Stato Prenotazione</text></g><!--entity InserisciFeedbackP--><g class="entity" data-entity="InserisciFeedbackP" data-source-line="22" data-uid="ent0014" id="entity_InserisciFeedbackP"><ellipse cx="543.1849" cy="370.131" fill="#F1F1F1" rx="117.5549" ry="25.911" style="stroke:#181818;stroke-width:0.5;"/><text fill="#000000" font-family="sans-serif" font-size="14" lengthAdjust="spacing" textLength="155.6201" x="465.3748" y="366.1131">Inserimento Feedback</text><text fill="#000000" font-family="sans-serif" font-size="14" lengthAdjust="spacing" textLength="166.1133" x="460.1282" y="382.41">(Passeggero su Autista)</text></g><!--entity InserisciViaggio--><g class="entity" data-entity="InserisciViaggio" data-source-line="25" data-uid="ent0015" id="entity_InserisciViaggio"><ellipse cx="543.1814" cy="950.1283" fill="#F1F1F1" rx="84.1914" ry="19.2383" style="stroke:#181818;stroke-width:0.5;"/><text fill="#000000" font-family="sans-serif" font-size="14" lengthAdjust="spacing" textLength="140.458" x="472.9524" y="954.7767">Inserimento Viaggio</text></g><!--entity GestisciPrenotazioni--><g class="entity" data-entity="GestisciPrenotazioni" data-source-line="26" data-uid="ent0016" id="entity_GestisciPrenotazioni"><ellipse cx="543.1771" cy="600.1294" fill="#F1F1F1" rx="125.4471" ry="27.4894" style="stroke:#181818;stroke-width:0.5;"/><text fill="#000000" font-family="sans-serif" font-size="14" lengthAdjust="spacing" textLength="219.1602" x="433.5971" y="601.9983">Gestione Prenotazioni Ricevute</text><text fill="#000000" font-family="sans-serif" font-size="14" lengthAdjust="spacing" textLength="114.1602" x="486.0971" y="618.2952">(Accetta/Rifiuta)</text></g><!--entity VisualizzaFeedbackPasseggero--><g class="entity" data-entity="VisualizzaFeedbackPasseggero" data-source-line="27" data-uid="ent0017" id="entity_VisualizzaFeedbackPasseggero"><ellipse cx="543.1796" cy="692.1339" fill="#F1F1F1" rx="133.1196" ry="29.0239" style="stroke:#181818;stroke-width:0.5;"/><text fill="#000000" font-family="sans-serif" font-size="14" lengthAdjust="spacing" textLength="247.1533" x="419.603" y="696.7824">Visualizza Feedback su Passeggero</text></g><!--entity InserisciFeedbackA--><g class="entity" data-entity="InserisciFeedbackA" data-source-line="28" data-uid="ent0018" id="entity_InserisciFeedbackA"><ellipse cx="543.1849" cy="782.131" fill="#F1F1F1" rx="117.5549" ry="25.911" style="stroke:#181818;stroke-width:0.5;"/><text fill="#000000" font-family="sans-serif" font-size="14" lengthAdjust="spacing" textLength="155.6201" x="465.3748" y="778.1131">Inserimento Feedback</text><text fill="#000000" font-family="sans-serif" font-size="14" lengthAdjust="spacing" textLength="166.1133" x="460.1282" y="794.41">(Autista su Passeggero)</text></g><!--entity ChiudiPrenotazioni--><g class="entity" data-entity="ChiudiPrenotazioni" data-source-line="29" data-uid="ent0019" id="entity_ChiudiPrenotazioni"><ellipse cx="543.1844" cy="869.1349" fill="#F1F1F1" rx="119.9244" ry="26.3849" style="stroke:#181818;stroke-width:0.5;"/><text fill="#000000" font-family="sans-serif" font-size="14" lengthAdjust="spacing" textLength="209.9727" x="438.1981" y="871.6377">Chiusura Prenotazioni Viaggio</text><text fill="#000000" font-family="sans-serif" font-size="14" lengthAdjust="spacing" textLength="70.4102" x="507.9793" y="887.9346">(Manuale)</text></g><!--entity utente--><g class="entity" data-entity="utente" data-source-line="4" data-uid="ent0002" id="entity_utente"><ellipse cx="323.4026" cy="477.48" fill="#F1F1F1" rx="8" ry="8" style="stroke:#181818;stroke-width:0.5;"/><path d="M323.4026,485.48 L323.4026,512.48 M310.4026,493.48 L336.4026,493.48 M323.4026,512.48 L310.4026,527.48 M323.4026,512.48 L336.4026,527.48" fill="none" style="stroke:#181818;stroke-width:0.5;"/><text fill="#000000" font-family="sans-serif" font-size="14" lengthAdjust="spacing" textLength="47.3252" x="299.74" y="541.9751">Utente</text></g><!--entity passeggero--><g class="entity" data-entity="passeggero" data-source-line="5" data-uid="ent0003" id="entity_passeggero"><ellipse cx="122.3653" cy="254.48" fill="#F1F1F1" rx="8" ry="8" style="stroke:#181818;stroke-width:0.5;"/><path d="M122.3653,262.48 L122.3653,289.48 M109.3653,270.48 L135.3653,270.48 M122.3653,289.48 L109.3653,304.48 M122.3653,289.48 L135.3653,304.48" fill="none" style="stroke:#181818;stroke-width:0.5;"/><text fill="#000000" font-family="sans-serif" font-size="14" lengthAdjust="spacing" textLength="80.9307" x="81.9" y="318.9751">Passeggero</text></g><!--entity autista--><g class="entity" data-entity="autista" data-source-line="6" data-uid="ent0004" id="entity_autista"><ellipse cx="122.3657" cy="707.48" fill="#F1F1F1" rx="8" ry="8" style="stroke:#181818;stroke-width:0.5;"/><path d="M122.3657,715.48 L122.3657,742.48 M109.3657,723.48 L135.3657,723.48 M122.3657,742.48 L109.3657,757.48 M122.3657,742.48 L135.3657,757.48" fill="none" style="stroke:#181818;stroke-width:0.5;"/><text fill="#000000" font-family="sans-serif" font-size="14" lengthAdjust="spacing" textLength="49.1914" x="97.77" y="771.9751">Autista</text></g><!--entity sistema--><g class="entity" data-entity="sistema" data-source-line="7" data-uid="ent0005" id="entity_sistema"><ellipse cx="903.1721" cy="338.6269" fill="#F1F1F1" rx="8" ry="8" style="stroke:#181818;stroke-width:0.5;"/><path d="M903.1721,346.6269 L903.1721,373.6269 M890.1721,354.6269 L916.1721,354.6269 M903.1721,373.6269 L890.1721,388.6269 M903.1721,373.6269 L916.1721,388.6269" fill="none" style="stroke:#181818;stroke-width:0.5;"/><text fill="#000000" font-family="sans-serif" font-size="14" lengthAdjust="spacing" textLength="56.3896" x="874.9772" y="403.122">Sistema</text><text fill="#000000" font-family="sans-serif" font-size="14" font-style="italic" lengthAdjust="spacing" textLength="67.7441" x="869.3" y="326.8251">&#171;system&#187;</text></g><g class="entity" data-entity="GMN33" data-source-line="53" data-uid="ent0034" id="entity_GMN33"><path d="M6,357 L6,397.2656 A0,0 0 0 0 6,397.2656 L238.7388,397.2656 A0,0 0 0 0 238.7388,397.2656 L238.7388,367 L228.7388,357 L126.37,357 L122.37,322.73 L118.37,357 L6,357 A0,0 0 0 0 6,357" fill="#FEFFDD" style="stroke:#181818;stroke-width:0.5;"/><path d="M228.7388,357 L228.7388,367 L238.7388,367 L228.7388,357" fill="#FEFFDD" style="stroke:#181818;stroke-width:0.5;"/><text fill="#000000" font-family="sans-serif" font-size="13" lengthAdjust="spacing" textLength="188.5317" x="12" y="374.0669">Il Passeggero eredita tutte le</text><text fill="#000000" font-family="sans-serif" font-size="13" lengthAdjust="spacing" textLength="211.7388" x="12" y="389.1997">funzionalit&#224; dell'Utente generico</text></g><g class="entity" data-entity="GMN36" data-source-line="58" data-uid="ent0037" id="entity_GMN36"><path d="M6,810 L6,850.2656 A0,0 0 0 0 6,850.2656 L238.7388,850.2656 A0,0 0 0 0 238.7388,850.2656 L238.7388,820 L228.7388,810 L126.37,810 L122.37,775.73 L118.37,810 L6,810 A0,0 0 0 0 6,810" fill="#FEFFDD" style="stroke:#181818;stroke-width:0.5;"/><path d="M228.7388,810 L228.7388,820 L238.7388,820 L228.7388,810" fill="#FEFFDD" style="stroke:#181818;stroke-width:0.5;"/><text fill="#000000" font-family="sans-serif" font-size="13" lengthAdjust="spacing" textLength="158.2979" x="12" y="827.0669">L'Autista eredita tutte le</text><text fill="#000000" font-family="sans-serif" font-size="13" lengthAdjust="spacing" textLength="211.7388" x="12" y="842.1997">funzionalit&#224; dell'Utente generico</text></g><g class="entity" data-entity="GMN39" data-source-line="63" data-uid="ent0040" id="entity_GMN39"><path d="M434.44,6 L434.44,46.2656 L651.919,46.2656 L651.919,16 L641.919,6 L434.44,6" fill="#FEFFDD" style="stroke:#181818;stroke-width:0.5;"/><path d="M641.919,6 L641.919,16 L651.919,16 L641.919,6" fill="#FEFFDD" style="stroke:#181818;stroke-width:1;"/><text fill="#000000" font-family="sans-serif" font-size="13" lengthAdjust="spacing" textLength="196.479" x="440.44" y="23.0669">Diventa meno rilevante con la</text><text fill="#000000" font-family="sans-serif" font-size="13" lengthAdjust="spacing" textLength="193.5781" x="440.44" y="38.1997">gestione automatica dei posti</text></g><!--link passeggero to utente--><g class="link" data-entity-1="passeggero" data-entity-2="utente" data-source-line="10" data-uid="lnk6" id="link_passeggero_utente"><path d="M163.1,295.69 C187.38,304.41 217.69,318.44 238.74,339.13 C248.79,349.01 275.9207,405.915 297.3507,452.375" fill="none" id="passeggero-to-utente" style="stroke:#181818;stroke-width:1;"/><polygon fill="none" points="304.89,468.72,302.7991,449.8619,291.9024,454.8881,304.89,468.72" style="stroke:#181818;stroke-width:1;"/></g><!--link autista to utente--><g class="link" data-entity-1="autista" data-entity-2="utente" data-source-line="11" data-uid="lnk7" id="link_autista_utente"><path d="M147.38,709.39 C186.05,664.7 249.8312,590.991 287.7612,547.161" fill="none" id="autista-to-utente" style="stroke:#181818;stroke-width:1;"/><polygon fill="none" points="299.54,533.55,283.2242,543.2347,292.2982,551.0873,299.54,533.55" style="stroke:#181818;stroke-width:1;"/></g><!--link utente to RicercaViaggi--><g class="link" data-entity-1="utente" data-entity-2="RicercaViaggi" data-source-line="33" data-uid="lnk20" id="link_utente_RicercaViaggi"><path d="M347.3,508.71 C377.98,510.82 427.7042,514.248 471.7242,517.278" fill="none" id="utente-to-RicercaViaggi" style="stroke:#181818;stroke-width:1;"/><polygon fill="#181818" points="477.71,517.69,469.0059,513.0814,472.7218,517.3467,468.4566,521.0625,477.71,517.69" style="stroke:#181818;stroke-width:1;"/></g><!--link utente to Registrazione--><g class="link" data-entity-1="utente" data-entity-2="Registrazione" data-source-line="34" data-uid="lnk21" id="link_utente_Registrazione"><path d="M347.53,498.08 C356.65,494.69 367.27,490.98 377.06,488.13 C409.22,478.77 439.6093,471.6488 469.9393,465.2488" fill="none" id="utente-to-Registrazione" style="stroke:#181818;stroke-width:1;"/><polygon fill="#181818" points="475.81,464.01,466.1781,461.9544,470.9177,465.0423,467.8298,469.782,475.81,464.01" style="stroke:#181818;stroke-width:1;"/></g><!--link passeggero to VisualizzaFeedbackAutista--><g class="link" data-entity-1="passeggero" data-entity-2="VisualizzaFeedbackAutista" data-source-line="36" data-uid="lnk22" id="link_passeggero_VisualizzaFeedbackAutista"><path d="M163.13,264.25 C213.95,239.35 305.07,196.41 386.06,167.13 C411.09,158.08 433.1268,151.3182 458.2768,144.3682" fill="none" id="passeggero-to-VisualizzaFeedbackAutista" style="stroke:#181818;stroke-width:1;"/><polygon fill="#181818" points="464.06,142.77,454.3197,141.3117,459.2406,144.1018,456.4506,149.0227,464.06,142.77" style="stroke:#181818;stroke-width:1;"/></g><!--link passeggero to PrenotaViaggio--><g class="link" data-entity-1="passeggero" data-entity-2="PrenotaViaggio" data-source-line="37" data-uid="lnk23" id="link_passeggero_PrenotaViaggio"><path d="M163.15,276.53 C234.92,262.82 380.8966,234.9357 469.0566,218.0957" fill="none" id="passeggero-to-PrenotaViaggio" style="stroke:#181818;stroke-width:1;"/><polygon fill="#181818" points="474.95,216.97,465.3593,214.7297,470.0388,217.9081,466.8603,222.5876,474.95,216.97" style="stroke:#181818;stroke-width:1;"/></g><!--link passeggero to VisualizzaStato--><g class="link" data-entity-1="passeggero" data-entity-2="VisualizzaStato" data-source-line="38" data-uid="lnk24" id="link_passeggero_VisualizzaStato"><path d="M163.15,284.13 C223.59,284.13 334.83,284.13 422.99,284.13" fill="none" id="passeggero-to-VisualizzaStato" style="stroke:#181818;stroke-width:1;"/><polygon fill="#181818" points="428.99,284.13,419.99,280.13,423.99,284.13,419.99,288.13,428.99,284.13" style="stroke:#181818;stroke-width:1;"/></g><!--link passeggero to InserisciFeedbackP--><g class="link" data-entity-1="passeggero" data-entity-2="InserisciFeedbackP" data-source-line="39" data-uid="lnk25" id="link_passeggero_InserisciFeedbackP"><path d="M163.15,292.3 C230.02,306.03 360.5426,332.8334 450.1726,351.2334" fill="none" id="passeggero-to-InserisciFeedbackP" style="stroke:#181818;stroke-width:1;"/><polygon fill="#181818" points="456.05,352.44,448.0382,346.7119,451.1521,351.4345,446.4295,354.5484,456.05,352.44" style="stroke:#181818;stroke-width:1;"/></g><!--link autista to InserisciViaggio--><g class="link" data-entity-1="autista" data-entity-2="InserisciViaggio" data-source-line="41" data-uid="lnk26" id="link_autista_InserisciViaggio"><path d="M147.23,746.5 C171.2,756.36 208.78,773.08 238.74,792.13 C310.25,837.58 310.15,875.5 386.06,913.13 C412.14,926.06 437.0709,933.4014 464.3909,938.9714" fill="none" id="autista-to-InserisciViaggio" style="stroke:#181818;stroke-width:1;"/><polygon fill="#181818" points="470.27,940.17,462.2505,934.4527,465.3708,939.1711,460.6523,942.2914,470.27,940.17" style="stroke:#181818;stroke-width:1;"/></g><!--link autista to GestisciPrenotazioni--><g class="link" data-entity-1="autista" data-entity-2="GestisciPrenotazioni" data-source-line="42" data-uid="lnk27" id="link_autista_GestisciPrenotazioni"><path d="M147.12,728.31 C193.02,711.37 297.21,673.47 386.06,645.13 C411.19,637.12 433.0216,630.6011 457.9316,623.4711" fill="none" id="autista-to-GestisciPrenotazioni" style="stroke:#181818;stroke-width:1;"/><polygon fill="#181818" points="463.7,621.82,453.9467,620.451,458.893,623.1959,456.1482,628.1422,463.7,621.82" style="stroke:#181818;stroke-width:1;"/></g><!--link autista to VisualizzaFeedbackPasseggero--><g class="link" data-entity-1="autista" data-entity-2="VisualizzaFeedbackPasseggero" data-source-line="43" data-uid="lnk28" id="link_autista_VisualizzaFeedbackPasseggero"><path d="M147.39,734.55 C199.71,728.93 320.9944,715.9013 416.9944,705.5813" fill="none" id="autista-to-VisualizzaFeedbackPasseggero" style="stroke:#181818;stroke-width:1;"/><polygon fill="#181818" points="422.96,704.94,413.584,701.9249,417.9886,705.4744,414.4391,709.879,422.96,704.94" style="stroke:#181818;stroke-width:1;"/></g><!--link autista to InserisciFeedbackA--><g class="link" data-entity-1="autista" data-entity-2="InserisciFeedbackA" data-source-line="44" data-uid="lnk29" id="link_autista_InserisciFeedbackA"><path d="M147.39,739.71 C202.23,745.6 333.4244,759.6987 430.6344,770.1487" fill="none" id="autista-to-InserisciFeedbackA" style="stroke:#181818;stroke-width:1;"/><polygon fill="#181818" points="436.6,770.79,428.0791,765.851,431.6286,770.2556,427.224,773.8051,436.6,770.79" style="stroke:#181818;stroke-width:1;"/></g><!--link autista to ChiudiPrenotazioni--><g class="link" data-entity-1="autista" data-entity-2="ChiudiPrenotazioni" data-source-line="45" data-uid="lnk30" id="link_autista_ChiudiPrenotazioni"><path d="M147.15,745.53 C193.09,761.66 297.35,797.79 386.06,825.13 C412.03,833.13 434.8313,839.7455 460.3513,846.8755" fill="none" id="autista-to-ChiudiPrenotazioni" style="stroke:#181818;stroke-width:1;"/><polygon fill="#181818" points="466.13,848.49,458.5383,842.2158,461.3144,847.1446,456.3856,849.9207,466.13,848.49" style="stroke:#181818;stroke-width:1;"/></g><!--link PrenotaViaggio to sistema--><g class="link" data-entity-1="PrenotaViaggio" data-entity-2="sistema" data-source-line="48" data-uid="lnk31" id="link_PrenotaViaggio_sistema"><path d="M614.35,216.08 C641.74,221.94 673.04,230.16 700.3,241.13 C762.95,266.35 824.2903,305.4942 863.1603,332.2942" fill="none" id="PrenotaViaggio-to-sistema" style="stroke:#181818;stroke-width:1;stroke-dasharray:7.0,7.0;"/><polygon fill="#181818" points="868.1,335.7,862.961,327.2982,863.9836,332.8618,858.4199,333.8844,868.1,335.7" style="stroke:#181818;stroke-width:1;"/><text fill="#000000" font-family="sans-serif" font-size="13" lengthAdjust="spacing" textLength="99.4995" x="723.8" y="242.1969">Notifica Autista</text></g><!--link GestisciPrenotazioni to sistema--><g class="link" data-entity-1="GestisciPrenotazioni" data-entity-2="sistema" data-source-line="49" data-uid="lnk32" id="link_GestisciPrenotazioni_sistema"><path d="M636.8,581.46 C658.48,574.95 680.89,566.36 700.3,555.13 C768.43,515.73 827.1028,453.0526 863.9728,408.7326" fill="none" id="GestisciPrenotazioni-to-sistema" style="stroke:#181818;stroke-width:1;stroke-dasharray:7.0,7.0;"/><polygon fill="#181818" points="867.81,404.12,858.9791,408.4807,864.6123,407.9638,865.1292,413.597,867.81,404.12" style="stroke:#181818;stroke-width:1;"/><text fill="#000000" font-family="sans-serif" font-size="13" lengthAdjust="spacing" textLength="128.9717" x="709.3" y="436.1969">Notifica Passeggero</text></g><!--link ChiudiPrenotazioni to GMN39--><g class="link" data-entity-1="ChiudiPrenotazioni" data-entity-2="GMN39" data-source-line="63" data-uid="lnk41" id="link_ChiudiPrenotazioni_GMN39"><path d="M432.19,858.9 C404.12,850.01 378.54,834.46 366.56,807.63 C350.51,771.66 350.51,134.6 366.56,98.63 C379.06,70.63 405.58,53.4 434.37,42.81" fill="none" id="ChiudiPrenotazioni-GMN39" style="stroke:#181818;stroke-width:1;stroke-dasharray:7.0,7.0;"/></g><!--SRC=[fLNDRjD04BxxAKQvf3sqt55bAIe5LG8KfQ8dBjFrn1tXx5Rx4ua0xyAxy6BCUcrdxJWL4YUlTtw-RtwteQq7Ry1o_UoXOalAiz55iOILzyPoWKe-iFZYINjQ03e8xR4NhD4vgckofXM-3B-zmYfuTXvRAQPpBtgG7zebaKjdkBbnt-EfB2E9EqiLUxHC_izly1O14wqZ3bnT_Im7KWbWT5V4e53N3GbR5dlS6Yj8jsXXRKp3kbx0Zm9WALUEeLe6Pw2YfbccgA4cJPQL4PtWIA4JJnjMP1N28sDTSnj2TvLkHhfK2okB1qajGPRAaK0iPaZ0CS6voqTs0Hi-713U4rLFgBw12v0d-wZIQtJItC_QaZQ-OvQOfq9sWkxg3FI3HscUtCS4kLN8ZU-rarJk90Dc8FvLNno3pAAuR9qb2wUuLr_F9wfPpeINm-NH3Kvdulj0phVfoEBYjhXxwIWXkrAAf8lUR7ZBeQVPMed3tEWV2ZOPdzEQpPV_J1gx38mTdqdZAlTt-yp11HclKSnTSiJn9zJ2YvAhg5oD0_qLXtL3JMTu75GWK4EPYZIHCftbP5XomMWcneDUljBK4yL9_vvrapfq8fxfkMorbAVjamjdEo5NUBN8ip37ckNYcJgCgg2C1cw6pNeXQjAnwfakYt5suFgw7DJUmkUaX_qS5dCHdRF9GX4oSaqGCOBslAT2n_yd8wsn0xFDNmk0-tpN0QND3pvuCP7TBHhRe2Esv2w-1hCRcdG54QIOGk6m73xsY-84upyXPke1y4x2re8XingVsORs6Bt5sZIHJTrl6o5eTkXZ3YjYU35oFs3z1G00]--></g></svg>