<svg xmlns="http://www.w3.org/2000/svg" xmlns:xlink="http://www.w3.org/1999/xlink" contentStyleType="text/css" data-diagram-type="CLASS" height="1351px" preserveAspectRatio="none" style="width:480px;height:1351px;background:#FFFFFF;" version="1.1" viewBox="0 0 480 1351" width="480px" zoomAndPan="magnify"><defs/><g><!--class utente--><g class="entity" data-entity="utente" data-source-line="16" data-uid="ent0002" id="entity_utente"><rect fill="#FFFFFF" height="145.7813" rx="2.5" ry="2.5" style="stroke:#000000;stroke-width:0.5;" width="103.2188" x="163.39" y="7"/><ellipse cx="185.4568" cy="23" fill="#ADD1B2" rx="11" ry="11" style="stroke:#181818;stroke-width:1;"/><path d="M189.5662,29 L181.8475,29 L181.8475,16.6094 L189.5662,16.6094 L189.5662,18.7656 L184.3006,18.7656 L184.3006,21.4375 L189.0662,21.4375 L189.0662,23.5938 L184.3006,23.5938 L184.3006,26.8438 L189.5662,26.8438 L189.5662,29 Z " fill="#000000"/><text fill="#000000" font-family="sans-serif" font-size="14" lengthAdjust="spacing" textLength="55.5146" x="201.0273" y="27.8467">UTENTE</text><line style="stroke:#000000;stroke-width:0.5;" x1="164.39" x2="265.6088" y1="39" y2="39"/><ellipse cx="174.39" cy="52.6484" fill="#000000" rx="3" ry="3" style="stroke:#000000;stroke-width:1;"/><text fill="#000000" font-family="sans-serif" font-size="14" lengthAdjust="spacing" textLength="60.3408" x="183.39" y="55.9951">IdUtente</text><line style="stroke:#000000;stroke-width:1;" x1="164.39" x2="265.6088" y1="63.2969" y2="63.2969"/><ellipse cx="174.39" cy="76.9453" fill="#000000" rx="3" ry="3" style="stroke:#000000;stroke-width:1;"/><text fill="#000000" font-family="sans-serif" font-size="14" lengthAdjust="spacing" textLength="38.8418" x="183.39" y="80.292">Email</text><ellipse cx="174.39" cy="93.2422" fill="#000000" rx="3" ry="3" style="stroke:#000000;stroke-width:1;"/><text fill="#000000" font-family="sans-serif" font-size="14" lengthAdjust="spacing" textLength="60.6006" x="183.39" y="96.5889">Telefono</text><ellipse cx="174.39" cy="109.5391" fill="#000000" rx="3" ry="3" style="stroke:#000000;stroke-width:1;"/><text fill="#000000" font-family="sans-serif" font-size="14" lengthAdjust="spacing" textLength="41.2891" x="183.39" y="112.8857">Nome</text><ellipse cx="174.39" cy="125.8359" fill="#000000" rx="3" ry="3" style="stroke:#000000;stroke-width:1;"/><text fill="#000000" font-family="sans-serif" font-size="14" lengthAdjust="spacing" textLength="66.917" x="183.39" y="129.1826">Cognome</text><ellipse cx="174.39" cy="142.1328" fill="#000000" rx="3" ry="3" style="stroke:#000000;stroke-width:1;"/><text fill="#000000" font-family="sans-serif" font-size="14" lengthAdjust="spacing" textLength="77.2188" x="183.39" y="145.4795">TipoUtente</text></g><!--class autista--><g class="entity" data-entity="autista" data-source-line="26" data-uid="ent0003" id="entity_autista"><rect fill="#FFFFFF" height="113.1875" rx="2.5" ry="2.5" style="stroke:#000000;stroke-width:0.5;" width="147.5635" x="47.22" y="296.78"/><ellipse cx="87.4393" cy="312.78" fill="#ADD1B2" rx="11" ry="11" style="stroke:#181818;stroke-width:1;"/><path d="M91.5487,318.78 L83.83,318.78 L83.83,306.3894 L91.5487,306.3894 L91.5487,308.5456 L86.2831,308.5456 L86.2831,311.2175 L91.0487,311.2175 L91.0487,313.3738 L86.2831,313.3738 L86.2831,316.6238 L91.5487,316.6238 L91.5487,318.78 Z " fill="#000000"/><text fill="#000000" font-family="sans-serif" font-size="14" lengthAdjust="spacing" textLength="59.5205" x="107.0436" y="317.6267">AUTISTA</text><line style="stroke:#000000;stroke-width:0.5;" x1="48.22" x2="193.7835" y1="328.78" y2="328.78"/><ellipse cx="58.22" cy="342.4284" fill="#000000" rx="3" ry="3" style="stroke:#000000;stroke-width:1;"/><text fill="#000000" font-family="sans-serif" font-size="14" lengthAdjust="spacing" textLength="62.207" x="67.22" y="345.7751">IdAutista</text><line style="stroke:#000000;stroke-width:1;" x1="48.22" x2="193.7835" y1="353.0769" y2="353.0769"/><ellipse cx="58.22" cy="366.7253" fill="#000000" rx="3" ry="3" style="stroke:#000000;stroke-width:1;"/><text fill="#000000" font-family="sans-serif" font-size="14" lengthAdjust="spacing" textLength="87.083" x="67.22" y="370.072">NumPatente</text><ellipse cx="58.22" cy="383.0222" fill="#000000" rx="3" ry="3" style="stroke:#000000;stroke-width:1;"/><text fill="#000000" font-family="sans-serif" font-size="14" lengthAdjust="spacing" textLength="121.5635" x="67.22" y="386.3689">ScadenzaPatente</text><ellipse cx="58.22" cy="399.3191" fill="#000000" rx="3" ry="3" style="stroke:#000000;stroke-width:1;"/><text fill="#000000" font-family="sans-serif" font-size="14" lengthAdjust="spacing" textLength="71.292" x="67.22" y="402.6657">Fotografia</text></g><!--class passeggero--><g class="entity" data-entity="passeggero" data-source-line="34" data-uid="ent0004" id="entity_passeggero"><rect fill="#FFFFFF" height="80.5938" rx="2.5" ry="2.5" style="stroke:#000000;stroke-width:0.5;" width="161.0439" x="229.48" y="313.08"/><ellipse cx="259.3819" cy="329.08" fill="#ADD1B2" rx="11" ry="11" style="stroke:#181818;stroke-width:1;"/><path d="M263.4912,335.08 L255.7725,335.08 L255.7725,322.6894 L263.4912,322.6894 L263.4912,324.8456 L258.2256,324.8456 L258.2256,327.5175 L262.9912,327.5175 L262.9912,329.6737 L258.2256,329.6737 L258.2256,332.9237 L263.4912,332.9237 L263.4912,335.08 Z " fill="#000000"/><text fill="#000000" font-family="sans-serif" font-size="14" lengthAdjust="spacing" textLength="95.9287" x="276.6934" y="333.9267">PASSEGGERO</text><line style="stroke:#000000;stroke-width:0.5;" x1="230.48" x2="389.5239" y1="345.08" y2="345.08"/><ellipse cx="240.48" cy="358.7284" fill="#000000" rx="3" ry="3" style="stroke:#000000;stroke-width:1;"/><text fill="#000000" font-family="sans-serif" font-size="14" lengthAdjust="spacing" textLength="93.9463" x="249.48" y="362.0751">IdPasseggero</text><line style="stroke:#000000;stroke-width:1;" x1="230.48" x2="389.5239" y1="369.3769" y2="369.3769"/><ellipse cx="240.48" cy="383.0253" fill="#000000" rx="3" ry="3" style="stroke:#000000;stroke-width:1;"/><text fill="#000000" font-family="sans-serif" font-size="14" lengthAdjust="spacing" textLength="135.0439" x="249.48" y="386.372">DocumentoIdentita</text></g><!--class automobile--><g class="entity" data-entity="automobile" data-source-line="40" data-uid="ent0005" id="entity_automobile"><rect fill="#FFFFFF" height="162.0781" rx="2.5" ry="2.5" style="stroke:#000000;stroke-width:0.5;" width="124.873" x="16.56" y="908.94"/><ellipse cx="31.56" cy="924.94" fill="#ADD1B2" rx="11" ry="11" style="stroke:#181818;stroke-width:1;"/><path d="M35.6694,930.94 L27.9506,930.94 L27.9506,918.5494 L35.6694,918.5494 L35.6694,920.7056 L30.4038,920.7056 L30.4038,923.3775 L35.1694,923.3775 L35.1694,925.5338 L30.4038,925.5338 L30.4038,928.7838 L35.6694,928.7838 L35.6694,930.94 Z " fill="#000000"/><text fill="#000000" font-family="sans-serif" font-size="14" lengthAdjust="spacing" textLength="92.873" x="45.56" y="929.7867">AUTOMOBILE</text><line style="stroke:#000000;stroke-width:0.5;" x1="17.56" x2="140.433" y1="940.94" y2="940.94"/><ellipse cx="27.56" cy="954.5884" fill="#000000" rx="3" ry="3" style="stroke:#000000;stroke-width:1;"/><text fill="#000000" font-family="sans-serif" font-size="14" lengthAdjust="spacing" textLength="45.5205" x="36.56" y="957.9351">IdAuto</text><line style="stroke:#000000;stroke-width:1;" x1="17.56" x2="140.433" y1="965.2369" y2="965.2369"/><ellipse cx="27.56" cy="978.8853" fill="#000000" rx="3" ry="3" style="stroke:#000000;stroke-width:1;"/><text fill="#000000" font-family="sans-serif" font-size="14" lengthAdjust="spacing" textLength="40.3525" x="36.56" y="982.232">Targa</text><ellipse cx="27.56" cy="995.1822" fill="#000000" rx="3" ry="3" style="stroke:#000000;stroke-width:1;"/><text fill="#000000" font-family="sans-serif" font-size="14" lengthAdjust="spacing" textLength="42.6904" x="36.56" y="998.5289">Marca</text><ellipse cx="27.56" cy="1011.4791" fill="#000000" rx="3" ry="3" style="stroke:#000000;stroke-width:1;"/><text fill="#000000" font-family="sans-serif" font-size="14" lengthAdjust="spacing" textLength="54.4893" x="36.56" y="1014.8257">Modello</text><ellipse cx="27.56" cy="1027.7759" fill="#000000" rx="3" ry="3" style="stroke:#000000;stroke-width:1;"/><text fill="#000000" font-family="sans-serif" font-size="14" lengthAdjust="spacing" textLength="45.165" x="36.56" y="1031.1226">Colore</text><ellipse cx="27.56" cy="1044.0728" fill="#000000" rx="3" ry="3" style="stroke:#000000;stroke-width:1;"/><text fill="#000000" font-family="sans-serif" font-size="14" lengthAdjust="spacing" textLength="67.293" x="36.56" y="1047.4195">AnnoImm</text><ellipse cx="27.56" cy="1060.3697" fill="#000000" rx="3" ry="3" style="stroke:#000000;stroke-width:1;"/><text fill="#000000" font-family="sans-serif" font-size="14" lengthAdjust="spacing" textLength="62.207" x="36.56" y="1063.7164">IdAutista</text></g><!--class viaggio--><g class="entity" data-entity="viaggio" data-source-line="51" data-uid="ent0006" id="entity_viaggio"><rect fill="#FFFFFF" height="210.9688" rx="2.5" ry="2.5" style="stroke:#000000;stroke-width:0.5;" width="182.5498" x="74.73" y="553.97"/><ellipse cx="131.6904" cy="569.97" fill="#ADD1B2" rx="11" ry="11" style="stroke:#181818;stroke-width:1;"/><path d="M135.7998,575.97 L128.0811,575.97 L128.0811,563.5794 L135.7998,563.5794 L135.7998,565.7356 L130.5342,565.7356 L130.5342,568.4075 L135.2998,568.4075 L135.2998,570.5638 L130.5342,570.5638 L130.5342,573.8138 L135.7998,573.8138 L135.7998,575.97 Z " fill="#000000"/><text fill="#000000" font-family="sans-serif" font-size="14" lengthAdjust="spacing" textLength="60.1289" x="152.1904" y="574.8167">VIAGGIO</text><line style="stroke:#000000;stroke-width:0.5;" x1="75.73" x2="256.2798" y1="585.97" y2="585.97"/><ellipse cx="85.73" cy="599.6184" fill="#000000" rx="3" ry="3" style="stroke:#000000;stroke-width:1;"/><text fill="#000000" font-family="sans-serif" font-size="14" lengthAdjust="spacing" textLength="65.29" x="94.73" y="602.9651">IdViaggio</text><line style="stroke:#000000;stroke-width:1;" x1="75.73" x2="256.2798" y1="610.2669" y2="610.2669"/><ellipse cx="85.73" cy="623.9153" fill="#000000" rx="3" ry="3" style="stroke:#000000;stroke-width:1;"/><text fill="#000000" font-family="sans-serif" font-size="14" lengthAdjust="spacing" textLength="94.9033" x="94.73" y="627.262">CittaPartenza</text><ellipse cx="85.73" cy="640.2122" fill="#000000" rx="3" ry="3" style="stroke:#000000;stroke-width:1;"/><text fill="#000000" font-family="sans-serif" font-size="14" lengthAdjust="spacing" textLength="124.0313" x="94.73" y="643.5589">CittaDestinazione</text><ellipse cx="85.73" cy="656.5091" fill="#000000" rx="3" ry="3" style="stroke:#000000;stroke-width:1;"/><text fill="#000000" font-family="sans-serif" font-size="14" lengthAdjust="spacing" textLength="120.4629" x="94.73" y="659.8557">DataOraPartenza</text><ellipse cx="85.73" cy="672.8059" fill="#000000" rx="3" ry="3" style="stroke:#000000;stroke-width:1;"/><text fill="#000000" font-family="sans-serif" font-size="14" lengthAdjust="spacing" textLength="150.5" x="94.73" y="676.1526">ContributoEconomico</text><ellipse cx="85.73" cy="689.1028" fill="#000000" rx="3" ry="3" style="stroke:#000000;stroke-width:1;"/><text fill="#000000" font-family="sans-serif" font-size="14" lengthAdjust="spacing" textLength="145.8857" x="94.73" y="692.4495">TempoStimatoMinuti</text><ellipse cx="85.73" cy="705.3997" fill="#000000" rx="3" ry="3" style="stroke:#000000;stroke-width:1;"/><text fill="#000000" font-family="sans-serif" font-size="14" lengthAdjust="spacing" textLength="156.5498" x="94.73" y="708.7464">DescrizioneAggiuntiva</text><ellipse cx="85.73" cy="721.6966" fill="#000000" rx="3" ry="3" style="stroke:#000000;stroke-width:1;"/><text fill="#000000" font-family="sans-serif" font-size="14" lengthAdjust="spacing" textLength="89.2842" x="94.73" y="725.0432">StatoViaggio</text><ellipse cx="85.73" cy="737.9934" fill="#000000" rx="3" ry="3" style="stroke:#000000;stroke-width:1;"/><text fill="#000000" font-family="sans-serif" font-size="14" lengthAdjust="spacing" textLength="62.207" x="94.73" y="741.3401">IdAutista</text><ellipse cx="85.73" cy="754.2903" fill="#000000" rx="3" ry="3" style="stroke:#000000;stroke-width:1;"/><text fill="#000000" font-family="sans-serif" font-size="14" lengthAdjust="spacing" textLength="45.5205" x="94.73" y="757.637">IdAuto</text></g><!--class prenotazione--><g class="entity" data-entity="prenotazione" data-source-line="65" data-uid="ent0007" id="entity_prenotazione"><rect fill="#FFFFFF" height="129.4844" rx="2.5" ry="2.5" style="stroke:#000000;stroke-width:0.5;" width="176.3906" x="206.8" y="925.23"/><ellipse cx="236.9633" cy="941.23" fill="#ADD1B2" rx="11" ry="11" style="stroke:#181818;stroke-width:1;"/><path d="M241.0727,947.23 L233.354,947.23 L233.354,934.8394 L241.0727,934.8394 L241.0727,936.9956 L235.8071,936.9956 L235.8071,939.6675 L240.5727,939.6675 L240.5727,941.8238 L235.8071,941.8238 L235.8071,945.0738 L241.0727,945.0738 L241.0727,947.23 Z " fill="#000000"/><text fill="#000000" font-family="sans-serif" font-size="14" lengthAdjust="spacing" textLength="110.6943" x="254.333" y="946.0767">PRENOTAZIONE</text><line style="stroke:#000000;stroke-width:0.5;" x1="207.8" x2="382.1906" y1="957.23" y2="957.23"/><ellipse cx="217.8" cy="970.8784" fill="#000000" rx="3" ry="3" style="stroke:#000000;stroke-width:1;"/><text fill="#000000" font-family="sans-serif" font-size="14" lengthAdjust="spacing" textLength="104.624" x="226.8" y="974.2251">IdPrenotazione</text><line style="stroke:#000000;stroke-width:1;" x1="207.8" x2="382.1906" y1="981.5269" y2="981.5269"/><ellipse cx="217.8" cy="995.1753" fill="#000000" rx="3" ry="3" style="stroke:#000000;stroke-width:1;"/><text fill="#000000" font-family="sans-serif" font-size="14" lengthAdjust="spacing" textLength="150.3906" x="226.8" y="998.522">DataOraPrenotazione</text><ellipse cx="217.8" cy="1011.4722" fill="#000000" rx="3" ry="3" style="stroke:#000000;stroke-width:1;"/><text fill="#000000" font-family="sans-serif" font-size="14" lengthAdjust="spacing" textLength="128.6182" x="226.8" y="1014.8189">StatoPrenotazione</text><ellipse cx="217.8" cy="1027.7691" fill="#000000" rx="3" ry="3" style="stroke:#000000;stroke-width:1;"/><text fill="#000000" font-family="sans-serif" font-size="14" lengthAdjust="spacing" textLength="93.9463" x="226.8" y="1031.1157">IdPasseggero</text><ellipse cx="217.8" cy="1044.0659" fill="#000000" rx="3" ry="3" style="stroke:#000000;stroke-width:1;"/><text fill="#000000" font-family="sans-serif" font-size="14" lengthAdjust="spacing" textLength="65.29" x="226.8" y="1047.4126">IdViaggio</text></g><!--class feedbackP--><g class="entity" data-entity="feedbackP" data-source-line="74" data-uid="ent0008" id="entity_feedbackP"><rect fill="#FFFFFF" height="129.4844" rx="2.5" ry="2.5" style="stroke:#000000;stroke-width:0.5;" width="209.5908" x="56.2" y="1215.02"/><ellipse cx="71.2" cy="1231.02" fill="#ADD1B2" rx="11" ry="11" style="stroke:#181818;stroke-width:1;"/><path d="M75.3094,1237.02 L67.5906,1237.02 L67.5906,1224.6294 L75.3094,1224.6294 L75.3094,1226.7856 L70.0438,1226.7856 L70.0438,1229.4575 L74.8094,1229.4575 L74.8094,1231.6138 L70.0438,1231.6138 L70.0438,1234.8638 L75.3094,1234.8638 L75.3094,1237.02 Z " fill="#000000"/><text fill="#000000" font-family="sans-serif" font-size="14" lengthAdjust="spacing" textLength="177.5908" x="85.2" y="1235.8667">FEEDBACK_PASSEGGERO</text><line style="stroke:#000000;stroke-width:0.5;" x1="57.2" x2="264.7908" y1="1247.02" y2="1247.02"/><ellipse cx="67.2" cy="1260.6684" fill="#000000" rx="3" ry="3" style="stroke:#000000;stroke-width:1;"/><text fill="#000000" font-family="sans-serif" font-size="14" lengthAdjust="spacing" textLength="88.8945" x="76.2" y="1264.0151">IdFeedbackP</text><line style="stroke:#000000;stroke-width:1;" x1="57.2" x2="264.7908" y1="1271.3169" y2="1271.3169"/><ellipse cx="67.2" cy="1284.9653" fill="#000000" rx="3" ry="3" style="stroke:#000000;stroke-width:1;"/><text fill="#000000" font-family="sans-serif" font-size="14" lengthAdjust="spacing" textLength="99.7021" x="76.2" y="1288.312">VotoNumerico</text><ellipse cx="67.2" cy="1301.2622" fill="#000000" rx="3" ry="3" style="stroke:#000000;stroke-width:1;"/><text fill="#000000" font-family="sans-serif" font-size="14" lengthAdjust="spacing" textLength="128.208" x="76.2" y="1304.6089">GiudizioDiscorsivo</text><ellipse cx="67.2" cy="1317.5591" fill="#000000" rx="3" ry="3" style="stroke:#000000;stroke-width:1;"/><text fill="#000000" font-family="sans-serif" font-size="14" lengthAdjust="spacing" textLength="126.2188" x="76.2" y="1320.9057">DataOraFeedback</text><ellipse cx="67.2" cy="1333.8559" fill="#000000" rx="3" ry="3" style="stroke:#000000;stroke-width:1;"/><text fill="#000000" font-family="sans-serif" font-size="14" lengthAdjust="spacing" textLength="104.624" x="76.2" y="1337.2026">IdPrenotazione</text></g><!--class feedbackA--><g class="entity" data-entity="feedbackA" data-source-line="83" data-uid="ent0009" id="entity_feedbackA"><rect fill="#FFFFFF" height="129.4844" rx="2.5" ry="2.5" style="stroke:#000000;stroke-width:0.5;" width="173.1826" x="300.41" y="1215.02"/><ellipse cx="315.41" cy="1231.02" fill="#ADD1B2" rx="11" ry="11" style="stroke:#181818;stroke-width:1;"/><path d="M319.5194,1237.02 L311.8006,1237.02 L311.8006,1224.6294 L319.5194,1224.6294 L319.5194,1226.7856 L314.2538,1226.7856 L314.2538,1229.4575 L319.0194,1229.4575 L319.0194,1231.6138 L314.2538,1231.6138 L314.2538,1234.8638 L319.5194,1234.8638 L319.5194,1237.02 Z " fill="#000000"/><text fill="#000000" font-family="sans-serif" font-size="14" lengthAdjust="spacing" textLength="141.1826" x="329.41" y="1235.8667">FEEDBACK_AUTISTA</text><line style="stroke:#000000;stroke-width:0.5;" x1="301.41" x2="472.5926" y1="1247.02" y2="1247.02"/><ellipse cx="311.41" cy="1260.6684" fill="#000000" rx="3" ry="3" style="stroke:#000000;stroke-width:1;"/><text fill="#000000" font-family="sans-serif" font-size="14" lengthAdjust="spacing" textLength="90.0293" x="320.41" y="1264.0151">IdFeedbackA</text><line style="stroke:#000000;stroke-width:1;" x1="301.41" x2="472.5926" y1="1271.3169" y2="1271.3169"/><ellipse cx="311.41" cy="1284.9653" fill="#000000" rx="3" ry="3" style="stroke:#000000;stroke-width:1;"/><text fill="#000000" font-family="sans-serif" font-size="14" lengthAdjust="spacing" textLength="99.7021" x="320.41" y="1288.312">VotoNumerico</text><ellipse cx="311.41" cy="1301.2622" fill="#000000" rx="3" ry="3" style="stroke:#000000;stroke-width:1;"/><text fill="#000000" font-family="sans-serif" font-size="14" lengthAdjust="spacing" textLength="128.208" x="320.41" y="1304.6089">GiudizioDiscorsivo</text><ellipse cx="311.41" cy="1317.5591" fill="#000000" rx="3" ry="3" style="stroke:#000000;stroke-width:1;"/><text fill="#000000" font-family="sans-serif" font-size="14" lengthAdjust="spacing" textLength="126.2188" x="320.41" y="1320.9057">DataOraFeedback</text><ellipse cx="311.41" cy="1333.8559" fill="#000000" rx="3" ry="3" style="stroke:#000000;stroke-width:1;"/><text fill="#000000" font-family="sans-serif" font-size="14" lengthAdjust="spacing" textLength="104.624" x="320.41" y="1337.2026">IdPrenotazione</text></g><g class="entity" data-entity="r1" data-uid="ent0010" id="entity_r1"><polygon fill="#F1F1F1" points="186,212.78,198,224.78,186,236.78,174,224.78,186,212.78" style="stroke:#181818;stroke-width:0.5;"/></g><g class="entity" data-entity="r2" data-uid="ent0011" id="entity_r2"><polygon fill="#F1F1F1" points="277,212.78,289,224.78,277,236.78,265,224.78,277,212.78" style="stroke:#181818;stroke-width:0.5;"/></g><g class="entity" data-entity="r3" data-uid="ent0012" id="entity_r3"><polygon fill="#F1F1F1" points="28,647.45,40,659.45,28,671.45,16,659.45,28,647.45" style="stroke:#181818;stroke-width:0.5;"/></g><g class="entity" data-entity="r4" data-uid="ent0013" id="entity_r4"><polygon fill="#F1F1F1" points="144,469.97,156,481.97,144,493.97,132,481.97,144,469.97" style="stroke:#181818;stroke-width:0.5;"/></g><g class="entity" data-entity="r5" data-uid="ent0014" id="entity_r5"><polygon fill="#F1F1F1" points="119,824.94,131,836.94,119,848.94,107,836.94,119,824.94" style="stroke:#181818;stroke-width:0.5;"/></g><g class="entity" data-entity="r6" data-uid="ent0015" id="entity_r6"><polygon fill="#F1F1F1" points="310,469.97,322,481.97,310,493.97,298,481.97,310,469.97" style="stroke:#181818;stroke-width:0.5;"/></g><g class="entity" data-entity="r7" data-uid="ent0016" id="entity_r7"><polygon fill="#F1F1F1" points="181,824.94,193,836.94,181,848.94,169,836.94,181,824.94" style="stroke:#181818;stroke-width:0.5;"/></g><g class="entity" data-entity="r8" data-uid="ent0017" id="entity_r8"><polygon fill="#F1F1F1" points="244,1131.02,256,1143.02,244,1155.02,232,1143.02,244,1131.02" style="stroke:#181818;stroke-width:0.5;"/></g><g class="entity" data-entity="r9" data-uid="ent0018" id="entity_r9"><polygon fill="#F1F1F1" points="345,1131.02,357,1143.02,345,1155.02,333,1143.02,345,1131.02" style="stroke:#181818;stroke-width:0.5;"/></g><!--link utente to r1--><g class="link" data-entity-1="utente" data-entity-2="r1" data-source-line="104" data-uid="lnk19" id="link_utente_r1"><path codeLine="104" d="M200.33,153.17 C195.44,177.26 190.58,201.22 187.96,214.1" fill="none" id="utente-r1" style="stroke:#000000;stroke-width:1;"/><text fill="#000000" font-family="sans-serif" font-size="13" lengthAdjust="spacing" textLength="23.0356" x="174.8374" y="172.9425">0..*</text></g><!--link r1 to autista--><g class="link" data-entity-1="r1" data-entity-2="autista" data-source-line="105" data-uid="lnk20" id="link_r1_autista"><path codeLine="105" d="M182.13,233.32 C175.71,245.83 162.3,271.94 149.68,296.52" fill="none" id="r1-autista" style="stroke:#000000;stroke-width:1;"/><text fill="#000000" font-family="sans-serif" font-size="13" lengthAdjust="spacing" textLength="8.271" x="144.7042" y="285.7519">1</text></g><!--link utente to r2--><g class="link" data-entity-1="utente" data-entity-2="r2" data-source-line="107" data-uid="lnk21" id="link_utente_r2"><path codeLine="107" d="M246.36,153.17 C257.3,178.37 268.17,203.43 273.54,215.81" fill="none" id="utente-r2" style="stroke:#000000;stroke-width:1;"/><text fill="#000000" font-family="sans-serif" font-size="13" lengthAdjust="spacing" textLength="23.0356" x="225.2547" y="172.9425">0..*</text></g><!--link r2 to passeggero--><g class="link" data-entity-1="r2" data-entity-2="passeggero" data-source-line="108" data-uid="lnk22" id="link_r2_passeggero"><path codeLine="108" d="M279.37,234.89 C283.57,250.99 292.53,285.37 299.69,312.81" fill="none" id="r2-passeggero" style="stroke:#000000;stroke-width:1;"/><text fill="#000000" font-family="sans-serif" font-size="13" lengthAdjust="spacing" textLength="8.271" x="289.342" y="301.9268">1</text></g><!--link autista to r3--><g class="link" data-entity-1="autista" data-entity-2="r3" data-source-line="110" data-uid="lnk23" id="link_autista_r3"><path codeLine="110" d="M102.48,410.11 C89.37,450.04 71.59,505.16 57,553.97 C46.54,588.96 35.28,630.92 30.44,649.19" fill="none" id="autista-r3" style="stroke:#000000;stroke-width:1;"/><text fill="#000000" font-family="sans-serif" font-size="13" lengthAdjust="spacing" textLength="23.0356" x="75.8233" y="430.0138">0..*</text></g><!--link r3 to automobile--><g class="link" data-entity-1="r3" data-entity-2="automobile" data-source-line="111" data-uid="lnk24" id="link_r3_automobile"><path codeLine="111" d="M29.53,670.29 C34.96,705.3 53.74,826.25 66.53,908.65" fill="none" id="r3-automobile" style="stroke:#000000;stroke-width:1;"/><text fill="#000000" font-family="sans-serif" font-size="13" lengthAdjust="spacing" textLength="8.271" x="57.0755" y="897.8115">1</text></g><!--link autista to r4--><g class="link" data-entity-1="autista" data-entity-2="r4" data-source-line="113" data-uid="lnk25" id="link_autista_r4"><path codeLine="113" d="M131.16,410.27 C135.39,433.58 139.87,458.26 142.26,471.4" fill="none" id="autista-r4" style="stroke:#000000;stroke-width:1;"/><text fill="#000000" font-family="sans-serif" font-size="13" lengthAdjust="spacing" textLength="23.0356" x="107.9986" y="430.1933">0..*</text></g><!--link r4 to viaggio--><g class="link" data-entity-1="r4" data-entity-2="viaggio" data-source-line="114" data-uid="lnk26" id="link_r4_viaggio"><path codeLine="114" d="M145.28,493.16 C146.86,505.82 149.74,528.79 152.86,553.67" fill="none" id="r4-viaggio" style="stroke:#000000;stroke-width:1;"/><text fill="#000000" font-family="sans-serif" font-size="13" lengthAdjust="spacing" textLength="8.271" x="143.664" y="542.7763">1</text></g><!--link viaggio to r5--><g class="link" data-entity-1="viaggio" data-entity-2="r5" data-source-line="116" data-uid="lnk27" id="link_viaggio_r5"><path codeLine="116" d="M137.91,765.32 C131.01,791.09 124.66,814.8 121.36,827.11" fill="none" id="viaggio-r5" style="stroke:#000000;stroke-width:1;"/><text fill="#000000" font-family="sans-serif" font-size="13" lengthAdjust="spacing" textLength="8.271" x="127.7627" y="785.0081">1</text><text fill="#000000" font-family="sans-serif" font-size="13" lengthAdjust="spacing" textLength="8.271" x="112.4761" y="814.0345">1</text></g><!--link r5 to automobile--><g class="link" data-entity-1="r5" data-entity-2="automobile" data-source-line="117" data-uid="lnk28" id="link_r5_automobile"><path codeLine="117" d="M116.62,846.93 C113.27,859.57 106.84,883.84 100.23,908.8" fill="none" id="r5-automobile" style="stroke:#000000;stroke-width:1;"/><text fill="#000000" font-family="sans-serif" font-size="13" lengthAdjust="spacing" textLength="8.271" x="93.7769" y="897.9748">1</text></g><!--link passeggero to r6--><g class="link" data-entity-1="passeggero" data-entity-2="r6" data-source-line="119" data-uid="lnk29" id="link_passeggero_r6"><path codeLine="119" d="M310,394.08 C310,420.19 310,452.54 310,469.44" fill="none" id="passeggero-r6" style="stroke:#000000;stroke-width:1;"/><text fill="#000000" font-family="sans-serif" font-size="13" lengthAdjust="spacing" textLength="23.0356" x="285.1697" y="413.8399">0..*</text></g><!--link r6 to prenotazione--><g class="link" data-entity-1="r6" data-entity-2="prenotazione" data-source-line="120" data-uid="lnk30" id="link_r6_prenotazione"><path codeLine="120" d="M309.67,494.01 C308.01,549.94 300.48,804.11 296.9,924.88" fill="none" id="r6-prenotazione" style="stroke:#000000;stroke-width:1;"/><text fill="#000000" font-family="sans-serif" font-size="13" lengthAdjust="spacing" textLength="8.271" x="288.6856" y="914.0144">1</text></g><!--link viaggio to r7--><g class="link" data-entity-1="viaggio" data-entity-2="r7" data-source-line="122" data-uid="lnk31" id="link_viaggio_r7"><path codeLine="122" d="M174.96,765.32 C177.07,789.91 179.01,812.64 180.1,825.36" fill="none" id="viaggio-r7" style="stroke:#000000;stroke-width:1;"/><text fill="#000000" font-family="sans-serif" font-size="13" lengthAdjust="spacing" textLength="23.0356" x="151.7902" y="785.0081">0..*</text></g><!--link r7 to prenotazione--><g class="link" data-entity-1="r7" data-entity-2="prenotazione" data-source-line="123" data-uid="lnk32" id="link_r7_prenotazione"><path codeLine="123" d="M185.9,844.43 C196.51,858.49 222.6,893.06 246.61,924.87" fill="none" id="r7-prenotazione" style="stroke:#000000;stroke-width:1;"/><text fill="#000000" font-family="sans-serif" font-size="13" lengthAdjust="spacing" textLength="8.271" x="232.8952" y="914.0033">1</text></g><!--link prenotazione to r8--><g class="link" data-entity-1="prenotazione" data-entity-2="r8" data-source-line="125" data-uid="lnk33" id="link_prenotazione_r8"><path codeLine="125" d="M273.37,1055.03 C263.05,1085.58 251.87,1118.7 246.79,1133.74" fill="none" id="prenotazione-r8" style="stroke:#000000;stroke-width:1;"/><text fill="#000000" font-family="sans-serif" font-size="13" lengthAdjust="spacing" textLength="24.8066" x="245.944" y="1074.5863">0..1</text></g><!--link r8 to feedbackP--><g class="link" data-entity-1="r8" data-entity-2="feedbackP" data-source-line="126" data-uid="lnk34" id="link_r8_feedbackP"><path codeLine="126" d="M239.54,1151.26 C232,1163.5 216.02,1189.44 200.43,1214.74" fill="none" id="r8-feedbackP" style="stroke:#000000;stroke-width:1;"/><text fill="#000000" font-family="sans-serif" font-size="13" lengthAdjust="spacing" textLength="8.271" x="196.3205" y="1203.882">1</text></g><!--link prenotazione to r9--><g class="link" data-entity-1="prenotazione" data-entity-2="r9" data-source-line="128" data-uid="lnk35" id="link_prenotazione_r9"><path codeLine="128" d="M316.2,1055.03 C326.21,1085.26 337.05,1118 342.1,1133.26" fill="none" id="prenotazione-r9" style="stroke:#000000;stroke-width:1;"/><text fill="#000000" font-family="sans-serif" font-size="13" lengthAdjust="spacing" textLength="24.8066" x="293.1908" y="1074.5863">0..1</text></g><!--link r9 to feedbackA--><g class="link" data-entity-1="r9" data-entity-2="feedbackA" data-source-line="129" data-uid="lnk36" id="link_r9_feedbackA"><path codeLine="129" d="M347.76,1152.86 C351.73,1165.62 359.44,1190.34 366.98,1214.52" fill="none" id="r9-feedbackA" style="stroke:#000000;stroke-width:1;"/><text fill="#000000" font-family="sans-serif" font-size="13" lengthAdjust="spacing" textLength="8.271" x="356.5168" y="1204.0922">1</text></g><!--SRC=[jLJDRjim3BxhATHS2XHeiVwtHoTnCsDj4YHkX-qIABRY2hNDZ9Oxh4FVPU-o5njjIx7YPDXfG138v2VouqUA1x5SgLnoVnm6uHSkSwtq3tPWh3F_tWk3oNZ-CPZoM8aCyfYnGpxNAfKybYdzrrT-_-AIeqp5cu9SiU95vMk18kDHAeg2_sISzqNqaY2KUJo0591_VbPQajr3XE-DgPyIfe82nX9TsxiJql3O6_HU9S-wdvPo9mgPtYlgVaENcO9xZo6T_1uN1IyrrIBhk4SyY1_hJ_euFgujVYPKMfz2cSeLv51_Z26JzM40IMxFeLg3kKzPRIxlCGpceLSd4wLMXHQRR9xvRlEDosmgB8SZFez4BFCtuThkG4E2OgM4csRgpUV-QEJF9dMcDNL09eb4s2IRRanjkY54PKQH8OZhbeeEyyd3f1_S-vOyPB2iXi3XxmGB1IQYFZq8ZCm9ge41enLrfQd1otC8icnR1ZVtK-2DHa5JowiIIQBQGfwQxpRnG6bD4g6kf6ejGrbebTVJsMGT2Yqcs452hb4jgH0_ekvcAWBJxcmDDFAPqF2WScBOX915XAeEwH69aaHxRGBDDI5RQcvTZbXknsR-U19wN-cfDGAlKUQW6xvjrnoZqpTJoRRJaDYnkhtdlAEYm-ZEzuTzR_1fqHccbPJnaXxTTCFgpbfQIayqbZIz4gs28rN6bL93LKI0XNe5bxgDiA_CVPJSPsJvU3jylF_5vv3FxABZD2SS8LigjhKgUwfOY8LvuZLFFDs7Q9zc0phhWDP0_khNkCyxRbYj91hVHSTNRcvTTZmelvNq78ptQiUR28oDyxhZJALubSN2YhvODx2RVy2C1BULTlJoKqfHRHh5pCRjVJWvEUfHjogPyBGwz4vxTaMoFR0pXcSMreh8cDsg3lISuRaJqUojlT0BXXSMQZODOtRbL4RZ8qdnSbzCPzKwOQyONct8kiFKncx1rmolzuEtTa9reo54wkEDlR5vdd-7tpAyxSAzFm00]--></g></svg>