<svg xmlns="http://www.w3.org/2000/svg" xmlns:xlink="http://www.w3.org/1999/xlink" contentStyleType="text/css" data-diagram-type="CLASS" height="1579px" preserveAspectRatio="none" style="width:1171px;height:1579px;background:#FFFFFF;" version="1.1" viewBox="0 0 1171 1579" width="1171px" zoomAndPan="magnify"><defs/><g><!--cluster PEG--><g class="cluster" data-entity="PEG" data-source-line="33" data-uid="ent0008" id="cluster_PEG"><rect fill="#AFEEEE" height="1093" rx="2.5" ry="2.5" style="stroke:#2F4F4F;stroke-width:1;" width="808.03" x="357.21" y="275.13"/><text fill="#000000" font-family="sans-serif" font-size="14" font-weight="bold" lengthAdjust="spacing" textLength="249.71" x="636.37" y="290.1251">Piattaforma Educational Games</text></g><!--entity UC_RegistraUtente--><g class="entity" data-entity="UC_RegistraUtente" data-source-line="36" data-uid="ent0009" id="entity_UC_RegistraUtente"><ellipse cx="1003.1208" cy="335.1302" fill="#FFFFE0" rx="71.4508" ry="16.6902" style="stroke:#B8860B;stroke-width:0.5;"/><text fill="#000000" font-family="sans-serif" font-size="14" lengthAdjust="spacing" textLength="110.0107" x="948.1155" y="339.7786">Registra Utente</text></g><!--entity UC_AutenticaUtente--><g class="entity" data-entity="UC_AutenticaUtente" data-source-line="37" data-uid="ent0010" id="entity_UC_AutenticaUtente"><ellipse cx="539.453" cy="335.1306" fill="#FFFFE0" rx="75.053" ry="17.4106" style="stroke:#B8860B;stroke-width:0.5;"/><text fill="#000000" font-family="sans-serif" font-size="14" lengthAdjust="spacing" textLength="118.8564" x="480.0248" y="339.779">Autentica Utente</text></g><!--entity UC_SfogliaCatalogo--><g class="entity" data-entity="UC_SfogliaCatalogo" data-source-line="40" data-uid="ent0011" id="entity_UC_SfogliaCatalogo"><ellipse cx="1003.1164" cy="1119.1293" fill="#FFFFE0" rx="93.9464" ry="21.1893" style="stroke:#B8860B;stroke-width:0.5;"/><text fill="#000000" font-family="sans-serif" font-size="14" lengthAdjust="spacing" textLength="162.6201" x="921.8064" y="1123.7777">Sfoglia Catalogo Giochi</text></g><!--entity UC_FiltraGiochi--><g class="entity" data-entity="UC_FiltraGiochi" data-source-line="41" data-uid="ent0012" id="entity_UC_FiltraGiochi"><ellipse cx="539.4545" cy="1038.1309" fill="#FFFFE0" rx="108.2045" ry="24.0409" style="stroke:#B8860B;stroke-width:0.5;"/><text fill="#000000" font-family="sans-serif" font-size="14" lengthAdjust="spacing" textLength="193.9902" x="442.4593" y="1042.7793">Filtra Giochi per Argomento</text></g><!--entity UC_CreaClasse--><g class="entity" data-entity="UC_CreaClasse" data-source-line="44" data-uid="ent0013" id="entity_UC_CreaClasse"><ellipse cx="539.4549" cy="960.129" fill="#FFFFE0" rx="84.7449" ry="19.349" style="stroke:#B8860B;stroke-width:0.5;"/><text fill="#000000" font-family="sans-serif" font-size="14" lengthAdjust="spacing" textLength="141.7363" x="468.5867" y="964.7774">Crea Classe Virtuale</text></g><!--entity UC_GestisciClasse--><g class="entity" data-entity="UC_GestisciClasse" data-source-line="45" data-uid="ent0014" id="entity_UC_GestisciClasse"><ellipse cx="539.4544" cy="1210.1269" fill="#FFFFE0" rx="158.2344" ry="34.0469" style="stroke:#B8860B;stroke-width:0.5;"/><text fill="#000000" font-family="sans-serif" font-size="14" lengthAdjust="spacing" textLength="104.9111" x="486.9988" y="1198.4784">Gestisci Classe</text><text fill="#000000" font-family="sans-serif" font-size="14" lengthAdjust="spacing" textLength="299.585" x="389.6619" y="1214.7753">(visualizza codice, assegna/rimuovi giochi)</text></g><!--entity UC_AggiungiGiocoClasse--><g class="entity" data-entity="UC_AggiungiGiocoClasse" data-source-line="46" data-uid="ent0015" id="entity_UC_AggiungiGiocoClasse"><ellipse cx="539.446" cy="1119.1252" fill="#FFFFE0" rx="96.676" ry="21.7352" style="stroke:#B8860B;stroke-width:0.5;"/><text fill="#000000" font-family="sans-serif" font-size="14" lengthAdjust="spacing" textLength="168.7041" x="455.094" y="1123.7736">Aggiungi Gioco a Classe</text></g><!--entity UC_VisProgressiStudenti--><g class="entity" data-entity="UC_VisProgressiStudenti" data-source-line="47" data-uid="ent0016" id="entity_UC_VisProgressiStudenti"><ellipse cx="539.4535" cy="881.1307" fill="#FFFFE0" rx="111.7535" ry="24.7507" style="stroke:#B8860B;stroke-width:0.5;"/><text fill="#000000" font-family="sans-serif" font-size="14" lengthAdjust="spacing" textLength="201.667" x="438.62" y="885.7791">Visualizza Progressi Studenti</text></g><!--entity UC_CreaVideogiocoDocenteAdmin--><g class="entity" data-entity="UC_CreaVideogiocoDocenteAdmin" data-source-line="48" data-uid="ent0017" id="entity_UC_CreaVideogiocoDocenteAdmin"><ellipse cx="539.4467" cy="798.1333" fill="#FFFFE0" rx="102.7167" ry="22.9433" style="stroke:#B8860B;stroke-width:0.5;"/><text fill="#000000" font-family="sans-serif" font-size="14" lengthAdjust="spacing" textLength="182.0273" x="448.433" y="802.7818">Crea Videogioco Didattico</text></g><!--entity UC_IscrivitiClasse--><g class="entity" data-entity="UC_IscrivitiClasse" data-source-line="51" data-uid="ent0018" id="entity_UC_IscrivitiClasse"><ellipse cx="539.4466" cy="634.1313" fill="#FFFFE0" rx="72.7566" ry="16.9513" style="stroke:#B8860B;stroke-width:0.5;"/><text fill="#000000" font-family="sans-serif" font-size="14" lengthAdjust="spacing" textLength="113.2441" x="482.8245" y="638.7798">Iscriviti a Classe</text></g><!--entity UC_VisClassiGiochi--><g class="entity" data-entity="UC_VisClassiGiochi" data-source-line="52" data-uid="ent0019" id="entity_UC_VisClassiGiochi"><ellipse cx="539.4458" cy="410.1292" fill="#FFFFE0" rx="99.8458" ry="22.3692" style="stroke:#B8860B;stroke-width:0.5;"/><text fill="#000000" font-family="sans-serif" font-size="14" lengthAdjust="spacing" textLength="175.7178" x="451.5869" y="414.7776">Visualizza Classi e Giochi</text></g><!--entity UC_AvviaVideogioco--><g class="entity" data-entity="UC_AvviaVideogioco" data-source-line="53" data-uid="ent0020" id="entity_UC_AvviaVideogioco"><ellipse cx="539.4494" cy="565.1319" fill="#FFFFE0" rx="75.6094" ry="17.5219" style="stroke:#B8860B;stroke-width:0.5;"/><text fill="#000000" font-family="sans-serif" font-size="14" lengthAdjust="spacing" textLength="120.2031" x="479.3478" y="569.7803">Avvia Videogioco</text></g><!--entity UC_VisMieClassifiche--><g class="entity" data-entity="UC_VisMieClassifiche" data-source-line="54" data-uid="ent0021" id="entity_UC_VisMieClassifiche"><ellipse cx="539.4534" cy="490.1287" fill="#FFFFE0" rx="100.6434" ry="22.5287" style="stroke:#B8860B;stroke-width:0.5;"/><text fill="#000000" font-family="sans-serif" font-size="14" lengthAdjust="spacing" textLength="177.4746" x="450.7161" y="494.7771">Visualizza Mie Classifiche</text></g><!--entity UC_RegistraMonete--><g class="entity" data-entity="UC_RegistraMonete" data-source-line="57" data-uid="ent0022" id="entity_UC_RegistraMonete"><ellipse cx="539.4529" cy="1302.1346" fill="#FFFFE0" rx="101.6229" ry="22.7246" style="stroke:#B8860B;stroke-width:0.5;"/><text fill="#000000" font-family="sans-serif" font-size="14" lengthAdjust="spacing" textLength="179.6279" x="449.6389" y="1306.783">Registra Monete Raccolte</text></g><!--entity UC_VisClassificaGioco--><g class="entity" data-entity="UC_VisClassificaGioco" data-source-line="60" data-uid="ent0023" id="entity_UC_VisClassificaGioco"><ellipse cx="1003.1228" cy="736.1326" fill="#FFFFE0" rx="103.4128" ry="23.0826" style="stroke:#B8860B;stroke-width:0.5;"/><text fill="#000000" font-family="sans-serif" font-size="14" lengthAdjust="spacing" textLength="183.5518" x="911.347" y="740.781">Visualizza Classifica Gioco</text></g><!--entity UC_VisClassificaGenerale--><g class="entity" data-entity="UC_VisClassificaGenerale" data-source-line="61" data-uid="ent0024" id="entity_UC_VisClassificaGenerale"><ellipse cx="1003.1222" cy="573.1344" fill="#FFFFE0" rx="138.1222" ry="30.0244" style="stroke:#B8860B;stroke-width:0.5;"/><text fill="#000000" font-family="sans-serif" font-size="14" lengthAdjust="spacing" textLength="257.667" x="874.2887" y="577.7829">Visualizza Classifica Generale Classe</text></g><!--entity UC_StatisticheUsoGiochi--><g class="entity" data-entity="UC_StatisticheUsoGiochi" data-source-line="64" data-uid="ent0025" id="entity_UC_StatisticheUsoGiochi"><ellipse cx="539.4502" cy="713.128" fill="#FFFFE0" rx="123.4402" ry="27.088" style="stroke:#B8860B;stroke-width:0.5;"/><text fill="#000000" font-family="sans-serif" font-size="14" lengthAdjust="spacing" textLength="226.6797" x="426.1104" y="717.7765">Visualizza Statistiche Uso Giochi</text></g><path d="M8.5,209.83 L136.6689,209.83 A3.75,3.75 0 0 1 139.1689,212.33 L146.1689,232.1269 L150.6689,232.1269 A2.5,2.5 0 0 1 153.1689,234.6269 L153.1689,259.9237 A2.5,2.5 0 0 1 150.6689,262.4237 L8.5,262.4237 A2.5,2.5 0 0 1 6,259.9237 L6,212.33 A2.5,2.5 0 0 1 8.5,209.83" fill="#F1F1F1" style="stroke:#181818;stroke-width:0.5;"/><line style="stroke:#181818;stroke-width:0.5;" x1="6" x2="146.1689" y1="232.1269" y2="232.1269"/><text fill="#000000" font-family="sans-serif" font-size="14" font-weight="bold" lengthAdjust="spacing" textLength="127.1689" x="10" y="224.8251">Gerarchia Attori</text><!--entity Visitatore--><g class="entity" data-entity="Visitatore" data-source-line="25" data-uid="ent0002" id="entity_Visitatore"><ellipse cx="79.5813" cy="313.98" fill="#F1F1F1" rx="16" ry="16" style="stroke:#181818;stroke-width:0.5;"/><path d="M79.5813,333.98 C83.5813,333.98 86.5813,333.98 90.5813,329.98 C98.5813,329.98 106.5813,337.98 106.5813,345.98 L106.5813,349.98 C106.5813,353.98 102.5813,357.98 98.5813,357.98 L60.5813,357.98 C56.5813,357.98 52.5813,353.98 52.5813,349.98 L52.5813,345.98 C52.5813,337.98 60.5813,329.98 68.5813,329.98 C72.5813,333.98 75.5813,333.98 79.5813,333.98" fill="#F1F1F1" style="stroke:#181818;stroke-width:0.5;"/><text fill="#000000" font-family="sans-serif" font-size="14" lengthAdjust="spacing" textLength="67.1426" x="46.01" y="371.4751">Visitatore</text></g><!--entity UtenteRegistrato--><g class="entity" data-entity="UtenteRegistrato" data-source-line="26" data-uid="ent0003" id="entity_UtenteRegistrato"><ellipse cx="79.5827" cy="756.98" fill="#F1F1F1" rx="16" ry="16" style="stroke:#181818;stroke-width:0.5;"/><path d="M79.5827,776.98 C83.5827,776.98 86.5827,776.98 90.5827,772.98 C98.5827,772.98 106.5827,780.98 106.5827,788.98 L106.5827,792.98 C106.5827,796.98 102.5827,800.98 98.5827,800.98 L60.5827,800.98 C56.5827,800.98 52.5827,796.98 52.5827,792.98 L52.5827,788.98 C52.5827,780.98 60.5827,772.98 68.5827,772.98 C72.5827,776.98 75.5827,776.98 79.5827,776.98" fill="#F1F1F1" style="stroke:#181818;stroke-width:0.5;"/><text fill="#000000" font-family="sans-serif" font-size="14" lengthAdjust="spacing" textLength="124.0654" x="17.55" y="814.4751">Utente Registrato</text></g><!--entity Docente--><g class="entity" data-entity="Docente" data-source-line="27" data-uid="ent0004" id="entity_Docente"><ellipse cx="246.0359" cy="874.98" fill="#F1F1F1" rx="16" ry="16" style="stroke:#181818;stroke-width:0.5;"/><path d="M246.0359,894.98 C250.0359,894.98 253.0359,894.98 257.0359,890.98 C265.0359,890.98 273.0359,898.98 273.0359,906.98 L273.0359,910.98 C273.0359,914.98 269.0359,918.98 265.0359,918.98 L227.0359,918.98 C223.0359,918.98 219.0359,914.98 219.0359,910.98 L219.0359,906.98 C219.0359,898.98 227.0359,890.98 235.0359,890.98 C239.0359,894.98 242.0359,894.98 246.0359,894.98" fill="#F1F1F1" style="stroke:#181818;stroke-width:0.5;"/><text fill="#000000" font-family="sans-serif" font-size="14" lengthAdjust="spacing" textLength="58.6318" x="216.72" y="932.4751">Docente</text></g><!--entity Studente--><g class="entity" data-entity="Studente" data-source-line="28" data-uid="ent0005" id="entity_Studente"><ellipse cx="246.0323" cy="542.98" fill="#F1F1F1" rx="16" ry="16" style="stroke:#181818;stroke-width:0.5;"/><path d="M246.0323,562.98 C250.0323,562.98 253.0323,562.98 257.0323,558.98 C265.0323,558.98 273.0323,566.98 273.0323,574.98 L273.0323,578.98 C273.0323,582.98 269.0323,586.98 265.0323,586.98 L227.0323,586.98 C223.0323,586.98 219.0323,582.98 219.0323,578.98 L219.0323,574.98 C219.0323,566.98 227.0323,558.98 235.0323,558.98 C239.0323,562.98 242.0323,562.98 246.0323,562.98" fill="#F1F1F1" style="stroke:#181818;stroke-width:0.5;"/><text fill="#000000" font-family="sans-serif" font-size="14" lengthAdjust="spacing" textLength="63.7246" x="214.17" y="600.4751">Studente</text></g><!--entity Admin--><g class="entity" data-entity="Admin" data-source-line="29" data-uid="ent0006" id="entity_Admin"><ellipse cx="246.03" cy="756.98" fill="#F1F1F1" rx="16" ry="16" style="stroke:#181818;stroke-width:0.5;"/><path d="M246.03,776.98 C250.03,776.98 253.03,776.98 257.03,772.98 C265.03,772.98 273.03,780.98 273.03,788.98 L273.03,792.98 C273.03,796.98 269.03,800.98 265.03,800.98 L227.03,800.98 C223.03,800.98 219.03,796.98 219.03,792.98 L219.03,788.98 C219.03,780.98 227.03,772.98 235.03,772.98 C239.03,776.98 242.03,776.98 246.03,776.98" fill="#F1F1F1" style="stroke:#181818;stroke-width:0.5;"/><text fill="#000000" font-family="sans-serif" font-size="14" lengthAdjust="spacing" textLength="44.8643" x="223.5979" y="814.4751">Admin</text></g><!--entity SistemaEsternoGioco--><g class="entity" data-entity="SistemaEsternoGioco" data-source-line="30" data-uid="ent0007" id="entity_SistemaEsternoGioco"><ellipse cx="1003.1184" cy="1513.98" fill="#F1F1F1" rx="16" ry="16" style="stroke:#181818;stroke-width:0.5;"/><path d="M1003.1184,1533.98 C1007.1184,1533.98 1010.1184,1533.98 1014.1184,1529.98 C1022.1184,1529.98 1030.1184,1537.98 1030.1184,1545.98 L1030.1184,1549.98 C1030.1184,1553.98 1026.1184,1557.98 1022.1184,1557.98 L984.1184,1557.98 C980.1184,1557.98 976.1184,1553.98 976.1184,1549.98 L976.1184,1545.98 C976.1184,1537.98 984.1184,1529.98 992.1184,1529.98 C996.1184,1533.98 999.1184,1533.98 1003.1184,1533.98" fill="#F1F1F1" style="stroke:#181818;stroke-width:0.5;"/><text fill="#000000" font-family="sans-serif" font-size="14" lengthAdjust="spacing" textLength="169.2168" x="918.51" y="1571.4751">Sistema Esterno (Gioco)</text></g><g class="entity" data-entity="GMN49" data-source-line="112" data-uid="ent0050" id="entity_GMN49"><path d="M338.89,156.43 L338.89,211.8284 L739.994,211.8284 L739.994,166.43 L729.994,156.43 L338.89,156.43" fill="#FAFAD2" style="stroke:#B8860B;stroke-width:0.5;"/><path d="M729.994,156.43 L729.994,166.43 L739.994,166.43 L729.994,156.43" fill="#FAFAD2" style="stroke:#B8860B;stroke-width:1;"/><text fill="#000000" font-family="sans-serif" font-size="13" lengthAdjust="spacing" textLength="380.104" x="344.89" y="173.4969">L'interazione *durante* il gioco &#232; esterna alla piattaforma.</text><text fill="#000000" font-family="sans-serif" font-size="13" lengthAdjust="spacing" textLength="273" x="344.89" y="188.6297">Il gioco, una volta terminato o a intervalli,</text><text fill="#000000" font-family="sans-serif" font-size="13" lengthAdjust="spacing" textLength="267.541" x="344.89" y="203.7625">chiama l'API `Registra Monete Raccolte`.</text></g><g class="entity" data-entity="GMN52" data-source-line="118" data-uid="ent0053" id="entity_GMN52"><path d="M891.5,1391.87 L891.5,1462.4013 L1114.749,1462.4013 L1114.749,1401.87 L1104.749,1391.87 L891.5,1391.87" fill="#FAFAD2" style="stroke:#B8860B;stroke-width:0.5;"/><path d="M1104.749,1391.87 L1104.749,1401.87 L1114.749,1401.87 L1104.749,1391.87" fill="#FAFAD2" style="stroke:#B8860B;stroke-width:1;"/><text fill="#000000" font-family="sans-serif" font-size="13" lengthAdjust="spacing" textLength="171.666" x="897.5" y="1408.9369">Include funzionalit&#224; come:</text><text fill="#000000" font-family="sans-serif" font-size="13" lengthAdjust="spacing" textLength="197.9771" x="897.5" y="1424.0697">- Visualizzare codice iscrizione</text><text fill="#000000" font-family="sans-serif" font-size="13" lengthAdjust="spacing" textLength="202.249" x="897.5" y="1439.2025">- Rimuovere giochi dalla classe</text><text fill="#000000" font-family="sans-serif" font-size="13" lengthAdjust="spacing" textLength="174.9224" x="897.5" y="1454.3353">- Modificare dettagli classe</text></g><g class="entity" data-entity="GMN55" data-source-line="125" data-uid="ent0056" id="entity_GMN55"><path d="M424.61,81 L424.61,121.2656 L654.2765,121.2656 L654.2765,91 L644.2765,81 L424.61,81" fill="#FAFAD2" style="stroke:#B8860B;stroke-width:0.5;"/><path d="M644.2765,81 L644.2765,91 L654.2765,91 L644.2765,81" fill="#FAFAD2" style="stroke:#B8860B;stroke-width:1;"/><text fill="#000000" font-family="sans-serif" font-size="13" lengthAdjust="spacing" textLength="208.6665" x="430.61" y="98.0669">Accessibile da Docente e Admin</text><text fill="#000000" font-family="sans-serif" font-size="13" lengthAdjust="spacing" textLength="208.4888" x="430.61" y="113.1997">per creare/definire nuovi giochi.</text></g><g class="entity" data-entity="GMN59" data-source-line="132" data-uid="ent0060" id="entity_GMN59"><path d="M413.36,6 L413.36,46.2656 L665.5353,46.2656 L665.5353,16 L655.5353,6 L413.36,6" fill="#FAFAD2" style="stroke:#B8860B;stroke-width:0.5;"/><path d="M655.5353,6 L655.5353,16 L665.5353,16 L655.5353,6" fill="#FAFAD2" style="stroke:#B8860B;stroke-width:1;"/><text fill="#000000" font-family="sans-serif" font-size="13" lengthAdjust="spacing" textLength="231.1753" x="419.36" y="23.0669">L'utente pu&#242; scegliere di registrarsi</text><text fill="#000000" font-family="sans-serif" font-size="13" lengthAdjust="spacing" textLength="188.957" x="419.36" y="38.1997">se non ha ancora un account</text></g><!--reverse link UtenteRegistrato to Docente--><g class="link" data-entity-1="UtenteRegistrato" data-entity-2="Docente" data-source-line="69" data-uid="lnk27" id="link_UtenteRegistrato_Docente"><path codeLine="69" d="M149.5136,828.5952 C176.8236,848.1952 194.19,860.65 216.63,876.75" fill="none" id="UtenteRegistrato-backto-Docente" style="stroke:#2F4F4F;stroke-width:1;"/><polygon fill="none" points="134.89,818.1,146.0153,833.4697,153.012,823.7206,134.89,818.1" style="stroke:#2F4F4F;stroke-width:1;"/></g><!--reverse link UtenteRegistrato to Studente--><g class="link" data-entity-1="UtenteRegistrato" data-entity-2="Studente" data-source-line="70" data-uid="lnk28" id="link_UtenteRegistrato_Studente"><path codeLine="70" d="M121.3287,726.1081 C151.0487,687.4381 185.46,642.65 215.2,603.96" fill="none" id="UtenteRegistrato-backto-Studente" style="stroke:#2F4F4F;stroke-width:1;"/><polygon fill="none" points="110.36,740.38,126.086,729.7643,116.5714,722.4519,110.36,740.38" style="stroke:#2F4F4F;stroke-width:1;"/></g><!--reverse link UtenteRegistrato to Admin--><g class="link" data-entity-1="UtenteRegistrato" data-entity-2="Admin" data-source-line="71" data-uid="lnk29" id="link_UtenteRegistrato_Admin"><path codeLine="71" d="M159.82,779.13 C186.12,779.13 197.49,779.13 218.15,779.13" fill="none" id="UtenteRegistrato-backto-Admin" style="stroke:#2F4F4F;stroke-width:1;"/><polygon fill="none" points="141.82,779.13,159.82,785.13,159.82,773.13,141.82,779.13" style="stroke:#2F4F4F;stroke-width:1;"/></g><!--link Visitatore to UC_RegistraUtente--><g class="link" data-entity-1="Visitatore" data-entity-2="UC_RegistraUtente" data-source-line="75" data-uid="lnk30" id="link_Visitatore_UC_RegistraUtente"><path codeLine="75" d="M113.53,326.14 C133.49,320.49 159.57,313.85 183.17,310.13 C251.68,299.34 269.58,302.35 338.89,300.13 C559.32,293.06 616.23,282.27 835,310.13 C871.08,314.73 911.42,320.74 943.43,325.71" fill="none" id="Visitatore-UC_RegistraUtente" style="stroke:#2F4F4F;stroke-width:1;"/></g><!--link Visitatore to UC_AutenticaUtente--><g class="link" data-entity-1="Visitatore" data-entity-2="UC_AutenticaUtente" data-source-line="76" data-uid="lnk31" id="link_Visitatore_UC_AutenticaUtente"><path codeLine="76" d="M113.51,336.06 C186.41,335.9 362.94,335.51 464.04,335.29" fill="none" id="Visitatore-UC_AutenticaUtente" style="stroke:#2F4F4F;stroke-width:1;"/></g><!--link Docente to UC_CreaClasse--><g class="link" data-entity-1="Docente" data-entity-2="UC_CreaClasse" data-source-line="82" data-uid="lnk32" id="link_Docente_UC_CreaClasse"><path codeLine="82" d="M275.81,906.02 C293.83,911.4 317.59,918.15 338.89,923.13 C381.95,933.19 430.75,942.28 469.32,948.93" fill="none" id="Docente-UC_CreaClasse" style="stroke:#2F4F4F;stroke-width:1;"/></g><!--link Docente to UC_GestisciClasse--><g class="link" data-entity-1="Docente" data-entity-2="UC_GestisciClasse" data-source-line="83" data-uid="lnk33" id="link_Docente_UC_GestisciClasse"><path codeLine="83" d="M249.59,936.05 C255.48,993.17 274.9,1099.27 338.89,1158.13 C356.42,1174.25 378.3,1185.5 401.1,1193.33" fill="none" id="Docente-UC_GestisciClasse" style="stroke:#2F4F4F;stroke-width:1;"/></g><!--link Docente to UC_AggiungiGiocoClasse--><g class="link" data-entity-1="Docente" data-entity-2="UC_AggiungiGiocoClasse" data-source-line="84" data-uid="lnk34" id="link_Docente_UC_AggiungiGiocoClasse"><path codeLine="84" d="M255.79,936.24 C267.37,978.5 292.03,1044.56 338.89,1080.13 C368.35,1102.49 407.11,1113.08 442.63,1117.79" fill="none" id="Docente-UC_AggiungiGiocoClasse" style="stroke:#2F4F4F;stroke-width:1;"/></g><!--link Docente to UC_VisProgressiStudenti--><g class="link" data-entity-1="Docente" data-entity-2="UC_VisProgressiStudenti" data-source-line="85" data-uid="lnk35" id="link_Docente_UC_VisProgressiStudenti"><path codeLine="85" d="M275.77,895.55 C311.6,893.59 374.88,890.11 430.36,887.07" fill="none" id="Docente-UC_VisProgressiStudenti" style="stroke:#2F4F4F;stroke-width:1;"/></g><!--link Docente to UC_CreaVideogiocoDocenteAdmin--><g class="link" data-entity-1="Docente" data-entity-2="UC_CreaVideogiocoDocenteAdmin" data-source-line="86" data-uid="lnk36" id="link_Docente_UC_CreaVideogiocoDocenteAdmin"><path codeLine="86" d="M275.76,875.18 C293.18,862.88 316.32,848.22 338.89,839.13 C373.83,825.06 414.24,815.6 449.51,809.35" fill="none" id="Docente-UC_CreaVideogiocoDocenteAdmin" style="stroke:#2F4F4F;stroke-width:1;"/></g><!--link Studente to UC_IscrivitiClasse--><g class="link" data-entity-1="Studente" data-entity-2="UC_IscrivitiClasse" data-source-line="89" data-uid="lnk37" id="link_Studente_UC_IscrivitiClasse"><path codeLine="89" d="M277.99,578.66 C295.57,585.9 318.15,594.47 338.89,600.13 C383.31,612.25 434.52,620.87 473.94,626.4" fill="none" id="Studente-UC_IscrivitiClasse" style="stroke:#2F4F4F;stroke-width:1;"/></g><!--link Studente to UC_VisClassiGiochi--><g class="link" data-entity-1="Studente" data-entity-2="UC_VisClassiGiochi" data-source-line="90" data-uid="lnk38" id="link_Studente_UC_VisClassiGiochi"><path codeLine="90" d="M268.4,526.05 C284.44,500.47 308.78,468.48 338.89,450.13 C369.74,431.33 407.79,421.17 442.35,415.74" fill="none" id="Studente-UC_VisClassiGiochi" style="stroke:#2F4F4F;stroke-width:1;"/></g><!--link Studente to UC_AvviaVideogioco--><g class="link" data-entity-1="Studente" data-entity-2="UC_AvviaVideogioco" data-source-line="91" data-uid="lnk39" id="link_Studente_UC_AvviaVideogioco"><path codeLine="91" d="M278.22,565.13 C322.12,565.13 403.49,565.13 463.6,565.13" fill="none" id="Studente-UC_AvviaVideogioco" style="stroke:#2F4F4F;stroke-width:1;"/></g><!--link Studente to UC_VisMieClassifiche--><g class="link" data-entity-1="Studente" data-entity-2="UC_VisMieClassifiche" data-source-line="92" data-uid="lnk40" id="link_Studente_UC_VisMieClassifiche"><path codeLine="92" d="M278.33,550.9 C287.74,546.86 298.16,542.61 307.89,539.13 C355.1,522.27 409.92,510.32 454.26,502.45" fill="none" id="Studente-UC_VisMieClassifiche" style="stroke:#2F4F4F;stroke-width:1;"/></g><!--link Admin to UC_CreaVideogiocoDocenteAdmin--><g class="link" data-entity-1="Admin" data-entity-2="UC_CreaVideogiocoDocenteAdmin" data-source-line="95" data-uid="lnk41" id="link_Admin_UC_CreaVideogiocoDocenteAdmin"><path codeLine="95" d="M273.92,780.88 C311.47,783.33 381.6,787.91 440.22,791.73" fill="none" id="Admin-UC_CreaVideogiocoDocenteAdmin" style="stroke:#2F4F4F;stroke-width:1;"/></g><!--link Admin to UC_StatisticheUsoGiochi--><g class="link" data-entity-1="Admin" data-entity-2="UC_StatisticheUsoGiochi" data-source-line="96" data-uid="lnk42" id="link_Admin_UC_StatisticheUsoGiochi"><path codeLine="96" d="M274,768.34 C284.47,764.43 296.62,760.22 307.89,757.13 C349.94,745.6 397.12,736.02 437.79,728.78" fill="none" id="Admin-UC_StatisticheUsoGiochi" style="stroke:#2F4F4F;stroke-width:1;"/></g><!--link UC_RegistraMonete to SistemaEsternoGioco--><g class="link" data-entity-1="UC_RegistraMonete" data-entity-2="SistemaEsternoGioco" data-source-line="99" data-uid="lnk43" id="link_UC_RegistraMonete_SistemaEsternoGioco"><path codeLine="99" d="M641.45,1301.39 C674.52,1304.8 710.35,1312.67 740,1329.13 C816.16,1371.43 794.78,1428.56 865,1480.13 C880.96,1491.85 899.72,1501.59 918.16,1509.47" fill="none" id="UC_RegistraMonete-SistemaEsternoGioco" style="stroke:#2F4F4F;stroke-width:1;"/></g><!--link UC_AggiungiGiocoClasse to UC_SfogliaCatalogo--><g class="link" data-entity-1="UC_AggiungiGiocoClasse" data-entity-2="UC_SfogliaCatalogo" data-source-line="102" data-uid="lnk44" id="link_UC_AggiungiGiocoClasse_UC_SfogliaCatalogo"><path codeLine="102" d="M636.39,1119.13 C716.43,1119.13 823.83,1119.13 903.06,1119.13" fill="none" id="UC_AggiungiGiocoClasse-to-UC_SfogliaCatalogo" style="stroke:#2F4F4F;stroke-width:1;stroke-dasharray:7.0,7.0;"/><polygon fill="#2F4F4F" points="909.06,1119.13,900.06,1115.13,904.06,1119.13,900.06,1123.13,909.06,1119.13" style="stroke:#2F4F4F;stroke-width:1;"/><text fill="#000000" font-family="sans-serif" font-size="13" lengthAdjust="spacing" textLength="63.0068" x="771" y="1115.1969">&#171;include&#187;</text></g><!--link UC_VisProgressiStudenti to UC_VisClassificaGioco--><g class="link" data-entity-1="UC_VisProgressiStudenti" data-entity-2="UC_VisClassificaGioco" data-source-line="104" data-uid="lnk45" id="link_UC_VisProgressiStudenti_UC_VisClassificaGioco"><path codeLine="104" d="M627.15,865.57 C662.48,858.42 703.51,849.09 740,838.13 C817.17,814.96 898.2442,781.6747 950.0542,759.2347" fill="none" id="UC_VisProgressiStudenti-to-UC_VisClassificaGioco" style="stroke:#2F4F4F;stroke-width:1;stroke-dasharray:7.0,7.0;"/><polygon fill="#2F4F4F" points="955.56,756.85,945.7116,756.7565,950.9719,758.8372,948.8911,764.0975,955.56,756.85" style="stroke:#2F4F4F;stroke-width:1;"/><text fill="#000000" font-family="sans-serif" font-size="13" lengthAdjust="spacing" textLength="63.0068" x="771" y="805.1969">&#171;include&#187;</text></g><!--link UC_VisProgressiStudenti to UC_VisClassificaGenerale--><g class="link" data-entity-1="UC_VisProgressiStudenti" data-entity-2="UC_VisClassificaGenerale" data-source-line="105" data-uid="lnk46" id="link_UC_VisProgressiStudenti_UC_VisClassificaGenerale"><path codeLine="105" d="M651.43,880.24 C684,874.45 717.01,862.25 740,838.13 C796.26,779.11 717.85,719.82 770,657.13 C799.19,622.04 838.4799,603.2195 881.1799,591.3295" fill="none" id="UC_VisProgressiStudenti-to-UC_VisClassificaGenerale" style="stroke:#2F4F4F;stroke-width:1;stroke-dasharray:7.0,7.0;"/><polygon fill="#2F4F4F" points="886.96,589.72,877.2169,588.2808,882.1433,591.0612,879.3628,595.9876,886.96,589.72" style="stroke:#2F4F4F;stroke-width:1;"/><text fill="#000000" font-family="sans-serif" font-size="13" lengthAdjust="spacing" textLength="63.0068" x="771" y="606.1969">&#171;include&#187;</text></g><!--link UC_VisMieClassifiche to UC_VisClassificaGioco--><g class="link" data-entity-1="UC_VisMieClassifiche" data-entity-2="UC_VisClassificaGioco" data-source-line="107" data-uid="lnk47" id="link_UC_VisMieClassifiche_UC_VisClassificaGioco"><path codeLine="107" d="M640.19,488.21 C675.99,492.65 713.92,504.11 740,530.13 C787.51,577.54 723.62,629.62 770,678.13 C803.3,712.96 848.1344,727.3239 893.7144,733.5039" fill="none" id="UC_VisMieClassifiche-to-UC_VisClassificaGioco" style="stroke:#2F4F4F;stroke-width:1;stroke-dasharray:7.0,7.0;"/><polygon fill="#2F4F4F" points="899.66,734.31,891.279,729.1371,894.7053,733.6382,890.2042,737.0645,899.66,734.31" style="stroke:#2F4F4F;stroke-width:1;"/><text fill="#000000" font-family="sans-serif" font-size="13" lengthAdjust="spacing" textLength="63.0068" x="771" y="674.1969">&#171;include&#187;</text></g><!--link UC_VisMieClassifiche to UC_VisClassificaGenerale--><g class="link" data-entity-1="UC_VisMieClassifiche" data-entity-2="UC_VisClassificaGenerale" data-source-line="108" data-uid="lnk48" id="link_UC_VisMieClassifiche_UC_VisClassificaGenerale"><path codeLine="108" d="M619.02,504.26 C695.09,517.93 805.0548,537.6978 889.4448,552.8778" fill="none" id="UC_VisMieClassifiche-to-UC_VisClassificaGenerale" style="stroke:#2F4F4F;stroke-width:1;stroke-dasharray:7.0,7.0;"/><polygon fill="#2F4F4F" points="895.35,553.94,887.2003,548.4098,890.429,553.0548,885.784,556.2835,895.35,553.94" style="stroke:#2F4F4F;stroke-width:1;"/><text fill="#000000" font-family="sans-serif" font-size="13" lengthAdjust="spacing" textLength="63.0068" x="771" y="528.1969">&#171;include&#187;</text></g><!--link UC_AvviaVideogioco to GMN49--><g class="link" data-entity-1="UC_AvviaVideogioco" data-entity-2="GMN49" data-source-line="112" data-uid="lnk51" id="link_UC_AvviaVideogioco_GMN49"><path d="M470.99,572.99 C414.81,575.05 339.63,566.56 308.39,512.63 C279.88,463.4 279.88,305.86 308.39,256.63 C319.56,237.35 336.01,222.94 355.07,212.22" fill="none" id="UC_AvviaVideogioco-GMN49" style="stroke:#2F4F4F;stroke-width:1;stroke-dasharray:7.0,7.0;"/></g><!--link UC_GestisciClasse to GMN52--><g class="link" data-entity-1="UC_GestisciClasse" data-entity-2="GMN52" data-source-line="118" data-uid="lnk54" id="link_UC_GestisciClasse_GMN52"><path d="M655.41,1233.63 C683.65,1241.15 713.39,1250.59 740,1262.13 C800.29,1288.28 809.38,1306.12 865,1341.13 C891.27,1357.68 920.41,1375.96 945.05,1391.4" fill="none" id="UC_GestisciClasse-GMN52" style="stroke:#2F4F4F;stroke-width:1;stroke-dasharray:7.0,7.0;"/></g><!--link GMN55 to UC_CreaVideogiocoDocenteAdmin--><g class="link" data-entity-1="GMN55" data-entity-2="UC_CreaVideogiocoDocenteAdmin" data-source-line="125" data-uid="lnk57" id="link_GMN55_UC_CreaVideogiocoDocenteAdmin"><path d="M424.35,96.1 C378.67,101.03 331.55,116.65 308.39,156.63 C275.87,212.78 275.87,684.48 308.39,740.63 C334.08,784.99 389.09,799.86 439,803.41" fill="none" id="GMN55-UC_CreaVideogiocoDocenteAdmin" style="stroke:#2F4F4F;stroke-width:1;stroke-dasharray:7.0,7.0;"/></g><!--link UC_AutenticaUtente to UC_RegistraUtente--><g class="link" data-entity-1="UC_AutenticaUtente" data-entity-2="UC_RegistraUtente" data-source-line="130" data-uid="lnk58" id="link_UC_AutenticaUtente_UC_RegistraUtente"><path codeLine="130" d="M614.88,335.13 C702.1,335.13 839.58,335.13 925.24,335.13" fill="none" id="UC_AutenticaUtente-to-UC_RegistraUtente" style="stroke:#2F4F4F;stroke-width:1;stroke-dasharray:7.0,7.0;"/><polygon fill="#2F4F4F" points="931.24,335.13,922.24,331.13,926.24,335.13,922.24,339.13,931.24,335.13" style="stroke:#2F4F4F;stroke-width:1;"/><text fill="#000000" font-family="sans-serif" font-size="13" lengthAdjust="spacing" textLength="61.1851" x="772" y="331.1969">&#171;extend&#187;</text></g><!--link UC_AutenticaUtente to GMN59--><g class="link" data-entity-1="UC_AutenticaUtente" data-entity-2="GMN59" data-source-line="132" data-uid="lnk61" id="link_UC_AutenticaUtente_GMN59"><path d="M483.55,323.13 C427.78,307.81 345.26,275.3 308.39,211.63 C279.21,161.25 279.21,131.01 308.39,80.63 C329.62,43.99 371.02,27.98 413,21.94" fill="none" id="UC_AutenticaUtente-GMN59" style="stroke:#2F4F4F;stroke-width:1;stroke-dasharray:7.0,7.0;"/></g><!--link Visitatore to UtenteRegistrato--><!--link UtenteRegistrato to PEG--><!--link PEG to SistemaEsternoGioco--><!--SRC=[bLVDJXn74BxFKrIux6AnM8uK7oo4H02la6m7iJ5Ib4HsCzCxMsAsUzqzis0IlqkEEUSL_6Afwf_vNx0v0DDVLNLLTVrEu6AzqROK3wYLX4mMXO0CZQo_wKlaHgpN0ZokmPPOoEI7ZH4vdLPMNajJOYgAYoLebGYYkLlZFQeyIGgvBA7KO31VbKvoMfBenDwYsWYI2o8jjLcKdmi9uavQlPOja8IdmahuAm7w-LcajxdHbSfETQ4Dl66Xlx5ETnxN9fF6OsV2tCvraKbrfJE7dXYZxnfmKOXIpetux47Meir_Kz1b3VHQgt8KwElq5edGIB5ElhJiOBE5oelQafwcNMNwCYz58N-jpATAevKTkKgNZpgdzi0tUUbBaapWJ2vHONp_l40uASbEX9IUXYuqQq5dmfzPgHu4MLUu0A9ZbMeZ4lUcS8qMIq7_oN2mzxwKYXI-aZdQqX2q1yA2FsqE0_MPJlayV2tAAcjzdcHhL57iWXWbXU8v_J5AmtIEEjNxJdZ00kG0jlAKtbCgPELSb0Uof7celKia8yMI3ORph4e51wueO2xMqZhPb-TpShvpAaaK5Y6RlBSQDh9ZFECnaFUYcS5gxu3J3_7OdtPPJYe-f0JhyTJdWQchI4MAi6N1ZPIztcSTqOkbfXSMn5EAGkSQs44hZ3S4EA9TtjTOi1sUmzbyOdAA4HMVzVI39_4KZwlN5Sq91AU5iFHnZQQiA06YJCOyrEMPIwfBDiN0zuUQRj4I8pvGXAOwmrGU02Ev4iyDhYkzHSYTQljHTfGn9lyapx5IEJg3DKJzwiS8i4F7-AyRRIwDpesqv8SGrRN3YQW68pRYcclCfCwT7cUOKPXYgjl-QV3WNl_qeoz01RtEhSvD5pOrkCKI1xRMo1DsEXWfyhfHHHGU2O7HTVDsYsq3Q__oUNEyyywtACEzIqnNidKd8IsWvGmTqhPL1s8fsP6xRwauSXqJQQgBOH9xEDwmq5GhPsdZzETSIZT4Gu_hyYPjr8BfrUiNBmw0Vl_eVl-q_uHxbrmOvcrNrVvbQFwejzeYf9A6ygptrbrXWMRSUSN4XHbCCy6QlwI75ouhIjpgtMOig4oIsvprBAbNWXgKm10nhKP5zPj6bfpKCeHmfYke56peQLQI74yjYbjbwQioaz1myo0I8hWLkQiRaTNtkJtNJ_iz2Ox-dirQnMeSRoNIE87Fmo-X0obESswR77bDmu2f8YD4hEub-Qu5afHXlnZWWzumWJUJGVk56tuClcr5dciYr6vaoW-En4R9OANPIj__Sny1_71-H62l2gho2ARI1OvP5ZlGh9QxydoVAggtsZ7gfAQQzQfy5-YLw2uuLeIx5AC5TdZrhW8wCAvLFP-mho6RZTNG7jolaJsuNms7tFrgDzGyPElZMWUQfnpJ9XlDs96ms36raKAqaRW1b2EKrX79mPeCwYjVjsEwkr1fGGwf1rEUMAVlVdddepMcXWlW_MGyRk3my7Xa189NS7I4NlpnSPBi2Ad8FIp5FG7VnHyhzAWEtGV_JWM-XNd7xHDunqk8j9k2YnLkPUAsaXjkUslGo_7k_MP2Yn89z5NaMLOPGT_F00lmWytNVqacFwkW-a8bVjECuuV4Vn7e3gZQ2zXI6nP0r1I673KSDqx-bdZnWEYvmbEmKTHVNi37NPtyus4YLURMgiIRuHTNRyLWF8nnjgnK2BFowp-kKBuYT0PDbpCopA20dFZEQaTovIPHIRYVHI5prgRnYXcfcBa7S9iAkO1NiW3tT2tr9cZwIAhotffohDtG5a-tZIm8hbEI12EVPx79gjQyt7RIXDf9tFxOeQqkmcAMHMLvEi1UsYN37XMZhjlQNBZ9U_e_esWRYQnUe-F8gZpdflhw7zYKTrZsB-bWWcXZUUfiMfzVMtbku3YWWQLZu6KiHswt2P5EgoDCgURHCetA-T7USx6wxpRhtrUOKKR_wS9eTZpSTGTpme25jio4Dyq1C5By_WS0]--></g></svg>