<svg xmlns="http://www.w3.org/2000/svg" xmlns:xlink="http://www.w3.org/1999/xlink" contentStyleType="text/css" data-diagram-type="DESCRIPTION" height="1547px" preserveAspectRatio="none" style="width:1145px;height:1547px;background:#FFFFFF;" version="1.1" viewBox="0 0 1145 1547" width="1145px" zoomAndPan="magnify"><title>Sistema SportOvunque - Diagramma dei Casi d'Uso</title><defs/><g><g class="title" data-source-line="1"><text fill="#000000" font-family="sans-serif" font-size="14" font-weight="bold" lengthAdjust="spacing" textLength="403.915" x="363.6979" y="22.9951">Sistema SportOvunque - Diagramma dei Casi d'Uso</text></g><!--cluster Sistema SportOvunque--><g class="cluster" data-entity="Sistema SportOvunque" data-source-line="20" data-uid="ent0010" id="cluster_Sistema SportOvunque"><rect fill="none" height="1335" rx="2.5" ry="2.5" style="stroke:#181818;stroke-width:1;" width="575.02" x="312.33" y="44.2969"/><text fill="#000000" font-family="sans-serif" font-size="14" font-weight="bold" lengthAdjust="spacing" textLength="182.0752" x="508.8024" y="59.292">Sistema SportOvunque</text></g><!--entity UC1--><g class="entity" data-entity="UC1" data-source-line="22" data-uid="ent0011" id="entity_UC1"><ellipse cx="465.4001" cy="1332.2989" fill="#F1F1F1" rx="102.9101" ry="22.982" style="stroke:#181818;stroke-width:0.5;"/><text fill="#000000" font-family="sans-serif" font-size="14" lengthAdjust="spacing" textLength="182.4512" x="374.1745" y="1336.9473">Registrati come Abbonato</text></g><!--entity UC2--><g class="entity" data-entity="UC2" data-source-line="23" data-uid="ent0012" id="entity_UC2"><ellipse cx="465.4004" cy="563.3005" fill="#F1F1F1" rx="29.8804" ry="14.5236" style="stroke:#181818;stroke-width:0.5;"/><text fill="#000000" font-family="sans-serif" font-size="14" lengthAdjust="spacing" textLength="38.0146" x="446.3931" y="567.9489">Login</text></g><!--entity UC3--><g class="entity" data-entity="UC3" data-source-line="24" data-uid="ent0013" id="entity_UC3"><ellipse cx="465.3982" cy="780.3005" fill="#F1F1F1" rx="37.0682" ry="14.5236" style="stroke:#181818;stroke-width:0.5;"/><text fill="#000000" font-family="sans-serif" font-size="14" lengthAdjust="spacing" textLength="48.1797" x="441.3083" y="784.9489">Logout</text></g><!--entity UC4--><g class="entity" data-entity="UC4" data-source-line="25" data-uid="ent0014" id="entity_UC4"><ellipse cx="465.3999" cy="411.2929" fill="#F1F1F1" rx="90.6799" ry="20.536" style="stroke:#181818;stroke-width:0.5;"/><text fill="#000000" font-family="sans-serif" font-size="14" lengthAdjust="spacing" textLength="155.2783" x="387.7607" y="415.9413">Gestisci Profilo Utente</text></g><!--entity UC5--><g class="entity" data-entity="UC5" data-source-line="26" data-uid="ent0015" id="entity_UC5"><ellipse cx="465.4023" cy="1082.3013" fill="#F1F1F1" rx="91.4223" ry="20.6845" style="stroke:#181818;stroke-width:0.5;"/><text fill="#000000" font-family="sans-serif" font-size="14" lengthAdjust="spacing" textLength="156.9531" x="386.9257" y="1086.9498">Cerca Palestre/Attivit&#224;</text></g><!--entity UC6--><g class="entity" data-entity="UC6" data-source-line="27" data-uid="ent0016" id="entity_UC6"><ellipse cx="465.3962" cy="107.2961" fill="#F1F1F1" rx="89.1462" ry="20.2292" style="stroke:#181818;stroke-width:0.5;"/><text fill="#000000" font-family="sans-serif" font-size="14" lengthAdjust="spacing" textLength="151.8057" x="389.4934" y="111.9446">Effettua Prenotazione</text></g><!--entity UC7--><g class="entity" data-entity="UC7" data-source-line="28" data-uid="ent0017" id="entity_UC7"><ellipse cx="783.4147" cy="1026.2958" fill="#F1F1F1" rx="79.9447" ry="18.3889" style="stroke:#181818;stroke-width:0.5;"/><text fill="#000000" font-family="sans-serif" font-size="14" lengthAdjust="spacing" textLength="130.5459" x="718.1417" y="1030.9442">Paga Prenotazione</text></g><!--entity UC8--><g class="entity" data-entity="UC8" data-source-line="29" data-uid="ent0018" id="entity_UC8"><ellipse cx="465.3961" cy="334.2961" fill="#F1F1F1" rx="93.0461" ry="21.0092" style="stroke:#181818;stroke-width:0.5;"/><text fill="#000000" font-family="sans-serif" font-size="14" lengthAdjust="spacing" textLength="160.6035" x="385.0943" y="338.9445">Visualizza Prenotazioni</text></g><!--entity UC9--><g class="entity" data-entity="UC9" data-source-line="30" data-uid="ent0019" id="entity_UC9"><ellipse cx="465.403" cy="633.2955" fill="#F1F1F1" rx="88.043" ry="20.0086" style="stroke:#181818;stroke-width:0.5;"/><text fill="#000000" font-family="sans-serif" font-size="14" lengthAdjust="spacing" textLength="149.2969" x="390.7546" y="637.9439">Gestisci Dati Palestra</text></g><!--entity UC10--><g class="entity" data-entity="UC10" data-source-line="31" data-uid="ent0020" id="entity_UC10"><ellipse cx="465.3975" cy="709.2924" fill="#F1F1F1" rx="94.5275" ry="21.3055" style="stroke:#181818;stroke-width:0.5;"/><text fill="#000000" font-family="sans-serif" font-size="14" lengthAdjust="spacing" textLength="163.9189" x="383.438" y="713.9408">Gestisci Offerta Attivit&#224;</text></g><!--entity UC11--><g class="entity" data-entity="UC11" data-source-line="32" data-uid="ent0021" id="entity_UC11"><ellipse cx="465.4044" cy="857.2938" fill="#F1F1F1" rx="123.2344" ry="27.0469" style="stroke:#181818;stroke-width:0.5;"/><text fill="#000000" font-family="sans-serif" font-size="14" lengthAdjust="spacing" textLength="226.2422" x="352.2833" y="861.9422">Visualizza Prenotazioni Ricevute</text></g><!--entity UC12--><g class="entity" data-entity="UC12" data-source-line="33" data-uid="ent0022" id="entity_UC12"><ellipse cx="465.3992" cy="490.3007" fill="#F1F1F1" rx="103.9192" ry="23.1838" style="stroke:#181818;stroke-width:0.5;"/><text fill="#000000" font-family="sans-serif" font-size="14" lengthAdjust="spacing" textLength="184.6592" x="373.0696" y="494.9491">Visualizza Incassi Maturati</text></g><!--entity UC13--><g class="entity" data-entity="UC13" data-source-line="34" data-uid="ent0023" id="entity_UC13"><ellipse cx="465.4021" cy="1010.2973" fill="#F1F1F1" rx="68.3021" ry="16.0604" style="stroke:#181818;stroke-width:0.5;"/><text fill="#000000" font-family="sans-serif" font-size="14" lengthAdjust="spacing" textLength="102.0674" x="414.3684" y="1014.9457">Gestisci Utenti</text></g><!--entity UC14--><g class="entity" data-entity="UC14" data-source-line="35" data-uid="ent0024" id="entity_UC14"><ellipse cx="465.3981" cy="1160.2945" fill="#F1F1F1" rx="101.0381" ry="22.6076" style="stroke:#181818;stroke-width:0.5;"/><text fill="#000000" font-family="sans-serif" font-size="14" lengthAdjust="spacing" textLength="178.3428" x="376.2267" y="1164.9429">Gestisci Tipologie Attivit&#224;</text></g><!--entity UC15--><g class="entity" data-entity="UC15" data-source-line="36" data-uid="ent0025" id="entity_UC15"><ellipse cx="465.3959" cy="1246.3" fill="#F1F1F1" rx="129.0659" ry="28.2132" style="stroke:#181818;stroke-width:0.5;"/><text fill="#000000" font-family="sans-serif" font-size="14" lengthAdjust="spacing" textLength="238.6016" x="346.0951" y="1250.9485">Monitora Pagamenti/Riversamenti</text></g><!--entity UC16--><g class="entity" data-entity="UC16" data-source-line="37" data-uid="ent0026" id="entity_UC16"><ellipse cx="465.4046" cy="939.2938" fill="#F1F1F1" rx="87.4346" ry="19.8869" style="stroke:#181818;stroke-width:0.5;"/><text fill="#000000" font-family="sans-serif" font-size="14" lengthAdjust="spacing" textLength="147.9092" x="391.45" y="943.9422">Visualizza Statistiche</text></g><!--entity UC17--><g class="entity" data-entity="UC17" data-source-line="38" data-uid="ent0027" id="entity_UC17"><ellipse cx="465.3965" cy="182.2922" fill="#F1F1F1" rx="85.0265" ry="19.4053" style="stroke:#181818;stroke-width:0.5;"/><text fill="#000000" font-family="sans-serif" font-size="14" lengthAdjust="spacing" textLength="142.3857" x="394.2037" y="186.9406">Disdici Prenotazione</text></g><!--entity UC18--><g class="entity" data-entity="UC18" data-source-line="39" data-uid="ent0028" id="entity_UC18"><ellipse cx="465.4019" cy="257.2953" fill="#F1F1F1" rx="90.7919" ry="20.5584" style="stroke:#181818;stroke-width:0.5;"/><text fill="#000000" font-family="sans-serif" font-size="14" lengthAdjust="spacing" textLength="155.5313" x="387.6363" y="261.9437">Visualizza/Usa Credito</text></g><!--entity A1--><g class="entity" data-entity="A1" data-source-line="8" data-uid="ent0002" id="entity_A1"><ellipse cx="189.9077" cy="973.6469" fill="#F1F1F1" rx="8" ry="8" style="stroke:#181818;stroke-width:0.5;"/><path d="M189.9077,981.6469 L189.9077,1008.6469 M176.9077,989.6469 L202.9077,989.6469 M189.9077,1008.6469 L176.9077,1023.6469 M189.9077,1008.6469 L202.9077,1023.6469" fill="none" style="stroke:#181818;stroke-width:0.5;"/><text fill="#000000" font-family="sans-serif" font-size="14" lengthAdjust="spacing" textLength="150.8555" x="114.48" y="1038.142">Utente non registrato</text></g><!--entity A2--><g class="entity" data-entity="A2" data-source-line="9" data-uid="ent0003" id="entity_A2"><ellipse cx="189.9014" cy="366.6469" fill="#F1F1F1" rx="8" ry="8" style="stroke:#181818;stroke-width:0.5;"/><path d="M189.9014,374.6469 L189.9014,401.6469 M176.9014,382.6469 L202.9014,382.6469 M189.9014,401.6469 L176.9014,416.6469 M189.9014,401.6469 L202.9014,416.6469" fill="none" style="stroke:#181818;stroke-width:0.5;"/><text fill="#000000" font-family="sans-serif" font-size="14" lengthAdjust="spacing" textLength="67.4229" x="156.19" y="431.142">Abbonato</text></g><!--entity A3--><g class="entity" data-entity="A3" data-source-line="10" data-uid="ent0004" id="entity_A3"><ellipse cx="189.9013" cy="673.6469" fill="#F1F1F1" rx="8" ry="8" style="stroke:#181818;stroke-width:0.5;"/><path d="M189.9013,681.6469 L189.9013,708.6469 M176.9013,689.6469 L202.9013,689.6469 M189.9013,708.6469 L176.9013,723.6469 M189.9013,708.6469 L202.9013,723.6469" fill="none" style="stroke:#181818;stroke-width:0.5;"/><text fill="#000000" font-family="sans-serif" font-size="14" lengthAdjust="spacing" textLength="56.6426" x="161.58" y="738.142">Palestra</text></g><!--entity A4--><g class="entity" data-entity="A4" data-source-line="11" data-uid="ent0005" id="entity_A4"><ellipse cx="189.9034" cy="845.6469" fill="#F1F1F1" rx="8" ry="8" style="stroke:#181818;stroke-width:0.5;"/><path d="M189.9034,853.6469 L189.9034,880.6469 M176.9034,861.6469 L202.9034,861.6469 M189.9034,880.6469 L176.9034,895.6469 M189.9034,880.6469 L202.9034,895.6469" fill="none" style="stroke:#181818;stroke-width:0.5;"/><text fill="#000000" font-family="sans-serif" font-size="14" lengthAdjust="spacing" textLength="109.0469" x="135.38" y="910.142">Amministratore</text></g><!--entity PG--><g class="entity" data-entity="PG" data-source-line="12" data-uid="ent0006" id="entity_PG"><ellipse cx="1065.3305" cy="1474.6469" fill="#F1F1F1" rx="8" ry="8" style="stroke:#181818;stroke-width:0.5;"/><path d="M1065.3305,1482.6469 L1065.3305,1509.6469 M1052.3305,1490.6469 L1078.3305,1490.6469 M1065.3305,1509.6469 L1052.3305,1524.6469 M1065.3305,1509.6469 L1078.3305,1524.6469" fill="none" style="stroke:#181818;stroke-width:0.5;"/><text fill="#000000" font-family="sans-serif" font-size="14" lengthAdjust="spacing" textLength="145.9609" x="992.35" y="1539.142">Gateway Pagamento</text></g><g class="entity" data-entity="GMN29" data-source-line="43" data-uid="ent0030" id="entity_GMN29"><path d="M749.59,1395.7369 L749.59,1420.8697 L817.2389,1420.8697 L817.2389,1405.7369 L807.2389,1395.7369 L749.59,1395.7369" fill="#FEFFDD" style="stroke:#181818;stroke-width:0.5;"/><path d="M807.2389,1395.7369 L807.2389,1405.7369 L817.2389,1405.7369 L807.2389,1395.7369" fill="#FEFFDD" style="stroke:#181818;stroke-width:1;"/><text fill="#000000" font-family="sans-serif" font-size="13" lengthAdjust="spacing" textLength="46.6489" x="755.59" y="1412.8038">Parte 2</text></g><g class="entity" data-entity="GMN32" data-source-line="44" data-uid="ent0033" id="entity_GMN32"><path d="M749.59,1455.7369 L749.59,1480.8697 L817.2389,1480.8697 L817.2389,1465.7369 L807.2389,1455.7369 L749.59,1455.7369" fill="#FEFFDD" style="stroke:#181818;stroke-width:0.5;"/><path d="M807.2389,1455.7369 L807.2389,1465.7369 L817.2389,1465.7369 L807.2389,1455.7369" fill="#FEFFDD" style="stroke:#181818;stroke-width:1;"/><text fill="#000000" font-family="sans-serif" font-size="13" lengthAdjust="spacing" textLength="46.6489" x="755.59" y="1472.8038">Parte 2</text></g><!--link A2 to A1--><g class="link" data-entity-1="A2" data-entity-2="A1" data-source-line="15" data-uid="lnk7" id="link_A2_A1"><path d="M155.83,430.2269 C122.13,466.4169 72.75,527.1669 52.55,590.7969 C6,737.4069 40.88,796.2269 114.48,931.2969 C121.15,943.5369 117.8702,942.2309 127.8702,952.1809" fill="none" id="A2-to-A1" style="stroke:#181818;stroke-width:1;"/><polygon fill="none" points="140.63,964.8769,132.1022,947.9276,123.6382,956.4342,140.63,964.8769" style="stroke:#181818;stroke-width:1;"/><text fill="#000000" font-family="sans-serif" font-size="13" lengthAdjust="spacing" textLength="52.0508" x="31.48" y="603.8638">extends</text></g><!--link A3 to A1--><g class="link" data-entity-1="A3" data-entity-2="A1" data-source-line="16" data-uid="lnk8" id="link_A3_A1"><path d="M161.41,713.3369 C116.57,731.0569 36.19,771.5869 52.55,829.7969 C67.77,883.9869 97.487,920.5937 131.297,952.5937" fill="none" id="A3-to-A1" style="stroke:#181818;stroke-width:1;"/><polygon fill="none" points="144.37,964.9669,135.4214,948.236,127.1726,956.9514,144.37,964.9669" style="stroke:#181818;stroke-width:1;"/><text fill="#000000" font-family="sans-serif" font-size="13" lengthAdjust="spacing" textLength="52.0508" x="31.48" y="825.8638">extends</text></g><!--link A4 to A1--><g class="link" data-entity-1="A4" data-entity-2="A1" data-source-line="17" data-uid="lnk9" id="link_A4_A1"><path d="M189.91,913.6769 C189.91,929.8769 189.91,930.6969 189.91,946.8969" fill="none" id="A4-to-A1" style="stroke:#181818;stroke-width:1;"/><polygon fill="none" points="189.91,964.8969,195.91,946.8969,183.91,946.8969,189.91,964.8969" style="stroke:#181818;stroke-width:1;"/><text fill="#000000" font-family="sans-serif" font-size="13" lengthAdjust="spacing" textLength="52.0508" x="152.41" y="943.8638">extends</text></g><!--link UC17 to GMN29--><g class="link" data-entity-1="UC17" data-entity-2="GMN29" data-source-line="43" data-uid="lnk31" id="link_UC17_GMN29"><path d="M544.68,189.4969 C563.58,194.9869 581.91,204.1469 594.46,219.2969 C635.48,268.7969 666.46,1318.7369 703.46,1371.2969 C714.18,1386.5169 732.83,1395.6569 749.3,1401.0469" fill="none" id="UC17-GMN29" style="stroke:#181818;stroke-width:1;stroke-dasharray:7.0,7.0;"/></g><!--link UC18 to GMN32--><g class="link" data-entity-1="UC18" data-entity-2="GMN32" data-source-line="44" data-uid="lnk34" id="link_UC18_GMN32"><path d="M548.75,265.6069 C566.43,271.3469 583.17,280.5769 594.46,295.2969 C671.52,395.7469 543.63,1336.8669 624.46,1434.2969 C654.37,1470.3469 712.47,1473.8369 749.26,1471.8969" fill="none" id="UC18-GMN32" style="stroke:#181818;stroke-width:1;stroke-dasharray:7.0,7.0;"/></g><!--link A1 to UC1--><g class="link" data-entity-1="A1" data-entity-2="UC1" data-source-line="47" data-uid="lnk35" id="link_A1_UC1"><path d="M194.85,1041.7169 C203.34,1103.8769 229.12,1226.2169 304.33,1292.2969 C322.41,1308.1769 340.0459,1316.4647 363.3859,1322.4147" fill="none" id="A1-to-UC1" style="stroke:#181818;stroke-width:1;"/><polygon fill="#181818" points="369.2,1323.8969,361.467,1317.7976,364.355,1322.6617,359.4908,1325.5497,369.2,1323.8969" style="stroke:#181818;stroke-width:1;"/></g><!--link A1 to UC5--><g class="link" data-entity-1="A1" data-entity-2="UC5" data-source-line="48" data-uid="lnk36" id="link_A1_UC5"><path d="M265.55,1031.6369 C278.4,1036.1269 291.69,1040.5269 304.33,1044.2969 C334.58,1053.3269 362.6782,1060.3114 391.5082,1066.8414" fill="none" id="A1-to-UC5" style="stroke:#181818;stroke-width:1;"/><polygon fill="#181818" points="397.36,1068.1669,389.466,1062.2776,392.4835,1067.0624,387.6987,1070.0799,397.36,1068.1669" style="stroke:#181818;stroke-width:1;"/></g><!--link A2 to UC2--><g class="link" data-entity-1="A2" data-entity-2="UC2" data-source-line="51" data-uid="lnk37" id="link_A2_UC2"><path d="M223.87,427.2969 C246.33,449.6669 275.64,481.4169 296.33,513.2969 C301.1,520.6369 297.5,525.8269 304.33,531.2969 C342.06,561.4869 394.5308,565.7567 429.3908,565.1767" fill="none" id="A2-to-UC2" style="stroke:#181818;stroke-width:1;"/><polygon fill="#181818" points="435.39,565.0769,426.3247,561.2271,430.3907,565.1601,426.4578,569.226,435.39,565.0769" style="stroke:#181818;stroke-width:1;"/></g><!--link A2 to UC3--><g class="link" data-entity-1="A2" data-entity-2="UC3" data-source-line="52" data-uid="lnk38" id="link_A2_UC3"><path d="M204.26,434.7369 C224.99,494.8969 265.71,615.0969 296.33,718.2969 C300.26,731.5269 294.27,738.8569 304.33,748.2969 C337.7,779.6169 386.672,784.31 422.712,783.39" fill="none" id="A2-to-UC3" style="stroke:#181818;stroke-width:1;"/><polygon fill="#181818" points="428.71,783.2369,419.6109,779.4678,423.7116,783.3645,419.815,787.4652,428.71,783.2369" style="stroke:#181818;stroke-width:1;"/></g><!--link A2 to UC4--><g class="link" data-entity-1="A2" data-entity-2="UC4" data-source-line="53" data-uid="lnk39" id="link_A2_UC4"><path d="M223.69,395.9869 C244.51,395.9469 272.01,396.1669 296.33,397.2969 C324.12,398.5869 348.452,400.3335 375.582,402.6635" fill="none" id="A2-to-UC4" style="stroke:#181818;stroke-width:1;"/><polygon fill="#181818" points="381.56,403.1769,372.9353,398.4214,376.5783,402.749,372.2507,406.3921,381.56,403.1769" style="stroke:#181818;stroke-width:1;"/></g><!--link A2 to UC5--><g class="link" data-entity-1="A2" data-entity-2="UC5" data-source-line="54" data-uid="lnk40" id="link_A2_UC5"><path d="M204.84,434.8569 C221.89,483.6469 250.33,570.5769 265.33,647.2969 C269.59,669.0469 289.76,1027.6069 304.33,1044.2969 C321.9,1064.4169 342.0966,1073.7297 368.1366,1078.9397" fill="none" id="A2-to-UC5" style="stroke:#181818;stroke-width:1;"/><polygon fill="#181818" points="374.02,1080.1169,365.9797,1074.4289,369.1172,1079.1359,364.4102,1082.2734,374.02,1080.1169" style="stroke:#181818;stroke-width:1;"/></g><!--link A2 to UC6--><g class="link" data-entity-1="A2" data-entity-2="UC6" data-source-line="55" data-uid="lnk41" id="link_A2_UC6"><path d="M197.31,358.0169 C208.67,302.4769 237.75,200.2269 304.33,145.2969 C325.37,127.9369 347.109,119.436 373.469,114.106" fill="none" id="A2-to-UC6" style="stroke:#181818;stroke-width:1;"/><polygon fill="#181818" points="379.35,112.9169,369.7358,110.7799,374.4492,113.9078,371.3213,118.6212,379.35,112.9169" style="stroke:#181818;stroke-width:1;"/></g><!--link A2 to UC8--><g class="link" data-entity-1="A2" data-entity-2="UC8" data-source-line="56" data-uid="lnk42" id="link_A2_UC8"><path d="M223.79,388.2569 C244.33,383.2669 271.35,376.7969 295.33,371.2969 C328.72,363.6469 360.0364,356.7492 391.0064,350.0292" fill="none" id="A2-to-UC8" style="stroke:#181818;stroke-width:1;"/><polygon fill="#181818" points="396.87,348.7569,387.2265,346.7563,391.9837,349.8171,388.9229,354.5744,396.87,348.7569" style="stroke:#181818;stroke-width:1;"/></g><!--link A2 to UC17--><g class="link" data-entity-1="A2" data-entity-2="UC17" data-source-line="57" data-uid="lnk43" id="link_A2_UC17"><path d="M205.21,357.8869 C222.42,317.1069 255.26,253.8869 304.33,219.2969 C327.65,202.8669 351.2742,194.7404 378.5942,189.5804" fill="none" id="A2-to-UC17" style="stroke:#181818;stroke-width:1;"/><polygon fill="#181818" points="384.49,188.4669,374.904,186.2067,379.5769,189.3948,376.3887,194.0677,384.49,188.4669" style="stroke:#181818;stroke-width:1;"/></g><!--link A2 to UC18--><g class="link" data-entity-1="A2" data-entity-2="UC18" data-source-line="58" data-uid="lnk44" id="link_A2_UC18"><path d="M223.72,358.9869 C244.72,337.3269 273.7,311.2569 304.33,295.2969 C329.54,282.1669 353.4589,274.7437 380.4689,269.0537" fill="none" id="A2-to-UC18" style="stroke:#181818;stroke-width:1;"/><polygon fill="#181818" points="386.34,267.8169,376.7087,265.758,381.4474,268.8476,378.3578,273.5862,386.34,267.8169" style="stroke:#181818;stroke-width:1;"/></g><!--link A3 to UC2--><g class="link" data-entity-1="A3" data-entity-2="UC2" data-source-line="61" data-uid="lnk45" id="link_A3_UC2"><path d="M218.57,666.3669 C239.26,641.7369 269.84,611.0869 304.33,595.2969 C347.37,575.6069 396.3933,568.5149 429.4433,565.5949" fill="none" id="A3-to-UC2" style="stroke:#181818;stroke-width:1;"/><polygon fill="#181818" points="435.42,565.0669,426.1029,561.8745,430.4394,565.5069,426.807,569.8434,435.42,565.0669" style="stroke:#181818;stroke-width:1;"/></g><!--link A3 to UC3--><g class="link" data-entity-1="A3" data-entity-2="UC3" data-source-line="62" data-uid="lnk46" id="link_A3_UC3"><path d="M218.38,715.8169 C241.05,725.7569 274.27,739.4069 304.33,748.2969 C347,760.9169 391.615,769.1411 424.315,774.3611" fill="none" id="A3-to-UC3" style="stroke:#181818;stroke-width:1;"/><polygon fill="#181818" points="430.24,775.3069,421.9831,769.9382,425.3025,774.5187,420.722,777.8381,430.24,775.3069" style="stroke:#181818;stroke-width:1;"/></g><!--link A3 to UC4--><g class="link" data-entity-1="A3" data-entity-2="UC4" data-source-line="63" data-uid="lnk47" id="link_A3_UC4"><path d="M197.08,665.0269 C208.19,608.9469 237.02,505.0669 304.33,449.2969 C325.01,432.1669 346.2051,423.7157 372.1851,418.3257" fill="none" id="A3-to-UC4" style="stroke:#181818;stroke-width:1;"/><polygon fill="#181818" points="378.06,417.1069,368.4351,415.0186,373.1643,418.1226,370.0602,422.8517,378.06,417.1069" style="stroke:#181818;stroke-width:1;"/></g><!--link A3 to UC9--><g class="link" data-entity-1="A3" data-entity-2="UC9" data-source-line="64" data-uid="lnk48" id="link_A3_UC9"><path d="M218.29,694.8669 C241.19,687.9269 274.76,678.0069 304.33,670.2969 C335.93,662.0569 365.4368,655.1059 394.8568,648.4759" fill="none" id="A3-to-UC9" style="stroke:#181818;stroke-width:1;"/><polygon fill="#181818" points="400.71,647.1569,391.0508,645.2333,395.8323,648.2561,392.8096,653.0376,400.71,647.1569" style="stroke:#181818;stroke-width:1;"/></g><!--link A3 to UC10--><g class="link" data-entity-1="A3" data-entity-2="UC10" data-source-line="65" data-uid="lnk49" id="link_A3_UC10"><path d="M218.63,703.9069 C254.15,704.6869 311.4914,705.9457 364.9814,707.1157" fill="none" id="A3-to-UC10" style="stroke:#181818;stroke-width:1;"/><polygon fill="#181818" points="370.98,707.2469,362.0696,703.051,365.9812,707.1375,361.8947,711.0491,370.98,707.2469" style="stroke:#181818;stroke-width:1;"/></g><!--link A3 to UC11--><g class="link" data-entity-1="A3" data-entity-2="UC11" data-source-line="66" data-uid="lnk50" id="link_A3_UC11"><path d="M218.55,737.6869 C239.68,761.8269 270.79,793.1069 304.33,812.2969 C324.88,824.0569 342.9146,831.2356 365.7846,837.8256" fill="none" id="A3-to-UC11" style="stroke:#181818;stroke-width:1;"/><polygon fill="#181818" points="371.55,839.4869,364.0094,833.1513,366.7455,838.1025,361.7943,840.8385,371.55,839.4869" style="stroke:#181818;stroke-width:1;"/></g><!--link A3 to UC12--><g class="link" data-entity-1="A3" data-entity-2="UC12" data-source-line="67" data-uid="lnk51" id="link_A3_UC12"><path d="M206.3,664.7269 C224.06,625.2469 257,565.0369 304.33,531.2969 C324.54,516.8969 343.5429,509.0169 367.5629,502.9469" fill="none" id="A3-to-UC12" style="stroke:#181818;stroke-width:1;"/><polygon fill="#181818" points="373.38,501.4769,363.6743,499.8038,368.5324,502.7019,365.6343,507.56,373.38,501.4769" style="stroke:#181818;stroke-width:1;"/></g><!--link A4 to UC2--><g class="link" data-entity-1="A4" data-entity-2="UC2" data-source-line="70" data-uid="lnk52" id="link_A4_UC2"><path d="M220.24,836.8869 C235.61,815.1269 253.63,786.8269 265.33,759.2969 C294.64,690.3469 250.41,647.3069 304.33,595.2969 C339.52,561.3669 393.9679,558.3196 429.6579,560.1496" fill="none" id="A4-to-UC2" style="stroke:#181818;stroke-width:1;"/><polygon fill="#181818" points="435.65,560.4569,426.8666,556.0013,430.6566,560.2008,426.457,563.9908,435.65,560.4569" style="stroke:#181818;stroke-width:1;"/></g><!--link A4 to UC3--><g class="link" data-entity-1="A4" data-entity-2="UC3" data-source-line="71" data-uid="lnk53" id="link_A4_UC3"><path d="M244.66,840.9769 C263.01,830.4769 284.04,819.7569 304.33,812.2969 C345.83,797.0469 390.2414,789.2908 423.2514,784.9408" fill="none" id="A4-to-UC3" style="stroke:#181818;stroke-width:1;"/><polygon fill="#181818" points="429.2,784.1569,419.7545,781.367,424.2429,784.8101,420.7997,789.2984,429.2,784.1569" style="stroke:#181818;stroke-width:1;"/></g><!--link A4 to UC13--><g class="link" data-entity-1="A4" data-entity-2="UC13" data-source-line="72" data-uid="lnk54" id="link_A4_UC13"><path d="M229.8,913.8569 C255.72,938.7469 287.92,967.9969 304.33,976.2969 C334.25,991.4369 364.6592,998.9285 395.1492,1003.5985" fill="none" id="A4-to-UC13" style="stroke:#181818;stroke-width:1;"/><polygon fill="#181818" points="401.08,1004.5069,392.7893,999.1904,396.1376,1003.7499,391.5781,1007.0982,401.08,1004.5069" style="stroke:#181818;stroke-width:1;"/></g><!--link A4 to UC14--><g class="link" data-entity-1="A4" data-entity-2="UC14" data-source-line="73" data-uid="lnk55" id="link_A4_UC14"><path d="M238.85,913.5869 C248.87,923.6169 258.46,935.0769 265.33,947.2969 C303.94,1016.0169 249.25,1063.9269 304.33,1120.2969 C321.35,1137.7169 338.8906,1146.5159 362.5106,1152.4459" fill="none" id="A4-to-UC14" style="stroke:#181818;stroke-width:1;"/><polygon fill="#181818" points="368.33,1153.9069,360.5749,1147.8358,363.4805,1152.6894,358.6269,1155.595,368.33,1153.9069" style="stroke:#181818;stroke-width:1;"/></g><!--link A4 to UC15--><g class="link" data-entity-1="A4" data-entity-2="UC15" data-source-line="74" data-uid="lnk56" id="link_A4_UC15"><path d="M239.85,913.6469 C249.7,923.5869 258.97,935.0069 265.33,947.2969 C317.61,1048.3469 229.15,1114.9069 304.33,1200.2969 C317.33,1215.0569 329.0941,1223.1045 347.6241,1230.0745" fill="none" id="A4-to-UC15" style="stroke:#181818;stroke-width:1;"/><polygon fill="#181818" points="353.24,1232.1869,346.2245,1225.2744,348.5601,1230.4266,343.408,1232.7622,353.24,1232.1869" style="stroke:#181818;stroke-width:1;"/></g><!--link A4 to UC16--><g class="link" data-entity-1="A4" data-entity-2="UC16" data-source-line="75" data-uid="lnk57" id="link_A4_UC16"><path d="M244.84,888.2069 C263.66,892.6969 284.92,897.7469 304.33,902.2969 C336.68,909.8869 366.8936,916.878 396.5836,923.728" fill="none" id="A4-to-UC16" style="stroke:#181818;stroke-width:1;"/><polygon fill="#181818" points="402.43,925.0769,394.5596,919.156,397.558,923.9528,392.7611,926.9512,402.43,925.0769" style="stroke:#181818;stroke-width:1;"/></g><!--link UC6 to UC7--><g class="link" data-entity-1="UC6" data-entity-2="UC7" data-source-line="78" data-uid="lnk58" id="link_UC6_UC7"><path d="M545.24,116.6469 C563.56,122.3069 581.48,131.2469 594.46,145.2969 C717.5,278.3569 771.3232,886.5258 780.5032,1001.6858" fill="none" id="UC6-to-UC7" style="stroke:#181818;stroke-width:1;stroke-dasharray:7.0,7.0;"/><polygon fill="#181818" points="780.98,1007.6669,784.2522,998.3775,780.5827,1002.6827,776.2775,999.0132,780.98,1007.6669" style="stroke:#181818;stroke-width:1;"/><text fill="#000000" font-family="sans-serif" font-size="13" lengthAdjust="spacing" textLength="47.0996" x="625.46" y="187.3638">include</text></g><!--link UC7 to PG--><g class="link" data-entity-1="UC7" data-entity-2="PG" data-source-line="81" data-uid="lnk59" id="link_UC7_PG"><path d="M795.21,1044.7469 C836.51,1115.2569 981.8878,1363.5195 1038.8378,1460.7595" fill="none" id="UC7-to-PG" style="stroke:#181818;stroke-width:1;"/><polygon fill="#181818" points="1041.87,1465.9369,1040.7733,1456.1493,1039.3431,1461.6224,1033.8701,1460.1922,1041.87,1465.9369" style="stroke:#181818;stroke-width:1;"/><text fill="#000000" font-family="sans-serif" font-size="13" lengthAdjust="spacing" textLength="57.2749" x="904.35" y="1233.3638">interacts</text></g><!--link UC15 to PG--><g class="link" data-entity-1="UC15" data-entity-2="PG" data-source-line="82" data-uid="lnk60" id="link_UC15_PG"><path d="M559.07,1265.9869 C572.52,1272.4269 585,1280.9669 594.46,1292.2969 C646.18,1354.1969 577.97,1405.3869 624.46,1471.2969 C647.63,1504.1369 664.57,1505.1969 703.46,1515.2969 C800.99,1540.6269 912.4021,1530.7345 986.2121,1519.1845" fill="none" id="UC15-to-PG" style="stroke:#181818;stroke-width:1;"/><polygon fill="#181818" points="992.14,1518.2569,982.6298,1515.6964,987.2001,1519.0299,983.8666,1523.6002,992.14,1518.2569" style="stroke:#181818;stroke-width:1;"/><text fill="#000000" font-family="sans-serif" font-size="13" lengthAdjust="spacing" textLength="57.2749" x="754.91" y="1511.3638">interacts</text></g><!--SRC=[ZLLBRjim4Dth50Dlid9IVPmwNGGmxC88q226KtVFo6Db04bqASfjq_OklKilrg54YP9b0TqzpRmPllcGqgHJX6SgD6O2dezIwQTJcNyj4QQm8f4eaR5ZZmHBKH3ihtQ5zBmhUCYEij3YZMIEi2U5DKemHoLIzBGyWfRm8hMMMKM8DJDCw0eFb9EDn2Gb44nIvALuq2P8KVAgEp4YPZTCTXfpZP3B71GcB5a9BISW2bZu3MVnyYBprXmqvWrBClpQ7BRiB6CbTIA5jJDgd6kXyPlu0HkHY8nFhdDkrgQ4BQPLwTmG0iwCUL6LmvcQOXO1J7_TipJu0FYT6Vl2MuGNRD7GDcWIGLntl-JkcxQ8FE6vJIuDRW8_FU0s9gXVKLKV06M1d84ZjatdEANC47eDsotzFlkJJ2Ythc3WagMslh3lMtDBg8W9DaeUA9LGZywIepvvYIeMO2U4DmkjwKJwxn_BdlNP7my7rBha08Mvj0jegRTzgXdS9ThxFkqB5QL8wUsjHoPBdezKjZ8TxAtLRdatmdrYpKeBE2_DV_TVIc1BCPxAjd- -FnhsaBE95-LHwDBCk8a8HfHLSsbPOrFyJ4UPyYRWi8ApMJwoNDv-qLuQkjdI2LLHVpHHiz42dZMhvcFZrxRQiwckgDXJjLg3mVgZaxtP5GAM2lVaDjrCzhVts_Cu3TetHnwgD7mLDqAnDHWwvnrdxoKmTx-yz4G1TcylN_JfzBwwQYsS3JC9Uo_FWWCR4JWOEXWvE7Fmri6vWzmiX-T30KUxssS2GYSWT0929w21TmxodZliT_253ehUatnsUEGEZzpX3VIxEEhWMGVV3fvlokEqTCztvpnk7LnVcp2p4HLlZzNFZuUiR8QOPqqf9FPlmGcFpG_3Cu7ctCswYZT1iIuy8-c2_Hy0]--></g></svg>