<svg xmlns="http://www.w3.org/2000/svg" xmlns:xlink="http://www.w3.org/1999/xlink" contentStyleType="text/css" data-diagram-type="DESCRIPTION" height="1885px" preserveAspectRatio="none" style="width:1638px;height:1885px;background:#FFFFFF;" version="1.1" viewBox="0 0 1638 1885" width="1638px" zoomAndPan="magnify"><title>Sistema SportOvunque - Diagramma dei Casi d'Uso</title><defs/><g><g class="title" data-source-line="1"><text fill="#000000" font-family="sans-serif" font-size="14" font-weight="bold" lengthAdjust="spacing" textLength="403.915" x="610.2279" y="22.9951">Sistema SportOvunque - Diagramma dei Casi d'Uso</text></g><!--cluster Sistema SportOvunque--><g class="cluster" data-entity="Sistema SportOvunque" data-source-line="24" data-uid="ent0011" id="cluster_Sistema SportOvunque"><rect fill="none" height="1835" rx="2.5" ry="2.5" style="stroke:#181818;stroke-width:1;" width="897.54" x="543.87" y="44.2969"/><text fill="#000000" font-family="sans-serif" font-size="14" font-weight="bold" lengthAdjust="spacing" textLength="182.0752" x="901.6024" y="59.292">Sistema SportOvunque</text></g><!--cluster P1--><g class="cluster" data-entity="P1" data-source-line="25" data-uid="ent0012" id="cluster_P1"><rect fill="none" height="474" rx="2.5" ry="2.5" style="stroke:#181818;stroke-width:1;" width="311.73" x="608.59" y="1068.2969"/><text fill="#000000" font-family="sans-serif" font-size="14" font-weight="bold" lengthAdjust="spacing" textLength="209.7744" x="659.5678" y="1083.292">Gestione Account e Profilo</text></g><!--cluster P2--><g class="cluster" data-entity="P2" data-source-line="34" data-uid="ent0019" id="cluster_P2"><rect fill="none" height="437" rx="2.5" ry="2.5" style="stroke:#181818;stroke-width:1;" width="704.93" x="606.24" y="607.2969"/><text fill="#000000" font-family="sans-serif" font-size="14" font-weight="bold" lengthAdjust="spacing" textLength="339.5273" x="788.9413" y="622.292">Ricerca e Prenotazione Attivit&#224; (Abbonato)</text></g><!--cluster P3--><g class="cluster" data-entity="P3" data-source-line="45" data-uid="ent0032" id="cluster_P3"><rect fill="none" height="496" rx="2.5" ry="2.5" style="stroke:#181818;stroke-width:1;" width="393.17" x="567.87" y="87.2969"/><text fill="#000000" font-family="sans-serif" font-size="14" font-weight="bold" lengthAdjust="spacing" textLength="338.126" x="595.392" y="102.292">Gestione Palestra e Offerte (Palestra Org.)</text></g><!--cluster P4--><g class="cluster" data-entity="P4" data-source-line="56" data-uid="ent0047" id="cluster_P4"><rect fill="none" height="289" rx="2.5" ry="2.5" style="stroke:#181818;stroke-width:1;" width="302.28" x="613.31" y="1566.2969"/><text fill="#000000" font-family="sans-serif" font-size="14" font-weight="bold" lengthAdjust="spacing" textLength="269.1719" x="629.8641" y="1581.292">Amministrazione Sistema (Admin)</text></g><g class="entity" data-entity="GMN26" data-source-line="42" data-uid="ent0027" id="entity_GMN26"><path d="M1181.4,565.7269 L1181.4,590.8597 L1249.0489,590.8597 L1249.0489,575.7269 L1239.0489,565.7269 L1181.4,565.7269" fill="#FEFFDD" style="stroke:#181818;stroke-width:0.5;"/><path d="M1239.0489,565.7269 L1239.0489,575.7269 L1249.0489,575.7269 L1239.0489,565.7269" fill="#FEFFDD" style="stroke:#181818;stroke-width:1;"/><text fill="#000000" font-family="sans-serif" font-size="13" lengthAdjust="spacing" textLength="46.6489" x="1187.4" y="582.7938">Parte 2</text></g><g class="entity" data-entity="GMN29" data-source-line="43" data-uid="ent0030" id="entity_GMN29"><path d="M1181.4,505.7269 L1181.4,530.8597 L1249.0489,530.8597 L1249.0489,515.7269 L1239.0489,505.7269 L1181.4,505.7269" fill="#FEFFDD" style="stroke:#181818;stroke-width:0.5;"/><path d="M1239.0489,505.7269 L1239.0489,515.7269 L1249.0489,515.7269 L1239.0489,505.7269" fill="#FEFFDD" style="stroke:#181818;stroke-width:1;"/><text fill="#000000" font-family="sans-serif" font-size="13" lengthAdjust="spacing" textLength="46.6489" x="1187.4" y="522.7938">Parte 2</text></g><g class="entity" data-entity="GMN38" data-source-line="52" data-uid="ent0039" id="entity_GMN38"><path d="M1081.23,129.7269 L1081.23,138.2969 L853.51,142.2969 L1081.23,146.2969 L1081.23,154.8597 A0,0 0 0 0 1081.23,154.8597 L1349.211,154.8597 A0,0 0 0 0 1349.211,154.8597 L1349.211,139.7269 L1339.211,129.7269 L1081.23,129.7269 A0,0 0 0 0 1081.23,129.7269" fill="#FEFFDD" style="stroke:#181818;stroke-width:0.5;"/><path d="M1339.211,129.7269 L1339.211,139.7269 L1349.211,139.7269 L1339.211,129.7269" fill="#FEFFDD" style="stroke:#181818;stroke-width:0.5;"/><text fill="#000000" font-family="sans-serif" font-size="13" lengthAdjust="spacing" textLength="246.981" x="1087.23" y="146.7938">Dati anagrafici e geografici delle sedi.</text></g><g class="entity" data-entity="GMN41" data-source-line="53" data-uid="ent0042" id="entity_GMN41"><path d="M1005.04,213.7269 L1005.04,222.2969 L895.44,226.2969 L1005.04,230.2969 L1005.04,238.8597 A0,0 0 0 0 1005.04,238.8597 L1425.4091,238.8597 A0,0 0 0 0 1425.4091,238.8597 L1425.4091,223.7269 L1415.4091,213.7269 L1005.04,213.7269 A0,0 0 0 0 1005.04,213.7269" fill="#FEFFDD" style="stroke:#181818;stroke-width:0.5;"/><path d="M1415.4091,213.7269 L1415.4091,223.7269 L1425.4091,223.7269 L1415.4091,213.7269" fill="#FEFFDD" style="stroke:#181818;stroke-width:0.5;"/><text fill="#000000" font-family="sans-serif" font-size="13" lengthAdjust="spacing" textLength="399.3691" x="1011.04" y="230.7938">Definizione dell'offerta (tipo, prezzo base, etc.) per una sede.</text></g><g class="entity" data-entity="GMN44" data-source-line="54" data-uid="ent0045" id="entity_GMN44"><path d="M1009.29,315.7269 L1009.29,324.2969 L945.53,328.2969 L1009.29,332.2969 L1009.29,340.8597 A0,0 0 0 0 1009.29,340.8597 L1421.1533,340.8597 A0,0 0 0 0 1421.1533,340.8597 L1421.1533,325.7269 L1411.1533,315.7269 L1009.29,315.7269 A0,0 0 0 0 1009.29,315.7269" fill="#FEFFDD" style="stroke:#181818;stroke-width:0.5;"/><path d="M1411.1533,315.7269 L1411.1533,325.7269 L1421.1533,325.7269 L1411.1533,315.7269" fill="#FEFFDD" style="stroke:#181818;stroke-width:0.5;"/><text fill="#000000" font-family="sans-serif" font-size="13" lengthAdjust="spacing" textLength="390.8633" x="1015.29" y="332.7938">Creazione delle singole date/orari prenotabili per un'offerta.</text></g><!--entity UC1--><g class="entity" data-entity="UC1" data-source-line="26" data-uid="ent0013" id="entity_UC1"><ellipse cx="764.4501" cy="1126.2989" fill="#F1F1F1" rx="102.9101" ry="22.982" style="stroke:#181818;stroke-width:0.5;"/><text fill="#000000" font-family="sans-serif" font-size="14" lengthAdjust="spacing" textLength="182.4512" x="673.2245" y="1130.9473">Registrati come Abbonato</text></g><!--entity UC2--><g class="entity" data-entity="UC2" data-source-line="27" data-uid="ent0014" id="entity_UC2"><ellipse cx="764.4504" cy="1294.3005" fill="#F1F1F1" rx="29.8804" ry="14.5236" style="stroke:#181818;stroke-width:0.5;"/><text fill="#000000" font-family="sans-serif" font-size="14" lengthAdjust="spacing" textLength="38.0146" x="745.4431" y="1298.9489">Login</text></g><!--entity UC3--><g class="entity" data-entity="UC3" data-source-line="28" data-uid="ent0015" id="entity_UC3"><ellipse cx="764.4482" cy="1358.3005" fill="#F1F1F1" rx="37.0682" ry="14.5236" style="stroke:#181818;stroke-width:0.5;"/><text fill="#000000" font-family="sans-serif" font-size="14" lengthAdjust="spacing" textLength="48.1797" x="740.3583" y="1362.9489">Logout</text></g><!--entity UC4--><g class="entity" data-entity="UC4" data-source-line="29" data-uid="ent0016" id="entity_UC4"><ellipse cx="764.4499" cy="1428.2929" fill="#F1F1F1" rx="90.6799" ry="20.536" style="stroke:#181818;stroke-width:0.5;"/><text fill="#000000" font-family="sans-serif" font-size="14" lengthAdjust="spacing" textLength="155.2783" x="686.8107" y="1432.9413">Gestisci Profilo Utente</text></g><!--entity UC9--><g class="entity" data-entity="UC9" data-source-line="30" data-uid="ent0017" id="entity_UC9"><ellipse cx="764.4535" cy="1214.2996" fill="#F1F1F1" rx="139.8635" ry="30.3727" style="stroke:#181818;stroke-width:0.5;"/><text fill="#000000" font-family="sans-serif" font-size="14" lengthAdjust="spacing" textLength="261.3174" x="633.7948" y="1218.948">Gestisci Dati Organizzazione Palestra</text></g><!--entity UC13--><g class="entity" data-entity="UC13" data-source-line="31" data-uid="ent0018" id="entity_UC13"><ellipse cx="764.4459" cy="1505.2981" fill="#F1F1F1" rx="93.8059" ry="21.1612" style="stroke:#181818;stroke-width:0.5;"/><text fill="#000000" font-family="sans-serif" font-size="14" lengthAdjust="spacing" textLength="162.3057" x="683.293" y="1509.9465">Gestisci Utenti (Admin)</text></g><!--entity UC5--><g class="entity" data-entity="UC5" data-source-line="35" data-uid="ent0020" id="entity_UC5"><ellipse cx="764.4515" cy="673.2992" fill="#F1F1F1" rx="142.2115" ry="30.8423" style="stroke:#181818;stroke-width:0.5;"/><text fill="#000000" font-family="sans-serif" font-size="14" lengthAdjust="spacing" textLength="266.2324" x="631.3353" y="677.9476">Cerca Sedi Palestre e Sessioni Attivit&#224;</text></g><!--entity UC6--><g class="entity" data-entity="UC6" data-source-line="36" data-uid="ent0021" id="entity_UC6"><ellipse cx="764.449" cy="915.2967" fill="#F1F1F1" rx="119.499" ry="26.2998" style="stroke:#181818;stroke-width:0.5;"/><text fill="#000000" font-family="sans-serif" font-size="14" lengthAdjust="spacing" textLength="218.2852" x="655.3065" y="919.9451">Effettua Prenotazione Sessione</text></g><!--entity UC7--><g class="entity" data-entity="UC7" data-source-line="37" data-uid="ent0022" id="entity_UC7"><ellipse cx="1215.2247" cy="963.2958" fill="#F1F1F1" rx="79.9447" ry="18.3889" style="stroke:#181818;stroke-width:0.5;"/><text fill="#000000" font-family="sans-serif" font-size="14" lengthAdjust="spacing" textLength="130.5459" x="1149.9517" y="967.9442">Paga Prenotazione</text></g><!--entity UC8--><g class="entity" data-entity="UC8" data-source-line="38" data-uid="ent0023" id="entity_UC8"><ellipse cx="764.449" cy="1002.2967" fill="#F1F1F1" rx="117.449" ry="25.8898" style="stroke:#181818;stroke-width:0.5;"/><text fill="#000000" font-family="sans-serif" font-size="14" lengthAdjust="spacing" textLength="213.9033" x="657.4974" y="1006.9451">Visualizza Storico Prenotazioni</text></g><!--entity UC17--><g class="entity" data-entity="UC17" data-source-line="39" data-uid="ent0024" id="entity_UC17"><ellipse cx="764.4465" cy="834.2922" fill="#F1F1F1" rx="85.0265" ry="19.4053" style="stroke:#181818;stroke-width:0.5;"/><text fill="#000000" font-family="sans-serif" font-size="14" lengthAdjust="spacing" textLength="142.3857" x="693.2537" y="838.9406">Disdici Prenotazione</text></g><!--entity UC18--><g class="entity" data-entity="UC18" data-source-line="40" data-uid="ent0025" id="entity_UC18"><ellipse cx="764.4519" cy="759.2953" fill="#F1F1F1" rx="90.7919" ry="20.5584" style="stroke:#181818;stroke-width:0.5;"/><text fill="#000000" font-family="sans-serif" font-size="14" lengthAdjust="spacing" textLength="155.5313" x="686.6863" y="763.9437">Visualizza/Usa Credito</text></g><!--entity UC9b--><g class="entity" data-entity="UC9b" data-source-line="46" data-uid="ent0033" id="entity_UC9b"><ellipse cx="764.4489" cy="142.3006" fill="#F1F1F1" rx="88.7189" ry="20.1438" style="stroke:#181818;stroke-width:0.5;"/><text fill="#000000" font-family="sans-serif" font-size="14" lengthAdjust="spacing" textLength="150.835" x="689.0314" y="146.9491">Gestisci Sedi Palestra</text></g><!--entity UC10--><g class="entity" data-entity="UC10" data-source-line="47" data-uid="ent0034" id="entity_UC10"><ellipse cx="764.4546" cy="226.3018" fill="#F1F1F1" rx="130.6746" ry="28.5349" style="stroke:#181818;stroke-width:0.5;"/><text fill="#000000" font-family="sans-serif" font-size="14" lengthAdjust="spacing" textLength="241.999" x="643.4551" y="230.9502">Gestisci Offerta Attivit&#224; (per Sede)</text></g><!--entity UC10b--><g class="entity" data-entity="UC10b" data-source-line="48" data-uid="ent0035" id="entity_UC10b"><ellipse cx="764.4468" cy="328.2942" fill="#F1F1F1" rx="180.5868" ry="38.5174" style="stroke:#181818;stroke-width:0.5;"/><text fill="#000000" font-family="sans-serif" font-size="14" lengthAdjust="spacing" textLength="345.7002" x="591.5967" y="332.9427">Gestisci Calendario Sessioni (per Offerta di Sede)</text></g><!--entity UC11--><g class="entity" data-entity="UC11" data-source-line="49" data-uid="ent0036" id="entity_UC11"><ellipse cx="764.4512" cy="436.3011" fill="#F1F1F1" rx="160.5212" ry="34.5042" style="stroke:#181818;stroke-width:0.5;"/><text fill="#000000" font-family="sans-serif" font-size="14" lengthAdjust="spacing" textLength="304.3223" x="612.2901" y="440.9496">Visualizza Prenotazioni Ricevute (per Sede)</text></g><!--entity UC12--><g class="entity" data-entity="UC12" data-source-line="50" data-uid="ent0037" id="entity_UC12"><ellipse cx="764.4524" cy="536.2954" fill="#F1F1F1" rx="140.5424" ry="30.5085" style="stroke:#181818;stroke-width:0.5;"/><text fill="#000000" font-family="sans-serif" font-size="14" lengthAdjust="spacing" textLength="262.7393" x="633.0827" y="540.9438">Visualizza Incassi Maturati (per Sede)</text></g><!--entity UC14--><g class="entity" data-entity="UC14" data-source-line="57" data-uid="ent0048" id="entity_UC14"><ellipse cx="764.4484" cy="1630.3006" fill="#F1F1F1" rx="132.9184" ry="28.9837" style="stroke:#181818;stroke-width:0.5;"/><text fill="#000000" font-family="sans-serif" font-size="14" lengthAdjust="spacing" textLength="246.7295" x="641.0836" y="1634.949">Gestisci Tipologie Attivit&#224; Standard</text></g><!--entity UC15--><g class="entity" data-entity="UC15" data-source-line="58" data-uid="ent0049" id="entity_UC15"><ellipse cx="764.4471" cy="1723.2943" fill="#F1F1F1" rx="135.1371" ry="29.4274" style="stroke:#181818;stroke-width:0.5;"/><text fill="#000000" font-family="sans-serif" font-size="14" lengthAdjust="spacing" textLength="251.3984" x="638.7479" y="1727.9427">Monitora Pagamenti e Riversamenti</text></g><!--entity UC16--><g class="entity" data-entity="UC16" data-source-line="59" data-uid="ent0050" id="entity_UC16"><ellipse cx="764.4454" cy="1813.292" fill="#F1F1F1" rx="116.7754" ry="25.7551" style="stroke:#181818;stroke-width:0.5;"/><text fill="#000000" font-family="sans-serif" font-size="14" lengthAdjust="spacing" textLength="212.4609" x="658.2149" y="1817.9404">Visualizza Statistiche e Report</text></g><!--entity A1--><g class="entity" data-entity="A1" data-source-line="9" data-uid="ent0002" id="entity_A1"><ellipse cx="321.0177" cy="913.6469" fill="#F1F1F1" rx="8" ry="8" style="stroke:#181818;stroke-width:0.5;"/><path d="M321.0177,921.6469 L321.0177,948.6469 M308.0177,929.6469 L334.0177,929.6469 M321.0177,948.6469 L308.0177,963.6469 M321.0177,948.6469 L334.0177,963.6469" fill="none" style="stroke:#181818;stroke-width:0.5;"/><text fill="#000000" font-family="sans-serif" font-size="14" lengthAdjust="spacing" textLength="150.8555" x="245.59" y="978.142">Utente non registrato</text></g><!--entity A2--><g class="entity" data-entity="A2" data-source-line="10" data-uid="ent0003" id="entity_A2"><ellipse cx="490.1514" cy="913.6469" fill="#F1F1F1" rx="8" ry="8" style="stroke:#181818;stroke-width:0.5;"/><path d="M490.1514,921.6469 L490.1514,948.6469 M477.1514,929.6469 L503.1514,929.6469 M490.1514,948.6469 L477.1514,963.6469 M490.1514,948.6469 L503.1514,963.6469" fill="none" style="stroke:#181818;stroke-width:0.5;"/><text fill="#000000" font-family="sans-serif" font-size="14" lengthAdjust="spacing" textLength="67.4229" x="456.44" y="978.142">Abbonato</text></g><!--entity A3--><g class="entity" data-entity="A3" data-source-line="11" data-uid="ent0004" id="entity_A3"><ellipse cx="95.7935" cy="506.6469" fill="#F1F1F1" rx="8" ry="8" style="stroke:#181818;stroke-width:0.5;"/><path d="M95.7935,514.6469 L95.7935,541.6469 M82.7935,522.6469 L108.7935,522.6469 M95.7935,541.6469 L82.7935,556.6469 M95.7935,541.6469 L108.7935,556.6469" fill="none" style="stroke:#181818;stroke-width:0.5;"/><text fill="#000000" font-family="sans-serif" font-size="14" lengthAdjust="spacing" textLength="179.5869" x="6" y="571.142">Palestra (Organizzazione)</text></g><!--entity A4--><g class="entity" data-entity="A4" data-source-line="12" data-uid="ent0005" id="entity_A4"><ellipse cx="95.7934" cy="1478.6469" fill="#F1F1F1" rx="8" ry="8" style="stroke:#181818;stroke-width:0.5;"/><path d="M95.7934,1486.6469 L95.7934,1513.6469 M82.7934,1494.6469 L108.7934,1494.6469 M95.7934,1513.6469 L82.7934,1528.6469 M95.7934,1513.6469 L108.7934,1528.6469" fill="none" style="stroke:#181818;stroke-width:0.5;"/><text fill="#000000" font-family="sans-serif" font-size="14" lengthAdjust="spacing" textLength="109.0469" x="41.27" y="1543.142">Amministratore</text></g><!--entity PG_Ext--><g class="entity" data-entity="PG_Ext" data-source-line="13" data-uid="ent0006" id="entity_PG_Ext"><ellipse cx="1558.3905" cy="1160.7938" fill="#F1F1F1" rx="8" ry="8" style="stroke:#181818;stroke-width:0.5;"/><path d="M1558.3905,1168.7938 L1558.3905,1195.7938 M1545.3905,1176.7938 L1571.3905,1176.7938 M1558.3905,1195.7938 L1545.3905,1210.7938 M1558.3905,1195.7938 L1571.3905,1210.7938" fill="none" style="stroke:#181818;stroke-width:0.5;"/><text fill="#000000" font-family="sans-serif" font-size="14" lengthAdjust="spacing" textLength="145.9609" x="1485.41" y="1225.2889">Gateway Pagamento</text><text fill="#000000" font-family="sans-serif" font-size="14" font-style="italic" lengthAdjust="spacing" textLength="131.4072" x="1492.6869" y="1148.992">&#171;Sistema Esterno&#187;</text></g><!--link A1 to A2--><!--link A2 to A1--><g class="link" data-entity-1="A2" data-entity-2="A1" data-source-line="19" data-uid="lnk8" id="link_A2_A1"><path d="M456.33,930.5769 C439.17,930.5769 435.59,930.5769 414.73,930.5769" fill="none" id="A2-to-A1" style="stroke:#181818;stroke-width:1;"/><polygon fill="none" points="396.73,930.5769,414.73,936.5769,414.73,924.5769,396.73,930.5769" style="stroke:#181818;stroke-width:1;"/><text fill="#000000" font-family="sans-serif" font-size="13" lengthAdjust="spacing" textLength="52.0508" x="373.53" y="943.6438">extends</text></g><!--link A3 to A1--><g class="link" data-entity-1="A3" data-entity-2="A1" data-source-line="20" data-uid="lnk9" id="link_A3_A1"><path d="M179.37,574.5869 C179.37,675.9069 179.37,943.2969 179.37,943.2969 C179.37,943.2969 193.54,943.2969 227.22,943.2969" fill="none" id="A3-to-A1" style="stroke:#181818;stroke-width:1;"/><polygon fill="none" points="245.22,943.2969,227.22,937.2969,227.22,949.2969,245.22,943.2969" style="stroke:#181818;stroke-width:1;"/><text fill="#000000" font-family="sans-serif" font-size="13" lengthAdjust="spacing" textLength="52.0508" x="126.37" y="804.9338">extends</text></g><!--link A4 to A1--><g class="link" data-entity-1="A4" data-entity-2="A1" data-source-line="21" data-uid="lnk10" id="link_A4_A1"><path d="M150.6,1477.1469 C209.99,1477.1469 296.37,1477.1469 296.37,1477.1469 C296.37,1477.1469 296.37,1122.0969 296.37,999.6869" fill="none" id="A4-to-A1" style="stroke:#181818;stroke-width:1;"/><polygon fill="none" points="296.37,981.6869,290.37,999.6869,302.37,999.6869,296.37,981.6869" style="stroke:#181818;stroke-width:1;"/><text fill="#000000" font-family="sans-serif" font-size="13" lengthAdjust="spacing" textLength="52.0508" x="243.37" y="1315.3638">extends</text></g><!--link UC17 to GMN26--><g class="link" data-entity-1="UC17" data-entity-2="GMN26" data-source-line="42" data-uid="lnk28" id="link_UC17_GMN26"><path d="M849.8,834.2969 C980.52,834.2969 1215.37,834.2969 1215.37,834.2969 C1215.37,834.2969 1215.37,643.5069 1215.37,591.3469" fill="none" id="UC17-GMN26" style="stroke:#181818;stroke-width:1;stroke-dasharray:7.0,7.0;"/></g><!--link UC18 to GMN29--><g class="link" data-entity-1="UC18" data-entity-2="GMN29" data-source-line="43" data-uid="lnk31" id="link_UC18_GMN29"><path d="M855.45,759.2969 C887.81,759.2969 916.37,759.2969 916.37,759.2969 C916.37,759.2969 916.37,518.3269 916.37,518.3269 C916.37,518.3269 1102.44,518.3269 1180.94,518.3269" fill="none" id="UC18-GMN29" style="stroke:#181818;stroke-width:1;stroke-dasharray:7.0,7.0;"/></g><!--link A1 to UC1--><g class="link" data-entity-1="A1" data-entity-2="UC1" data-source-line="64" data-uid="lnk51" id="link_A1_UC1"><path d="M346.37,981.6569 C346.37,1035.3169 346.37,1126.2969 346.37,1126.2969 C346.37,1126.2969 531.3,1126.2969 655.11,1126.2969" fill="none" id="A1-to-UC1" style="stroke:#181818;stroke-width:1;"/><polygon fill="#181818" points="661.11,1126.2969,652.11,1122.2969,656.11,1126.2969,652.11,1130.2969,661.11,1126.2969" style="stroke:#181818;stroke-width:1;"/></g><!--link A1 to UC5--><g class="link" data-entity-1="A1" data-entity-2="UC5" data-source-line="65" data-uid="lnk52" id="link_A1_UC5"><path d="M321.37,904.8969 C321.37,830.3569 321.37,673.2969 321.37,673.2969 C321.37,673.2969 486.29,673.2969 615.82,673.2969" fill="none" id="A1-to-UC5" style="stroke:#181818;stroke-width:1;"/><polygon fill="#181818" points="621.82,673.2969,612.82,669.2969,616.82,673.2969,612.82,677.2969,621.82,673.2969" style="stroke:#181818;stroke-width:1;"/><text fill="#000000" font-family="sans-serif" font-size="13" lengthAdjust="spacing" textLength="121.5449" x="233.79" y="686.3638">&#171;Ricerca Limitata&#187;</text></g><!--link A2 to UC2--><g class="link" data-entity-1="A2" data-entity-2="UC2" data-source-line="68" data-uid="lnk53" id="link_A2_UC2"><path d="M497.37,981.7269 C497.37,1071.4269 497.37,1287.0369 497.37,1287.0369 C497.37,1287.0369 664.31,1287.0369 731.87,1287.0369" fill="none" id="A2-to-UC2" style="stroke:#181818;stroke-width:1;"/><polygon fill="#181818" points="737.87,1287.0369,728.87,1283.0369,732.87,1287.0369,728.87,1291.0369,737.87,1287.0369" style="stroke:#181818;stroke-width:1;"/></g><!--link A2 to UC3--><g class="link" data-entity-1="A2" data-entity-2="UC3" data-source-line="69" data-uid="lnk54" id="link_A2_UC3"><path d="M484.37,981.6569 C484.37,1083.1569 484.37,1351.0369 484.37,1351.0369 C484.37,1351.0369 651.89,1351.0369 725.77,1351.0369" fill="none" id="A2-to-UC3" style="stroke:#181818;stroke-width:1;"/><polygon fill="#181818" points="731.77,1351.0369,722.77,1347.0369,726.77,1351.0369,722.77,1355.0369,731.77,1351.0369" style="stroke:#181818;stroke-width:1;"/></g><!--link A2 to UC4--><g class="link" data-entity-1="A2" data-entity-2="UC4" data-source-line="70" data-uid="lnk55" id="link_A2_UC4"><path d="M470.37,981.6169 C470.37,1095.0869 470.37,1421.4469 470.37,1421.4469 C470.37,1421.4469 585.8,1421.4469 672.6,1421.4469" fill="none" id="A2-to-UC4" style="stroke:#181818;stroke-width:1;"/><polygon fill="#181818" points="678.6,1421.4469,669.6,1417.4469,673.6,1421.4469,669.6,1425.4469,678.6,1421.4469" style="stroke:#181818;stroke-width:1;"/></g><!--link A2 to UC5--><g class="link" data-entity-1="A2" data-entity-2="UC5" data-source-line="71" data-uid="lnk56" id="link_A2_UC5"><path d="M524.2,917.2969 C567.12,917.2969 635.37,917.2969 635.37,917.2969 C635.37,917.2969 635.37,743.0969 635.37,692.4169" fill="none" id="A2-to-UC5" style="stroke:#181818;stroke-width:1;"/><polygon fill="#181818" points="635.37,686.4169,631.37,695.4169,635.37,691.4169,639.37,695.4169,635.37,686.4169" style="stroke:#181818;stroke-width:1;"/></g><!--link A2 to UC6--><g class="link" data-entity-1="A2" data-entity-2="UC6" data-source-line="72" data-uid="lnk57" id="link_A2_UC6"><path d="M524.34,929.4469 C558.88,929.4469 607.95,929.4469 656.64,929.4469" fill="none" id="A2-to-UC6" style="stroke:#181818;stroke-width:1;"/><polygon fill="#181818" points="662.64,929.4469,653.64,925.4469,657.64,929.4469,653.64,933.4469,662.64,929.4469" style="stroke:#181818;stroke-width:1;"/></g><!--link A2 to UC8--><g class="link" data-entity-1="A2" data-entity-2="UC8" data-source-line="73" data-uid="lnk58" id="link_A2_UC8"><path d="M511.37,981.9069 C511.37,994.2669 511.37,1004.8169 511.37,1004.8169 C511.37,1004.8169 574.97,1004.8169 641.17,1004.8169" fill="none" id="A2-to-UC8" style="stroke:#181818;stroke-width:1;"/><polygon fill="#181818" points="647.17,1004.8169,638.17,1000.8169,642.17,1004.8169,638.17,1008.8169,647.17,1004.8169" style="stroke:#181818;stroke-width:1;"/></g><!--link A2 to UC17--><g class="link" data-entity-1="A2" data-entity-2="UC17" data-source-line="74" data-uid="lnk59" id="link_A2_UC17"><path d="M502.37,904.8669 C502.37,873.4869 502.37,834.2969 502.37,834.2969 C502.37,834.2969 596.52,834.2969 673,834.2969" fill="none" id="A2-to-UC17" style="stroke:#181818;stroke-width:1;"/><polygon fill="#181818" points="679,834.2969,670,830.2969,674,834.2969,670,838.2969,679,834.2969" style="stroke:#181818;stroke-width:1;"/></g><!--link A2 to UC18--><g class="link" data-entity-1="A2" data-entity-2="UC18" data-source-line="75" data-uid="lnk60" id="link_A2_UC18"><path d="M479.37,904.7269 C479.37,850.7669 479.37,759.2969 479.37,759.2969 C479.37,759.2969 584.03,759.2969 667.47,759.2969" fill="none" id="A2-to-UC18" style="stroke:#181818;stroke-width:1;"/><polygon fill="#181818" points="673.47,759.2969,664.47,755.2969,668.47,759.2969,664.47,763.2969,673.47,759.2969" style="stroke:#181818;stroke-width:1;"/></g><!--link A3 to UC2--><g class="link" data-entity-1="A3" data-entity-2="UC2" data-source-line="78" data-uid="lnk61" id="link_A3_UC2"><path d="M165.37,574.9269 C165.37,729.3969 165.37,1294.2969 165.37,1294.2969 C165.37,1294.2969 606.85,1294.2969 728.33,1294.2969" fill="none" id="A3-to-UC2" style="stroke:#181818;stroke-width:1;"/><polygon fill="#181818" points="734.33,1294.2969,725.33,1290.2969,729.33,1294.2969,725.33,1298.2969,734.33,1294.2969" style="stroke:#181818;stroke-width:1;"/></g><!--link A3 to UC3--><g class="link" data-entity-1="A3" data-entity-2="UC3" data-source-line="79" data-uid="lnk62" id="link_A3_UC3"><path d="M158.37,574.8369 C158.37,737.3569 158.37,1358.2969 158.37,1358.2969 C158.37,1358.2969 588.86,1358.2969 721,1358.2969" fill="none" id="A3-to-UC3" style="stroke:#181818;stroke-width:1;"/><polygon fill="#181818" points="727,1358.2969,718,1354.2969,722,1358.2969,718,1362.2969,727,1358.2969" style="stroke:#181818;stroke-width:1;"/></g><!--link A3 to UC9--><g class="link" data-entity-1="A3" data-entity-2="UC9" data-source-line="80" data-uid="lnk63" id="link_A3_UC9"><path d="M172.37,574.6869 C172.37,718.1169 172.37,1214.2969 172.37,1214.2969 C172.37,1214.2969 443.05,1214.2969 618.14,1214.2969" fill="none" id="A3-to-UC9" style="stroke:#181818;stroke-width:1;"/><polygon fill="#181818" points="624.14,1214.2969,615.14,1210.2969,619.14,1214.2969,615.14,1218.2969,624.14,1214.2969" style="stroke:#181818;stroke-width:1;"/></g><!--link A3 to UC9b--><g class="link" data-entity-1="A3" data-entity-2="UC9b" data-source-line="81" data-uid="lnk64" id="link_A3_UC9b"><path d="M66.37,497.7969 C66.37,398.6569 66.37,142.2969 66.37,142.2969 C66.37,142.2969 481.14,142.2969 669.33,142.2969" fill="none" id="A3-to-UC9b" style="stroke:#181818;stroke-width:1;"/><polygon fill="#181818" points="675.33,142.2969,666.33,138.2969,670.33,142.2969,666.33,146.2969,675.33,142.2969" style="stroke:#181818;stroke-width:1;"/></g><!--link A3 to UC10--><g class="link" data-entity-1="A3" data-entity-2="UC10" data-source-line="82" data-uid="lnk65" id="link_A3_UC10"><path d="M126.37,497.6669 C126.37,414.5569 126.37,226.2969 126.37,226.2969 C126.37,226.2969 440.67,226.2969 627.4,226.2969" fill="none" id="A3-to-UC10" style="stroke:#181818;stroke-width:1;"/><polygon fill="#181818" points="633.4,226.2969,624.4,222.2969,628.4,226.2969,624.4,230.2969,633.4,226.2969" style="stroke:#181818;stroke-width:1;"/></g><!--link A3 to UC10b--><g class="link" data-entity-1="A3" data-entity-2="UC10b" data-source-line="83" data-uid="lnk66" id="link_A3_UC10b"><path d="M186.08,500.6769 C329.76,500.6769 594.37,500.6769 594.37,500.6769 C594.37,500.6769 594.37,387.8969 594.37,347.5369" fill="none" id="A3-to-UC10b" style="stroke:#181818;stroke-width:1;"/><polygon fill="#181818" points="594.37,341.5369,590.37,350.5369,594.37,346.5369,598.37,350.5369,594.37,341.5369" style="stroke:#181818;stroke-width:1;"/></g><!--link A3 to UC11--><g class="link" data-entity-1="A3" data-entity-2="UC11" data-source-line="84" data-uid="lnk67" id="link_A3_UC11"><path d="M185.95,503.2069 C334.24,503.2069 613.37,503.2069 613.37,503.2069 C613.37,503.2069 613.37,473.5069 613.37,454.2569" fill="none" id="A3-to-UC11" style="stroke:#181818;stroke-width:1;"/><polygon fill="#181818" points="613.37,448.2569,609.37,457.2569,613.37,453.2569,617.37,457.2569,613.37,448.2569" style="stroke:#181818;stroke-width:1;"/></g><!--link A3 to UC12--><g class="link" data-entity-1="A3" data-entity-2="UC12" data-source-line="85" data-uid="lnk68" id="link_A3_UC12"><path d="M185.97,536.2969 C298.35,536.2969 485.65,536.2969 617.62,536.2969" fill="none" id="A3-to-UC12" style="stroke:#181818;stroke-width:1;"/><polygon fill="#181818" points="623.62,536.2969,614.62,532.2969,618.62,536.2969,614.62,540.2969,623.62,536.2969" style="stroke:#181818;stroke-width:1;"/></g><!--link A4 to UC2--><g class="link" data-entity-1="A4" data-entity-2="UC2" data-source-line="88" data-uid="lnk69" id="link_A4_UC2"><path d="M69.37,1469.8969 C69.37,1410.1069 69.37,1301.5569 69.37,1301.5569 C69.37,1301.5569 605.09,1301.5569 732.05,1301.5569" fill="none" id="A4-to-UC2" style="stroke:#181818;stroke-width:1;"/><polygon fill="#181818" points="738.05,1301.5569,729.05,1297.5569,733.05,1301.5569,729.05,1305.5569,738.05,1301.5569" style="stroke:#181818;stroke-width:1;"/></g><!--link A4 to UC3--><g class="link" data-entity-1="A4" data-entity-2="UC3" data-source-line="89" data-uid="lnk70" id="link_A4_UC3"><path d="M96.37,1469.6669 C96.37,1427.3969 96.37,1365.5569 96.37,1365.5569 C96.37,1365.5569 591.65,1365.5569 725.78,1365.5569" fill="none" id="A4-to-UC3" style="stroke:#181818;stroke-width:1;"/><polygon fill="#181818" points="731.78,1365.5569,722.78,1361.5569,726.78,1365.5569,722.78,1369.5569,731.78,1365.5569" style="stroke:#181818;stroke-width:1;"/></g><!--link A4 to UC4--><g class="link" data-entity-1="A4" data-entity-2="UC4" data-source-line="90" data-uid="lnk71" id="link_A4_UC4"><path d="M123.37,1470.0069 C123.37,1452.3069 123.37,1435.1469 123.37,1435.1469 C123.37,1435.1469 497.49,1435.1469 672.33,1435.1469" fill="none" id="A4-to-UC4" style="stroke:#181818;stroke-width:1;"/><polygon fill="#181818" points="678.33,1435.1469,669.33,1431.1469,673.33,1435.1469,669.33,1439.1469,678.33,1435.1469" style="stroke:#181818;stroke-width:1;"/></g><!--link A4 to UC13--><g class="link" data-entity-1="A4" data-entity-2="UC13" data-source-line="91" data-uid="lnk72" id="link_A4_UC13"><path d="M150.8,1505.2969 C264.9,1505.2969 522.5,1505.2969 664.23,1505.2969" fill="none" id="A4-to-UC13" style="stroke:#181818;stroke-width:1;"/><polygon fill="#181818" points="670.23,1505.2969,661.23,1501.2969,665.23,1505.2969,661.23,1509.2969,670.23,1505.2969" style="stroke:#181818;stroke-width:1;"/></g><!--link A4 to UC14--><g class="link" data-entity-1="A4" data-entity-2="UC14" data-source-line="92" data-uid="lnk73" id="link_A4_UC14"><path d="M150.58,1536.4469 C290.75,1536.4469 651.37,1536.4469 651.37,1536.4469 C651.37,1536.4469 651.37,1582.1469 651.37,1608.7969" fill="none" id="A4-to-UC14" style="stroke:#181818;stroke-width:1;"/><polygon fill="#181818" points="651.37,1614.7969,655.37,1605.7969,651.37,1609.7969,647.37,1605.7969,651.37,1614.7969" style="stroke:#181818;stroke-width:1;"/></g><!--link A4 to UC15--><g class="link" data-entity-1="A4" data-entity-2="UC15" data-source-line="93" data-uid="lnk74" id="link_A4_UC15"><path d="M114.37,1546.7369 C114.37,1608.5769 114.37,1723.2969 114.37,1723.2969 C114.37,1723.2969 432.44,1723.2969 622.96,1723.2969" fill="none" id="A4-to-UC15" style="stroke:#181818;stroke-width:1;"/><polygon fill="#181818" points="628.96,1723.2969,619.96,1719.2969,623.96,1723.2969,619.96,1727.2969,628.96,1723.2969" style="stroke:#181818;stroke-width:1;"/></g><!--link A4 to UC16--><g class="link" data-entity-1="A4" data-entity-2="UC16" data-source-line="94" data-uid="lnk75" id="link_A4_UC16"><path d="M78.37,1546.9269 C78.37,1628.9969 78.37,1813.2969 78.37,1813.2969 C78.37,1813.2969 445.34,1813.2969 641.29,1813.2969" fill="none" id="A4-to-UC16" style="stroke:#181818;stroke-width:1;"/><polygon fill="#181818" points="647.29,1813.2969,638.29,1809.2969,642.29,1813.2969,638.29,1817.2969,647.29,1813.2969" style="stroke:#181818;stroke-width:1;"/></g><!--link UC6 to UC7--><g class="link" data-entity-1="UC6" data-entity-2="UC7" data-source-line="97" data-uid="lnk76" id="link_UC6_UC7"><path d="M884.24,915.2969 C1000.14,915.2969 1158.37,915.2969 1158.37,915.2969 C1158.37,915.2969 1158.37,929.9669 1158.37,944.1769" fill="none" id="UC6-to-UC7" style="stroke:#181818;stroke-width:1;stroke-dasharray:7.0,7.0;"/><polygon fill="#181818" points="1158.37,950.1769,1162.37,941.1769,1158.37,945.1769,1154.37,941.1769,1158.37,950.1769" style="stroke:#181818;stroke-width:1;"/><text fill="#000000" font-family="sans-serif" font-size="13" lengthAdjust="spacing" textLength="69.7798" x="968.75" y="928.3638">&#171;includes&#187;</text></g><!--link UC7 to PG_Ext--><g class="link" data-entity-1="UC7" data-entity-2="PG_Ext" data-source-line="98" data-uid="lnk77" id="link_UC7_PG_Ext"><path d="M1215.37,982.1469 C1215.37,1028.1969 1215.37,1142.6369 1215.37,1142.6369 C1215.37,1142.6369 1378.48,1142.6369 1479.22,1142.6369" fill="none" id="UC7-to-PG_Ext" style="stroke:#181818;stroke-width:1;"/><polygon fill="#181818" points="1485.22,1142.6369,1476.22,1138.6369,1480.22,1142.6369,1476.22,1146.6369,1485.22,1142.6369" style="stroke:#181818;stroke-width:1;"/><text fill="#000000" font-family="sans-serif" font-size="13" lengthAdjust="spacing" textLength="57.2749" x="1212.05" y="1155.7038">interacts</text></g><!--link UC15 to PG_Ext--><g class="link" data-entity-1="UC15" data-entity-2="PG_Ext" data-source-line="99" data-uid="lnk78" id="link_UC15_PG_Ext"><path d="M899.75,1723.2969 C1126.67,1723.2969 1559.37,1723.2969 1559.37,1723.2969 C1559.37,1723.2969 1559.37,1366.1169 1559.37,1234.8869" fill="none" id="UC15-to-PG_Ext" style="stroke:#181818;stroke-width:1;"/><polygon fill="#181818" points="1559.37,1228.8869,1555.37,1237.8869,1559.37,1233.8869,1563.37,1237.8869,1559.37,1228.8869" style="stroke:#181818;stroke-width:1;"/><text fill="#000000" font-family="sans-serif" font-size="13" lengthAdjust="spacing" textLength="57.2749" x="1418.76" y="1736.3638">interacts</text></g><!--SRC=[XLPVRziu37_tfo3wqXPOiZb_khGe2WHfCGpOq22vtilXS51inYNcI3bBxgtTxRlSTxalTfGisKxjvlBGqgBu8qN-HCgGoH7Mf0tk1AptgZ3tJwNyiqGOm2s9h10xLgH8i12Q83rzq2gAJk7pRg-q4I-a9AyIQ4CvHleRoRrW6zYBv9l8S6sU6R_0n0YP7Mp8IQ9vtYEmoqSLvRWrO1GKb3qQ1hGcZ6rTtUAM95bFo85aEO4mHXK4PwOqXhz0irwRGfn78c4Dd3mOb0P1Aic-CwSpwWI4XdaSzimt6oNhvL5ONeeSxNuukoyomNvVt27nlDethirtE- -LFx5IJeBoap3ubtY6fSZ4ZaEfd2m__N7ttS3rTPtmE_vNI0KtD_QWIwNTCIiJGBtFAI6MKippqxBlJAt3H_CO1hyzKfgY_7rmOu_4c2lCco9bAB4GUNqciEUiaXdDHp0O_CrcCLm1VcTdgOxcuxx5ISyYkmg7idHn0TLbXvC-Xft0ZmZuvwd2MMCp5zOyILGf3I0i2xMbtASlzWRsLsfCX6QZLSW5GQ9sRDikwyCYxbfyKHb9hnxrgbLfl7xSrRieTK8XDgZ8vWqcHmnkRP27h890Dsz-USJS-M7MprDctdauNnNXJ_VtC9qhIh18XCiYIcMynpdVcISo__x3I3vN5TXor9VVXSDO8zF7nugCk4Qj7QjgD1_Fj8jmjzsYCQKu3CCZXBnTTEtivJcmyLi_ThV-IhgiU0rho-P4jGt96ywwXhUaKtArxBY9Z_fv_w05B0fEIqErMQiKZ8Q-cQcjGxlY_1MyEEhNpmxrRzoCkZiXt7DQxVwpUesfDVIb7FULicPIkverypP732fVeisTFHOM1siYVZXYls1VCXK5gOOv3Y40f_GAR7EqoEtYWkNvKsapqOafFehoMV8I3xMlmfIkWNG1HaTAUhcvggwqa7PERYsFa7ki2X-sRIDeJlQml-OVhbuDDsxpocVapD1UlODzWIyl2ZOS-pj0ampFmGPPIc61yIrW3et9AHfSj7CYK_m_vTdqNXLS30jkqxWXdgaLQd0_x25XC_7y3VOzlTsGbfEZnFk5pvHp-srteJNF2AP66bBUqq6_SfdvMejwdjf4h-W92rrz1jlf_xG6hXP7aZpQ5hP2Euk2vOKlz4yxoHPAoa3JtgU4cxKyO-rygSKfZyFhwz1rlz2Es9-eHdiRCNJTQkJUk2bKY-D6d3JYj14l6d7MYDoi6ddsskERRvfgmFiGnaq8GRniYPj6vhlUajkAk2MFEWS_U39LxmZlUzBudZJ73sBSMexRwzEMVD5vxf1Cyj8D6IutSHK3SnCkfdRiPIAv9nX5d5aO3YtIHrT7PymF6QwVNR9E_FljocCbHaSsXZTq_m40]--></g></svg>