<?xml version="1.0" encoding="UTF-8" standalone="no"?>
<svg width="800" height="600"
    xmlns="http://www.w3.org/2000/svg">
    <!-- Arrow markers -->
    <defs>
        <marker id="arrowhead" markerWidth="10" markerHeight="7" refX="9" refY="3.5" orient="auto">
            <path d="M 0 0 L 10 3.5 L 0 7" fill="none" stroke="black" stroke-width="1"/>
        </marker>
    </defs>
    <!-- Title -->
    <text x="320" y="40" font-family="Arial" font-size="20" font-weight="bold">Sistema di Prenotazione Tavoli</text>

    <!-- Primary Actor on left -->
    <g transform="translate(100,250)">
        <!-- Stick figure -->
        <circle cx="20" cy="10" r="10" fill="none" stroke="black" stroke-width="2"/>
        <line x1="20" y1="20" x2="20" y2="40" stroke="black" stroke-width="2"/>
        <line x1="0" y1="30" x2="40" y2="30" stroke="black" stroke-width="2"/>
        <line x1="20" y1="40" x2="10" y2="60" stroke="black" stroke-width="2"/>
        <line x1="20" y1="40" x2="30" y2="60" stroke="black" stroke-width="2"/>
        <!-- Actor label -->
        <text x="0" y="80" font-family="Arial" font-size="14" text-anchor="middle">Utente App</text>
    </g>

    <!-- System Boundary Box -->
    <rect x="180" y="80" width="440" height="440" fill="none" stroke="black" stroke-width="2" stroke-dasharray="5,5"/>
    <text x="190" y="100" font-family="Arial" font-size="14">Sistema di Prenotazione</text>

    <!-- Main Use Case: Prenotare Tavolo -->
    <ellipse cx="400" cy="200" rx="90" ry="35" fill="white" stroke="black" stroke-width="2"/>
    <text x="400" y="205" font-family="Arial" font-size="14" text-anchor="middle">Prenotare Tavolo</text>

    <!-- Included Use Case: Verifica Disponibilità -->
    <ellipse cx="400" cy="320" rx="90" ry="35" fill="white" stroke="black" stroke-width="2"/>
    <text x="400" y="325" font-family="Arial" font-size="14" text-anchor="middle">Verifica Disponibilità</text>

    <!-- Extended Use Case: Lista d'Attesa -->
    <ellipse cx="250" cy="400" rx="90" ry="35" fill="white" stroke="black" stroke-width="2"/>
    <text x="250" y="405" font-family="Arial" font-size="14" text-anchor="middle">Lista d'Attesa</text>

    <!-- Extended Use Case: Effettua Pagamento -->
    <ellipse cx="550" cy="400" rx="90" ry="35" fill="white" stroke="black" stroke-width="2"/>
    <text x="550" y="405" font-family="Arial" font-size="14" text-anchor="middle">Effettua Pagamento</text>

    <!-- Secondary Actors on right -->
    <g transform="translate(700,200)">
        <!-- Sistema di Notifiche Push -->
        <rect x="0" y="0" width="60" height="40" fill="white" stroke="black" stroke-width="2"/>
        <text x="30" y="60" font-family="Arial" font-size="12" text-anchor="middle">Sistema di</text>
        <text x="30" y="75" font-family="Arial" font-size="12" text-anchor="middle">Notifiche Push</text>
    </g>

    <g transform="translate(700,350)">
        <!-- Sistema di Pagamento -->
        <rect x="0" y="0" width="60" height="40" fill="white" stroke="black" stroke-width="2"/>
        <text x="30" y="60" font-family="Arial" font-size="12" text-anchor="middle">Sistema di</text>
        <text x="30" y="75" font-family="Arial" font-size="12" text-anchor="middle">Pagamento</text>
    </g>

    <!-- Relationships -->
    <!-- Actor to main use case -->
    <line x1="140" y1="250" x2="320" y2="200" stroke="black" stroke-width="2"/>

    <!-- Include relationship -->
    <line x1="400" y1="235" x2="400" y2="285" stroke="black" stroke-width="2" stroke-dasharray="5,5" marker-end="url(#arrowhead)"/>
    <text x="420" y="260" font-family="Arial" font-size="12">«include»</text>

    <!-- Extend relationships -->
    <line x1="340" y1="400" x2="360" y2="350" stroke="black" stroke-width="2" stroke-dasharray="5,5" marker-end="url(#arrowhead)"/>
    <text x="320" y="370" font-family="Arial" font-size="12">«extend»</text>

    <line x1="500" y1="370" x2="440" y2="350" stroke="black" stroke-width="2" stroke-dasharray="5,5" marker-end="url(#arrowhead)"/>
    <text x="470" y="350" font-family="Arial" font-size="12">«extend»</text>

    <!-- Secondary actor relationships -->
    <line x1="490" y1="200" x2="700" y2="220" stroke="black" stroke-width="2"/>
    <line x1="640" y1="400" x2="700" y2="370" stroke="black" stroke-width="2"/>
</svg>