<?xml version="1.0" encoding="UTF-8" standalone="no"?>
<svg width="1200" height="1000"
    xmlns="http://www.w3.org/2000/svg">
    <!-- Arrow markers -->
    <defs>
        <marker id="arrowhead" markerWidth="10" markerHeight="7" refX="9" refY="3.5" orient="auto">
            <path d="M 0 0 L 10 3.5 L 0 7" fill="none" stroke="black" stroke-width="1"/>
        </marker>
    </defs>
    <!-- Actors -->
    <!-- Cliente -->
    <g transform="translate(50,400)">
        <circle cx="15" cy="15" r="15" fill="none" stroke="black"/>
        <line x1="15" y1="30" x2="15" y2="70" stroke="black"/>
        <line x1="0" y1="45" x2="30" y2="45" stroke="black"/>
        <line x1="15" y1="70" x2="0" y2="100" stroke="black"/>
        <line x1="15" y1="70" x2="30" y2="100" stroke="black"/>
        <text x="0" y="120" text-anchor="middle">Cliente</text>
    </g>

    <!-- Ristoratore -->
    <g transform="translate(1100,400)">
        <circle cx="15" cy="15" r="15" fill="none" stroke="black"/>
        <line x1="15" y1="30" x2="15" y2="70" stroke="black"/>
        <line x1="0" y1="45" x2="30" y2="45" stroke="black"/>
        <line x1="15" y1="70" x2="0" y2="100" stroke="black"/>
        <line x1="15" y1="70" x2="30" y2="100" stroke="black"/>
        <text x="15" y="120" text-anchor="middle">Ristoratore</text>
    </g>

    <!-- System Boundary -->
    <rect x="150" y="50" width="900" height="900" fill="none" stroke="black" stroke-dasharray="5,5"/>
    <text x="160" y="80" font-size="16">Sistema Prenotazioni</text>

    <!-- Use Cases -->
    <!-- UC1 - Cerca Ristorante -->
    <ellipse cx="300" cy="200" rx="80" ry="35" fill="white" stroke="black"/>
    <text x="300" y="205" text-anchor="middle">Cerca Ristorante</text>

    <!-- UC2 - Effettua Prenotazione -->
    <ellipse cx="600" cy="300" rx="80" ry="35" fill="white" stroke="black"/>
    <text x="600" y="305" text-anchor="middle">Effettua Prenotazione</text>

    <!-- UC3 - Gestisce Disponibilità -->
    <ellipse cx="900" cy="200" rx="80" ry="35" fill="white" stroke="black"/>
    <text x="900" y="205" text-anchor="middle">Gestisce Disponibilità</text>

    <!-- UC4 - Autentica Utente -->
    <ellipse cx="300" cy="500" rx="80" ry="35" fill="white" stroke="black"/>
    <text x="300" y="505" text-anchor="middle">Autentica Utente</text>

    <!-- UC5 - Verifica Disponibilità -->
    <ellipse cx="700" cy="500" rx="80" ry="35" fill="white" stroke="black"/>
    <text x="700" y="505" text-anchor="middle">Verifica Disponibilità</text>

    <!-- UC6 - Invia Conferma -->
    <ellipse cx="900" cy="500" rx="80" ry="35" fill="white" stroke="black"/>
    <text x="900" y="505" text-anchor="middle">Invia Conferma</text>

    <!-- UC7 - Gestisce Pagamento -->
    <ellipse cx="500" cy="700" rx="80" ry="35" fill="white" stroke="black"/>
    <text x="500" y="705" text-anchor="middle">Gestisce Pagamento</text>

    <!-- Relationships -->
    <!-- Cliente - UC1 -->
    <line x1="80" y1="415" x2="230" y2="215" stroke="black"/>

    <!-- Cliente - UC2 -->
    <line x1="80" y1="415" x2="530" y2="310" stroke="black"/>

    <!-- Ristoratore - UC3 -->
    <line x1="1100" y1="415" x2="970" y2="215" stroke="black"/>

    <!-- Include relationships (dashed lines with open arrow) -->
    <!-- UC2 -> UC4 -->
    <line x1="550" y1="330" x2="370" y2="475" stroke="black" stroke-dasharray="5,5" marker-end="url(#arrowhead)"/>
    <text x="420" y="420" style="font-size: 14px;">«include»</text>

    <!-- UC2 -> UC5 -->
    <line x1="620" y1="335" x2="680" y2="465" stroke="black" stroke-dasharray="5,5" marker-end="url(#arrowhead)"/>
    <text x="650" y="400" style="font-size: 14px;">«include»</text>

    <!-- UC2 -> UC6 -->
    <line x1="650" y1="330" x2="830" y2="475" stroke="black" stroke-dasharray="5,5" marker-end="url(#arrowhead)"/>
    <text x="780" y="420" style="font-size: 14px;">«include»</text>

    <!-- Extend relationship (dashed line with open arrow) -->
    <!-- UC7 -> UC2 -->
    <line x1="530" y1="665" x2="580" y2="335" stroke="black" stroke-dasharray="5,5" marker-end="url(#arrowhead)"/>
    <text x="510" y="500" style="font-size: 14px;">«extend»</text>
</svg>
