<svg xmlns="http://www.w3.org/2000/svg" xmlns:xlink="http://www.w3.org/1999/xlink" contentStyleType="text/css" data-diagram-type="DESCRIPTION" height="1197px" preserveAspectRatio="none" style="width:902px;height:1197px;background:#FFFFFF;" version="1.1" viewBox="0 0 902 1197" width="902px" zoomAndPan="magnify"><title>Diagramma dei Casi d'Uso - VerifAI News</title><defs/><g><g class="title" data-source-line="10"><text fill="#000000" font-family="Verdana" font-size="22" font-weight="bold" lengthAdjust="spacing" textLength="508.1377" x="192.8462" y="35.4209">Diagramma dei Casi d'Uso - VerifAI News</text></g><!--cluster Sistema VerifAI News--><g class="cluster" data-entity="Sistema VerifAI News" data-source-line="27" data-uid="ent0009" id="cluster_Sistema VerifAI News"><rect fill="#FFFFFF" height="805" rx="2.5" ry="2.5" style="stroke:#000000;stroke-width:1;" width="613.78" x="283.05" y="223.7094"/><text fill="#000000" font-family="Verdana" font-size="14" font-weight="bold" lengthAdjust="spacing" textLength="169.832" x="505.024" y="238.7045">Sistema VerifAI News</text></g><!--entity UC1--><g class="entity" data-entity="UC1" data-source-line="30" data-uid="ent0010" id="entity_UC1"><ellipse cx="419.067" cy="912.7108" fill="#ADD8E6" rx="90.057" ry="20.4114" style="stroke:#00008B;stroke-width:1;"/><text fill="#000000" font-family="Verdana" font-size="14" lengthAdjust="spacing" textLength="153.8701" x="342.132" y="917.3592">UC1: Login al Sistema</text></g><!--entity UC2--><g class="entity" data-entity="UC2" data-source-line="31" data-uid="ent0011" id="entity_UC2"><ellipse cx="419.0694" cy="990.7053" fill="#ADD8E6" rx="98.5794" ry="22.1159" style="stroke:#00008B;stroke-width:1;"/><text fill="#000000" font-family="Verdana" font-size="14" lengthAdjust="spacing" textLength="172.9219" x="332.6085" y="995.3537">UC2: Logout dal Sistema</text></g><!--entity UC3--><g class="entity" data-entity="UC3" data-source-line="34" data-uid="ent0012" id="entity_UC3"><ellipse cx="419.0715" cy="283.7128" fill="#ADD8E6" rx="114.8015" ry="25.4734" style="stroke:#00008B;stroke-width:1;"/><text fill="#000000" font-family="Verdana" font-size="14" lengthAdjust="spacing" textLength="144.8672" x="346.6379" y="279.3906">UC3: Visualizza Lista</text><text fill="#000000" font-family="Verdana" font-size="14" lengthAdjust="spacing" textLength="162.1484" x="337.9973" y="295.6875">Notizie Non Etichettate</text></g><!--entity UC4--><g class="entity" data-entity="UC4" data-source-line="35" data-uid="ent0013" id="entity_UC4"><ellipse cx="772.4562" cy="283.7066" fill="#ADD8E6" rx="107.0362" ry="23.8072" style="stroke:#00008B;stroke-width:1;"/><text fill="#000000" font-family="Verdana" font-size="14" lengthAdjust="spacing" textLength="167.4326" x="688.7399" y="284.1502">UC4: Visualizza Dettagli</text><text fill="#000000" font-family="Verdana" font-size="14" lengthAdjust="spacing" textLength="48.2344" x="748.339" y="300.4471">Notizia</text></g><!--entity UC5--><g class="entity" data-entity="UC5" data-source-line="36" data-uid="ent0014" id="entity_UC5"><ellipse cx="419.0734" cy="369.7121" fill="#ADD8E6" rx="116.0634" ry="25.6127" style="stroke:#00008B;stroke-width:1;"/><text fill="#000000" font-family="Verdana" font-size="14" lengthAdjust="spacing" textLength="135.7822" x="351.1823" y="364.4268">UC5: Compila Form</text><text fill="#000000" font-family="Verdana" font-size="14" lengthAdjust="spacing" textLength="173.4209" x="332.363" y="380.7236">Etichettatura Provvisoria</text></g><!--entity UC6--><g class="entity" data-entity="UC6" data-source-line="39" data-uid="ent0015" id="entity_UC6"><ellipse cx="419.0727" cy="462.7051" fill="#ADD8E6" rx="108.1327" ry="32.5457" style="stroke:#00008B;stroke-width:1;"/><text fill="#000000" font-family="Verdana" font-size="14" lengthAdjust="spacing" textLength="144.8672" x="346.6391" y="454.0876">UC6: Visualizza Lista</text><text fill="#000000" font-family="Verdana" font-size="14" lengthAdjust="spacing" textLength="173.9678" x="332.0888" y="470.3845">Notizie con Etichettatura</text><text fill="#000000" font-family="Verdana" font-size="14" lengthAdjust="spacing" textLength="77.3076" x="380.4189" y="486.6814">Provvisoria</text></g><!--entity UC7--><g class="entity" data-entity="UC7" data-source-line="40" data-uid="ent0016" id="entity_UC7"><ellipse cx="772.4595" cy="462.7075" fill="#ADD8E6" rx="108.3695" ry="33.7681" style="stroke:#00008B;stroke-width:1;"/><text fill="#000000" font-family="Verdana" font-size="14" lengthAdjust="spacing" textLength="167.4326" x="688.7432" y="456.8201">UC7: Visualizza Dettagli</text><text fill="#000000" font-family="Verdana" font-size="14" lengthAdjust="spacing" textLength="157.4111" x="693.754" y="473.1169">Notizia e Etichettatura</text><text fill="#000000" font-family="Verdana" font-size="14" lengthAdjust="spacing" textLength="40.0859" x="752.4166" y="489.4138">Junior</text></g><!--entity UC8--><g class="entity" data-entity="UC8" data-source-line="41" data-uid="ent0017" id="entity_UC8"><ellipse cx="419.0684" cy="564.7121" fill="#ADD8E6" rx="113.0984" ry="34.6527" style="stroke:#00008B;stroke-width:1;"/><text fill="#000000" font-family="Verdana" font-size="14" lengthAdjust="spacing" textLength="170.0576" x="334.0396" y="557.4012">UC8: Conferma/Modifica</text><text fill="#000000" font-family="Verdana" font-size="14" lengthAdjust="spacing" textLength="91.6631" x="373.2368" y="573.6981">Etichettatura</text><text fill="#000000" font-family="Verdana" font-size="14" lengthAdjust="spacing" textLength="91.6152" x="373.2608" y="589.995">(Validazione)</text></g><!--entity UC9--><g class="entity" data-entity="UC9" data-source-line="44" data-uid="ent0018" id="entity_UC9"><ellipse cx="419.07" cy="832.7074" fill="#ADD8E6" rx="110.34" ry="24.468" style="stroke:#00008B;stroke-width:1;"/><text fill="#000000" font-family="Verdana" font-size="14" lengthAdjust="spacing" textLength="180.0791" x="329.0304" y="833.8171">UC9: Gestione Anagrafica</text><text fill="#000000" font-family="Verdana" font-size="14" lengthAdjust="spacing" textLength="48.7744" x="394.6828" y="850.114">Esperti</text></g><!--entity UC10--><g class="entity" data-entity="UC10" data-source-line="45" data-uid="ent0019" id="entity_UC10"><ellipse cx="419.0704" cy="747.7133" fill="#ADD8E6" rx="104.7104" ry="25.5939" style="stroke:#00008B;stroke-width:1;"/><text fill="#000000" font-family="Verdana" font-size="14" lengthAdjust="spacing" textLength="146.7266" x="345.7071" y="744.861">UC10: Gestione Liste</text><text fill="#000000" font-family="Verdana" font-size="14" lengthAdjust="spacing" textLength="134.5586" x="351.7911" y="761.1579">Topic e Motivazioni</text></g><!--entity UC11--><g class="entity" data-entity="UC11" data-source-line="46" data-uid="ent0020" id="entity_UC11"><ellipse cx="419.0701" cy="660.7134" fill="#ADD8E6" rx="120.0201" ry="26.404" style="stroke:#00008B;stroke-width:1;"/><text fill="#000000" font-family="Verdana" font-size="14" lengthAdjust="spacing" textLength="184.3926" x="326.8738" y="659.097">UC11: Accesso Dashboard</text><text fill="#000000" font-family="Verdana" font-size="14" lengthAdjust="spacing" textLength="147.3828" x="345.3787" y="675.3939">Analisi e Reportistica</text></g><!--entity Esperto--><g class="entity" data-entity="Esperto" data-source-line="16" data-uid="ent0002" id="entity_Esperto"><ellipse cx="38" cy="725.5594" fill="#FFFFFF" rx="16" ry="16" style="stroke:#000000;stroke-width:1;"/><path d="M38,745.5594 C42,745.5594 45,745.5594 49,741.5594 C57,741.5594 65,749.5594 65,757.5594 L65,761.5594 C65,765.5594 61,769.5594 57,769.5594 L19,769.5594 C15,769.5594 11,765.5594 11,761.5594 L11,757.5594 C11,749.5594 19,741.5594 27,741.5594 C31,745.5594 34,745.5594 38,745.5594" fill="#FFFFFF" style="stroke:#000000;stroke-width:1;"/><text fill="#000000" font-family="Verdana" font-size="14" lengthAdjust="spacing" textLength="53.4502" x="11.2749" y="783.5545">Esperto</text></g><!--entity EJ--><g class="entity" data-entity="EJ" data-source-line="17" data-uid="ent0003" id="entity_EJ"><ellipse cx="181.5232" cy="82.5594" fill="#FFFFFF" rx="16" ry="16" style="stroke:#000000;stroke-width:1;"/><path d="M181.5232,102.5594 C185.5232,102.5594 188.5232,102.5594 192.5232,98.5594 C200.5232,98.5594 208.5232,106.5594 208.5232,114.5594 L208.5232,118.5594 C208.5232,122.5594 204.5232,126.5594 200.5232,126.5594 L162.5232,126.5594 C158.5232,126.5594 154.5232,122.5594 154.5232,118.5594 L154.5232,114.5594 C154.5232,106.5594 162.5232,98.5594 170.5232,98.5594 C174.5232,102.5594 177.5232,102.5594 181.5232,102.5594" fill="#FFFFFF" style="stroke:#000000;stroke-width:1;"/><text fill="#000000" font-family="Verdana" font-size="14" lengthAdjust="spacing" textLength="97.9863" x="132.53" y="140.5545">Esperto Junior</text></g><!--entity ES--><g class="entity" data-entity="ES" data-source-line="18" data-uid="ent0004" id="entity_ES"><ellipse cx="181.5222" cy="506.5594" fill="#FFFFFF" rx="16" ry="16" style="stroke:#000000;stroke-width:1;"/><path d="M181.5222,526.5594 C185.5222,526.5594 188.5222,526.5594 192.5222,522.5594 C200.5222,522.5594 208.5222,530.5594 208.5222,538.5594 L208.5222,542.5594 C208.5222,546.5594 204.5222,550.5594 200.5222,550.5594 L162.5222,550.5594 C158.5222,550.5594 154.5222,546.5594 154.5222,542.5594 L154.5222,538.5594 C154.5222,530.5594 162.5222,522.5594 170.5222,522.5594 C174.5222,526.5594 177.5222,526.5594 181.5222,526.5594" fill="#FFFFFF" style="stroke:#000000;stroke-width:1;"/><text fill="#000000" font-family="Verdana" font-size="14" lengthAdjust="spacing" textLength="102.4844" x="130.28" y="564.5545">Esperto Senior</text></g><!--entity Admin--><g class="entity" data-entity="Admin" data-source-line="19" data-uid="ent0005" id="entity_Admin"><ellipse cx="181.5234" cy="725.5594" fill="#FFFFFF" rx="16" ry="16" style="stroke:#000000;stroke-width:1;"/><path d="M181.5234,745.5594 C185.5234,745.5594 188.5234,745.5594 192.5234,741.5594 C200.5234,741.5594 208.5234,749.5594 208.5234,757.5594 L208.5234,761.5594 C208.5234,765.5594 204.5234,769.5594 200.5234,769.5594 L162.5234,769.5594 C158.5234,769.5594 154.5234,765.5594 154.5234,761.5594 L154.5234,757.5594 C154.5234,749.5594 162.5234,741.5594 170.5234,741.5594 C174.5234,745.5594 177.5234,745.5594 181.5234,745.5594" fill="#FFFFFF" style="stroke:#000000;stroke-width:1;"/><text fill="#000000" font-family="Verdana" font-size="14" lengthAdjust="spacing" textLength="109.0469" x="127" y="783.5545">Amministratore</text></g><g class="entity" data-entity="GMN36" data-source-line="76" data-uid="ent0037" id="entity_GMN36"><path d="M675.46,1045.0094 L675.46,1100.4078 L869.4527,1100.4078 L869.4527,1055.0094 L859.4527,1045.0094 L675.46,1045.0094" fill="#FFFFFF" style="stroke:#000000;stroke-width:1;"/><path d="M859.4527,1045.0094 L859.4527,1055.0094 L869.4527,1055.0094 L859.4527,1045.0094" fill="#FFFFFF" style="stroke:#000000;stroke-width:1;"/><text fill="#000000" font-family="Verdana" font-size="13" lengthAdjust="spacing" textLength="154.3433" x="681.46" y="1062.0763">Cambia stato notizia da</text><text fill="#000000" font-family="Verdana" font-size="13" lengthAdjust="spacing" textLength="125.6392" x="681.46" y="1077.2091">"Non Etichettata" a</text><text fill="#000000" font-family="Verdana" font-size="13" lengthAdjust="spacing" textLength="172.9927" x="681.46" y="1092.3419">"Etichettatura Provvisoria"</text></g><g class="entity" data-entity="GMN39" data-source-line="82" data-uid="ent0040" id="entity_GMN39"><path d="M669.41,1135.0094 L669.41,1190.4078 L875.5013,1190.4078 L875.5013,1145.0094 L865.5013,1135.0094 L669.41,1135.0094" fill="#FFFFFF" style="stroke:#000000;stroke-width:1;"/><path d="M865.5013,1135.0094 L865.5013,1145.0094 L875.5013,1145.0094 L865.5013,1135.0094" fill="#FFFFFF" style="stroke:#000000;stroke-width:1;"/><text fill="#000000" font-family="Verdana" font-size="13" lengthAdjust="spacing" textLength="154.3433" x="675.41" y="1152.0763">Cambia stato notizia da</text><text fill="#000000" font-family="Verdana" font-size="13" lengthAdjust="spacing" textLength="185.0913" x="675.41" y="1167.2091">"Etichettatura Provvisoria" a</text><text fill="#000000" font-family="Verdana" font-size="13" lengthAdjust="spacing" textLength="154.5718" x="675.41" y="1182.3419">"Etichettatura Validata"</text></g><g class="entity" data-entity="GMN42" data-source-line="88" data-uid="ent0043" id="entity_GMN42"><path d="M305.73,167.5794 L305.73,207.845 L532.4131,207.845 L532.4131,177.5794 L522.4131,167.5794 L305.73,167.5794" fill="#FFFFFF" style="stroke:#000000;stroke-width:1;"/><path d="M522.4131,167.5794 L522.4131,177.5794 L532.4131,177.5794 L522.4131,167.5794" fill="#FFFFFF" style="stroke:#000000;stroke-width:1;"/><text fill="#000000" font-family="Verdana" font-size="13" lengthAdjust="spacing" textLength="205.6831" x="311.73" y="184.6463">Gestione delle tabelle di lookup</text><text fill="#000000" font-family="Verdana" font-size="13" lengthAdjust="spacing" textLength="150.6743" x="311.73" y="199.7791">per Topic e Motivazioni</text></g><!--reverse link Esperto to EJ--><g class="link" data-entity-1="Esperto" data-entity-2="EJ" data-source-line="22" data-uid="lnk6" id="link_Esperto_EJ"><path d="M51.5096,690.8802 C76.7796,576.0802 146.47,259.4494 171.82,144.2694" fill="none" id="Esperto-backto-EJ" style="stroke:#00008B;stroke-width:1;"/><polygon fill="none" points="47.64,708.4594,57.3693,692.1701,45.6498,689.5904,47.64,708.4594" style="stroke:#00008B;stroke-width:1;"/></g><!--reverse link Esperto to ES--><g class="link" data-entity-1="Esperto" data-entity-2="ES" data-source-line="23" data-uid="lnk7" id="link_Esperto_ES"><path d="M74.2371,693.1898 C99.8571,653.5298 129.39,607.8394 155.02,568.1694" fill="none" id="Esperto-backto-ES" style="stroke:#00008B;stroke-width:1;"/><polygon fill="none" points="64.47,708.3094,79.277,696.4455,69.1973,689.934,64.47,708.3094" style="stroke:#00008B;stroke-width:1;"/></g><!--reverse link Esperto to Admin--><g class="link" data-entity-1="Esperto" data-entity-2="Admin" data-source-line="24" data-uid="lnk8" id="link_Esperto_Admin"><path d="M84.29,747.7094 C101.4,747.7094 106.04,747.7094 126.65,747.7094" fill="none" id="Esperto-backto-Admin" style="stroke:#00008B;stroke-width:1;"/><polygon fill="none" points="66.29,747.7094,84.29,753.7094,84.29,741.7094,66.29,747.7094" style="stroke:#00008B;stroke-width:1;"/></g><!--link Esperto to UC1--><g class="link" data-entity-1="Esperto" data-entity-2="UC1" data-source-line="50" data-uid="lnk21" id="link_Esperto_UC1"><path d="M66.16,766.6494 C83.27,778.2294 106.01,793.0194 127,804.7094 C190.58,840.1294 206.69,849.7094 275.05,874.7094 C300.38,883.9794 323.1716,890.5743 348.1116,896.8543" fill="none" id="Esperto-to-UC1" style="stroke:#00008B;stroke-width:1;"/><polygon fill="#00008B" points="353.93,898.3194,346.1792,892.2428,349.0814,897.0985,344.2257,900.0007,353.93,898.3194" style="stroke:#00008B;stroke-width:1;"/></g><!--link Esperto to UC2--><g class="link" data-entity-1="Esperto" data-entity-2="UC2" data-source-line="51" data-uid="lnk22" id="link_Esperto_UC2"><path d="M61.89,787.2994 C77.84,812.4894 100.88,844.5994 127,867.7094 C190.98,924.3394 279.0611,956.0117 342.7611,973.3717" fill="none" id="Esperto-to-UC2" style="stroke:#00008B;stroke-width:1;"/><polygon fill="#00008B" points="348.55,974.9494,340.9184,968.7237,343.7259,973.6347,338.8149,976.4422,348.55,974.9494" style="stroke:#00008B;stroke-width:1;"/></g><!--link EJ to UC3--><g class="link" data-entity-1="EJ" data-entity-2="UC3" data-source-line="54" data-uid="lnk23" id="link_EJ_UC3"><path d="M231.02,94.6194 C244.23,94.6194 257.5,97.5694 267.05,106.7094 C286.19,125.0394 259.51,204.2394 275.05,225.7094 C289.03,245.0294 304.9765,255.7586 327.1365,264.3586" fill="none" id="EJ-to-UC3" style="stroke:#00008B;stroke-width:1;"/><polygon fill="#00008B" points="332.73,266.5294,325.7869,259.5442,328.0687,264.7204,322.8925,267.0022,332.73,266.5294" style="stroke:#00008B;stroke-width:1;"/></g><!--link EJ to UC4--><g class="link" data-entity-1="EJ" data-entity-2="UC4" data-source-line="55" data-uid="lnk24" id="link_EJ_UC4"><path d="M230.61,88.4194 C242.09,85.2194 254.39,82.3494 266.05,80.7094 C386.57,63.7394 425.65,57.6094 539.09,101.7094 C629.36,136.7994 708.9223,214.8687 746.5223,255.6387" fill="none" id="EJ-to-UC4" style="stroke:#00008B;stroke-width:1;"/><polygon fill="#00008B" points="750.59,260.0494,747.4289,250.7216,747.2002,256.3738,741.548,256.1452,750.59,260.0494" style="stroke:#00008B;stroke-width:1;"/></g><!--link EJ to UC5--><g class="link" data-entity-1="EJ" data-entity-2="UC5" data-source-line="56" data-uid="lnk25" id="link_EJ_UC5"><path d="M188.48,144.3294 C198.01,193.9494 221.41,278.3194 275.05,326.7094 C289,339.2994 300.8686,346.2224 318.8186,352.5224" fill="none" id="EJ-to-UC5" style="stroke:#00008B;stroke-width:1;"/><polygon fill="#00008B" points="324.48,354.5094,317.3125,347.7546,319.7621,352.8535,314.6632,355.3031,324.48,354.5094" style="stroke:#00008B;stroke-width:1;"/></g><!--link ES to UC6--><g class="link" data-entity-1="ES" data-entity-2="UC6" data-source-line="59" data-uid="lnk26" id="link_ES_UC6"><path d="M233.05,514.5494 C263.87,505.9194 298.1523,496.3073 333.1123,486.5173" fill="none" id="ES-to-UC6" style="stroke:#00008B;stroke-width:1;"/><polygon fill="#00008B" points="338.89,484.8994,329.1448,483.4745,334.0752,486.2477,331.302,491.1781,338.89,484.8994" style="stroke:#00008B;stroke-width:1;"/></g><!--link ES to UC7--><g class="link" data-entity-1="ES" data-entity-2="UC7" data-source-line="60" data-uid="lnk27" id="link_ES_UC7"><path d="M186.12,489.2394 C195.07,400.8994 221.58,191.6994 275.05,149.7094 C367.34,77.2394 432.27,101.1194 539.09,149.7094 C597.58,176.3194 599.31,204.6694 634.09,258.7094 C651.52,285.8094 647.41,297.1394 664.09,324.7094 C687.26,363.0194 715.4733,398.4369 738.5333,425.4369" fill="none" id="ES-to-UC7" style="stroke:#00008B;stroke-width:1;"/><polygon fill="#00008B" points="742.43,429.9994,739.6266,420.5579,739.1828,426.1973,733.5434,425.7535,742.43,429.9994" style="stroke:#00008B;stroke-width:1;"/></g><!--link ES to UC8--><g class="link" data-entity-1="ES" data-entity-2="UC8" data-source-line="61" data-uid="lnk28" id="link_ES_UC8"><path d="M233.05,536.4294 C257.66,540.1894 282.219,543.9418 311.299,548.3918" fill="none" id="ES-to-UC8" style="stroke:#00008B;stroke-width:1;"/><polygon fill="#00008B" points="317.23,549.2994,308.9386,543.984,312.2875,548.543,307.7285,551.892,317.23,549.2994" style="stroke:#00008B;stroke-width:1;"/></g><!--link Admin to UC9--><g class="link" data-entity-1="Admin" data-entity-2="UC9" data-source-line="64" data-uid="lnk29" id="link_Admin_UC9"><path d="M236.25,774.3294 C248.83,780.0994 262.28,785.8994 275.05,790.7094 C297.93,799.3294 317.6446,805.6478 340.6846,812.2878" fill="none" id="Admin-to-UC9" style="stroke:#00008B;stroke-width:1;"/><polygon fill="#00008B" points="346.45,813.9494,338.9097,807.6135,341.6455,812.5648,336.6943,815.3006,346.45,813.9494" style="stroke:#00008B;stroke-width:1;"/></g><!--link Admin to UC10--><g class="link" data-entity-1="Admin" data-entity-2="UC10" data-source-line="65" data-uid="lnk30" id="link_Admin_UC10"><path d="M236.27,747.7094 C259.35,747.7094 281.15,747.7094 307.98,747.7094" fill="none" id="Admin-to-UC10" style="stroke:#00008B;stroke-width:1;"/><polygon fill="#00008B" points="313.98,747.7094,304.98,743.7094,308.98,747.7094,304.98,751.7094,313.98,747.7094" style="stroke:#00008B;stroke-width:1;"/></g><!--link Admin to UC11--><g class="link" data-entity-1="Admin" data-entity-2="UC11" data-source-line="66" data-uid="lnk31" id="link_Admin_UC11"><path d="M236.3,721.2094 C248.87,715.4394 262.31,709.5994 275.05,704.7094 C296.99,696.2794 315.5606,690.0583 337.8106,683.2783" fill="none" id="Admin-to-UC11" style="stroke:#00008B;stroke-width:1;"/><polygon fill="#00008B" points="343.55,681.5294,333.7749,680.3265,338.7671,682.9868,336.1068,687.9791,343.55,681.5294" style="stroke:#00008B;stroke-width:1;"/></g><!--link UC3 to UC4--><g class="link" data-entity-1="UC3" data-entity-2="UC4" data-source-line="69" data-uid="lnk32" id="link_UC3_UC4"><path d="M534.15,283.7094 C576.24,283.7094 617.72,283.7094 659.09,283.7094" fill="none" id="UC3-to-UC4" style="stroke:#00008B;stroke-width:1;stroke-dasharray:7.0,7.0;"/><polygon fill="#00008B" points="665.09,283.7094,656.09,279.7094,660.09,283.7094,656.09,287.7094,665.09,283.7094" style="stroke:#00008B;stroke-width:1;"/><text fill="#000000" font-family="Verdana" font-size="13" lengthAdjust="spacing" textLength="63.0068" x="570.09" y="279.7763">&#171;include&#187;</text></g><!--link UC5 to UC4--><g class="link" data-entity-1="UC5" data-entity-2="UC4" data-source-line="70" data-uid="lnk33" id="link_UC5_UC4"><path d="M498.05,350.6194 C558.1,335.9294 634.6522,317.1965 693.2522,302.8465" fill="none" id="UC5-to-UC4" style="stroke:#00008B;stroke-width:1;stroke-dasharray:7.0,7.0;"/><polygon fill="#00008B" points="699.08,301.4194,689.3869,299.6748,694.2235,302.6086,691.2897,307.4453,699.08,301.4194" style="stroke:#00008B;stroke-width:1;"/><text fill="#000000" font-family="Verdana" font-size="13" lengthAdjust="spacing" textLength="61.1851" x="571.09" y="315.7763">&#171;extend&#187;</text></g><!--link UC6 to UC7--><g class="link" data-entity-1="UC6" data-entity-2="UC7" data-source-line="71" data-uid="lnk34" id="link_UC6_UC7"><path d="M527.4,462.7094 C570.7,462.7094 614.55,462.7094 657.87,462.7094" fill="none" id="UC6-to-UC7" style="stroke:#00008B;stroke-width:1;stroke-dasharray:7.0,7.0;"/><polygon fill="#00008B" points="663.87,462.7094,654.87,458.7094,658.87,462.7094,654.87,466.7094,663.87,462.7094" style="stroke:#00008B;stroke-width:1;"/><text fill="#000000" font-family="Verdana" font-size="13" lengthAdjust="spacing" textLength="63.0068" x="570.09" y="458.7763">&#171;include&#187;</text></g><!--link UC8 to UC7--><g class="link" data-entity-1="UC8" data-entity-2="UC7" data-source-line="72" data-uid="lnk35" id="link_UC8_UC7"><path d="M502.01,540.9294 C559.3,524.2894 629.6381,503.8828 686.3481,487.4128" fill="none" id="UC8-to-UC7" style="stroke:#00008B;stroke-width:1;stroke-dasharray:7.0,7.0;"/><polygon fill="#00008B" points="692.11,485.7394,682.3515,484.4082,687.3084,487.1339,684.5827,492.0908,692.11,485.7394" style="stroke:#00008B;stroke-width:1;"/><text fill="#000000" font-family="Verdana" font-size="13" lengthAdjust="spacing" textLength="61.1851" x="571.09" y="500.7763">&#171;extend&#187;</text></g><!--link UC5 to GMN36--><g class="link" data-entity-1="UC5" data-entity-2="GMN36" data-source-line="76" data-uid="lnk38" id="link_UC5_GMN36"><path d="M503.77,387.4694 C517.11,393.5594 529.61,401.7294 539.09,412.7094 C561.91,439.1394 641.83,1001.7994 664.09,1028.7094 C669.09,1034.7594 675.07,1039.9994 681.6,1044.5094" fill="none" id="UC5-GMN36" style="stroke:#00008B;stroke-width:1;stroke-dasharray:7.0,7.0;"/></g><!--link UC8 to GMN39--><g class="link" data-entity-1="UC8" data-entity-2="GMN39" data-source-line="82" data-uid="lnk41" id="link_UC8_GMN39"><path d="M504.73,587.6494 C518.15,594.8694 530.43,604.3294 539.09,616.7094 C600.61,704.6394 503.01,1014.1494 569.09,1098.7094 C593.08,1129.4194 631.78,1145.6694 668.95,1154.1794" fill="none" id="UC8-GMN39" style="stroke:#00008B;stroke-width:1;stroke-dasharray:7.0,7.0;"/></g><!--link UC10 to GMN42--><g class="link" data-entity-1="UC10" data-entity-2="GMN42" data-source-line="88" data-uid="lnk44" id="link_UC10_GMN42"><path d="M322.03,737.7194 C293.89,729.1994 267.51,714.0194 255.55,687.2094 C236.21,643.8794 236.21,303.5394 255.55,260.2094 C266.62,235.3994 289.23,219.0794 314.19,208.3394" fill="none" id="UC10-GMN42" style="stroke:#00008B;stroke-width:1;stroke-dasharray:7.0,7.0;"/></g><!--SRC=[ZLNDRjiu4BxhAMPzINfmq_mxHX30TRgB3TfWiTxcv0ijZUr1A58WgQIRRT-bxz8Nso55sQRK60sGXEJCV1zdED_eDxV64g6IWbHc7qbLmeWIHEwqcRb_9O9uHgjBt37M5dDX4VxBW7_UY_nnPNIjYgcMse2arTejP8sDLPi2JMCfX7dS62R6wEVE-RSTae8Cvewq0gSh_eM5TawNMUR8yQrkIQpOhHHG8C5KM8BYuBFLC8G7DBIS_0dt-6opx00c76S8ActfXV648n1WIP5rHcGIbyx36t_jBQiF_0EDCFcQFCTAKWJAGcrWyC5MQ9mUWB0GrnqJtDMAj6ayxhh66MwDCu3MF2dBU3NUOZ1F2Zxo5_eRfV0fSAu4QB0W9moX-_4zQr6llmw7dYpTpzBz1d36H5YAp2Sjr8hhEeX7IHK7yQd3duEssZLNkq0f3uIl2yA2Uo9ujFqn-3mz7iD7lI85GhPa8IMsT5rFWgkk-H5wpYUlq7DEa1QxYtewXWUojP3qyYBW8wEAkRhNZbi1uPwxwuEZV8tE2OUHxBIBSPPWt7fdReSMfhtZMJViV0nJNLOa1VokJJbNMwhQ2FZBwASdijnHBSBvBsJPT4tqsY6xs9TddkJ9v7FLPx_eGbxkJnkmYxdJxXpTXHlvSgWbcb8SVT85BIaNdPhCrU43qnMXoV5DH1hjAKkgbYxbrPWrRBsS4IRA3un86ef94V-grxJlTk9yAN6k_j4LvPpo9qx-gH5XsyZlUl7SzPCyHykNl1LslT3257F5Dv34jqVMSQMPdndoZHoEUVgb4kz82mvTxNXs-Kc4JGBj350Qf5VPaGm2UhDH-t1u4wIMxazIebH0S9XlIyoMt3yKCUHTZ3xTBi-so_EVOyPsVGrp5gCljilBxNAKOgPl_Hfcc6qHu2hPyKCbs-FUI2MLozhwPp_YvqSLbXcd36_VXdnX3DVNmQl0cnksd2SM_C91HJ1SHCDbBsIKM3OXV1SM5eQkzjySGoKgHvdoXyt7II_Za9YASi42P8rpYLMKOo7OCaX7ckykV_hwvCcOtKDWrcCQxMVQDytwzaRNha_OVDORnY2bZVAy012SM8J__3nIwyUwOXTVevy8SWFzFm00]--></g></svg>